<svg width="48" height="48" viewBox="0 0 48 48" fill="none" xmlns="http://www.w3.org/2000/svg">
<path d="M23.6856 17.5734C24.1372 17.7505 24.5802 17.3171 24.4305 16.8559C23.4031 13.69 19.6835 12.5091 16.2257 15.3178C14.4068 16.7954 13.7233 17.1093 13.7061 17.1173C14.9051 18.3161 16.275 22.3391 19.2646 22.7841C22.5578 23.3811 25.4726 20.1411 23.0879 18.6585C21.5196 17.6835 19.6731 17.1172 17.6938 17.1172C19.7688 16.6494 21.8403 16.85 23.6856 17.5734Z" fill="#78BE20"/>
<path d="M38.5991 15.3176C32.6303 10.4692 28.8237 18.1152 31.1898 17.3573C32.8703 16.819 34.7075 16.7017 36.5504 17.1171C33.428 17.1171 30.5498 18.548 28.6308 20.8771C28.7884 17.2169 29.0268 14.9258 29.3032 13.2215C30.8981 13.1667 33.0239 11.8787 34.1913 9.62502C36.2039 6.02327 35.2705 2.33028 34.9702 0C33.3976 1.53136 26.5281 -0.262989 23.8048 4.40357C22.6019 6.46497 22.9515 8.97344 24.217 10.8091C24.6176 11.3902 25.5754 11.1114 25.6027 10.4062C25.7216 7.33832 27.2484 5.02046 30.0948 3.73668C28.8176 5.3916 27.9789 7.24441 27.5457 9.15944C26.8722 12.1426 26.1688 14.0995 25.9105 23.6077C25.8843 24.5719 26.6655 25.3701 27.63 25.358C28.3283 25.3492 28.9265 24.9061 29.195 24.2615C29.6034 23.2811 30.2682 22.2664 31.3499 21.3367C32.3779 22.4729 33.9421 23.0775 35.5606 22.784C38.5375 22.341 39.9267 18.3092 41.1191 17.117C41.1016 17.1093 40.418 16.7953 38.5991 15.3176Z" fill="#78BE20"/>
<path d="M47.373 27.1647C45.507 25.8987 43.4761 26.8009 42.5434 27.3394L30.8391 35.9058L23.986 35.9073L22.2727 34.194H28.5665C30.4593 34.194 32.5792 32.9611 32.5792 30.7667C32.5792 28.4369 30.4593 27.3394 28.5665 27.3394H26.2079C24.4559 27.3394 22.4084 27.4956 20.9647 26.7228C19.5931 26.0248 18.0137 25.6277 16.3277 25.6277C13.4966 25.6277 10.9628 26.7563 9.22647 28.5362L0 37.6191L10.2797 47.8988L13.7063 42.7589H29.8985C31.6254 42.7589 33.2923 42.1254 34.5833 40.9786L47.4901 29.513C48.2077 28.8756 48.1672 27.7037 47.373 27.1647Z" fill="#78BE20"/>
</svg>
