<svg width="66" height="64" viewBox="0 0 66 64" fill="none" xmlns="http://www.w3.org/2000/svg">
<path d="M64.0003 17.3559C63.7126 17.3559 63.4367 17.4702 63.2332 17.6736C63.0298 17.8771 62.9155 18.153 62.9155 18.4407V19.5254L61.6138 17.7898C61.4982 17.6363 61.3439 17.5162 61.1667 17.4418C60.9894 17.3675 60.7956 17.3416 60.605 17.3668C60.4136 17.3915 60.2323 17.4669 60.0798 17.5852C59.9272 17.7034 59.809 17.8602 59.7372 18.0393L58.5765 20.9464L57.4159 18.0393C57.35 17.8714 57.2433 17.7226 57.1054 17.6063C56.9676 17.49 56.8028 17.4099 56.6262 17.3733C56.4496 17.3366 56.2666 17.3447 56.0939 17.3966C55.9212 17.4485 55.7641 17.5426 55.6369 17.6705L53.5325 19.7749L54.2376 14.2319C54.2429 14.1886 54.2429 14.1449 54.2376 14.1017C54.2376 12.9509 54.6947 11.8473 55.5084 11.0336C56.3221 10.2199 57.4258 9.76271 58.5765 9.76271C59.7273 9.76271 60.831 10.2199 61.6447 11.0336C62.4584 11.8473 62.9155 12.9509 62.9155 14.1017C62.9155 14.3894 63.0298 14.6653 63.2332 14.8687C63.4367 15.0722 63.7126 15.1864 64.0003 15.1864C64.288 15.1864 64.5639 15.0722 64.7673 14.8687C64.9707 14.6653 65.085 14.3894 65.085 14.1017C65.0838 12.9604 64.7826 11.8394 64.2114 10.8512C63.6402 9.8631 62.8192 9.04254 61.8308 8.47186V7.59322C61.8308 6.59606 61.6344 5.60867 61.2528 4.68742C60.8712 3.76617 60.3119 2.9291 59.6068 2.224C58.9017 1.51891 58.0646 0.959595 57.1434 0.578C56.2221 0.196405 55.2347 0 54.2376 0H49.8986C49.0355 0 48.2078 0.342856 47.5975 0.953144C46.9872 1.56343 46.6443 2.39116 46.6443 3.25424C46.6443 4.11731 46.9872 4.94504 47.5975 5.55533C48.2078 6.16562 49.0355 6.50847 49.8986 6.50847H54.2376C54.5253 6.50847 54.8012 6.62276 55.0046 6.82619C55.208 7.02962 55.3223 7.30553 55.3223 7.59322V8.47186C54.5888 8.90259 53.9445 9.46961 53.424 10.1424L45.8308 19.9051C45.6919 20.0831 45.6121 20.3 45.6023 20.5256C45.5926 20.7511 45.6535 20.9741 45.7765 21.1634C45.8667 21.3162 45.993 21.4446 46.1442 21.5372C46.2955 21.6299 46.4673 21.684 46.6443 21.6949C46.7308 21.7054 46.8182 21.7054 46.9047 21.6949L51.2437 20.6102L50.9833 22.3783C45.2407 26.9301 38.7866 30.5035 31.8809 32.9546C21.0443 36.8814 9.88231 38.1722 1.31281 36.3715C1.15262 36.3371 0.9867 36.3394 0.827516 36.3782C0.668332 36.4171 0.520019 36.4915 0.393713 36.5959C0.267407 36.7003 0.166391 36.8319 0.0982483 36.9809C0.0301059 37.1299 -0.00339155 37.2925 0.000271049 37.4563C0.0874415 39.8344 0.76597 42.1534 1.97451 44.2034C2.07052 44.3653 2.20701 44.4995 2.37057 44.5927C2.53414 44.6859 2.71914 44.7349 2.90739 44.7349C3.10208 44.7349 3.29317 44.6824 3.46061 44.583C3.58456 44.5104 3.69283 44.4138 3.77915 44.299C3.86546 44.1841 3.9281 44.0532 3.96342 43.914C3.99874 43.7747 4.00605 43.6298 3.98491 43.4877C3.96376 43.3456 3.9146 43.2091 3.84027 43.0861C3.05 41.7535 2.52682 40.2797 2.29993 38.7471C9.34863 39.7283 16.5196 39.3601 23.4308 37.6624C22.3509 38.183 21.3906 38.9217 20.6104 39.8319C20.479 40.0519 20.4297 40.3113 20.4712 40.5642C20.5128 40.8171 20.6425 41.0471 20.8375 41.2134C21.0324 41.3798 21.28 41.4717 21.5363 41.473C21.7925 41.4743 22.041 41.3848 22.2376 41.2203C22.974 40.4044 23.905 39.7882 24.9439 39.4293C25.9828 39.0704 27.0957 38.9804 28.1787 39.1678C29.2618 39.3551 30.2797 39.8137 31.1376 40.5008C31.9956 41.1879 32.6655 42.081 33.085 43.097C32.5535 43.3464 32.0003 43.6068 31.4687 43.8454C28.2504 45.2991 24.9293 46.5137 21.5325 47.4793C21.1286 45.3861 19.9683 43.5148 18.2729 42.2223C16.5775 40.9298 14.4657 40.3066 12.3403 40.4715C10.2148 40.6365 8.22443 41.578 6.74876 43.1166C5.27309 44.6551 4.41539 46.6831 4.33925 48.8136C4.34437 49.1363 4.36609 49.4585 4.40434 49.779C3.31959 49.779 2.23485 49.638 1.22603 49.5078C1.06275 49.4868 0.89683 49.5032 0.740839 49.5558C0.584848 49.6085 0.44288 49.6959 0.325695 49.8115C0.20813 49.9277 0.118672 50.0692 0.0641521 50.2253C0.00963221 50.3813 -0.00850751 50.5477 0.0111185 50.7119C0.265626 53.077 1.10844 55.3406 2.46264 57.2963C5.52163 61.6353 10.9237 64 17.8443 64C18.6904 64 19.5691 64 20.4586 63.8915C28.4206 63.2624 37.1745 59.8454 45.1148 54.2915C45.2322 54.2093 45.332 54.1047 45.4087 53.9837C45.4854 53.8627 45.5373 53.7277 45.5615 53.5865C45.5857 53.4453 45.5817 53.3007 45.5497 53.161C45.5177 53.0214 45.4584 52.8895 45.3752 52.7729C45.2093 52.539 44.9576 52.3804 44.675 52.3316C44.3925 52.2828 44.1021 52.3479 43.8674 52.5125C36.2742 57.8495 27.8674 61.1254 20.2959 61.7329C12.9196 62.3186 7.27891 60.301 4.24163 56.0488C3.35201 54.7751 2.72512 53.337 2.39756 51.8183C11.2274 52.6536 22.064 50.5166 32.4125 45.8739C43.9867 40.678 53.5976 32.9329 58.4464 24.9383H58.5765C58.7938 24.9385 59.0061 24.8735 59.186 24.7516C59.3658 24.6298 59.505 24.4567 59.5854 24.2549L61.0389 20.6102L62.9155 23.0834C63.3494 31.4142 57.1989 41.9688 47.1325 50.0827C47.021 50.1722 46.9284 50.2829 46.8599 50.4083C46.7913 50.5338 46.7483 50.6715 46.7332 50.8136C46.718 50.9558 46.7312 51.0995 46.7718 51.2365C46.8124 51.3736 46.8797 51.5012 46.9698 51.6122C47.0572 51.7373 47.17 51.8425 47.3008 51.921C47.4317 51.9995 47.5776 52.0495 47.7291 52.0678C47.9775 52.0688 48.2187 51.9846 48.4125 51.8292C59.0104 43.2597 65.4647 32.0434 65.085 23.0508C65.0964 22.9608 65.0964 22.8697 65.085 22.7797V18.4407C65.085 18.153 64.9707 17.8771 64.7673 17.6736C64.5639 17.4702 64.288 17.3559 64.0003 17.3559ZM13.0172 42.3051C14.6245 42.295 16.1787 42.8801 17.3804 43.9476C18.5821 45.0151 19.3462 46.4895 19.5257 48.0868C15.313 49.1686 10.9877 49.7511 6.63892 49.8224C6.56855 49.4901 6.52502 49.1528 6.50875 48.8136C6.50875 47.0874 7.19446 45.4319 8.41503 44.2114C9.63561 42.9908 11.2911 42.3051 13.0172 42.3051ZM56.0057 20.3715L57.0904 23.0292L56.7108 23.6692C55.7407 23.1442 54.6664 22.8404 53.565 22.7797L56.0057 20.3715ZM34.7121 39.0508C34.7177 37.7052 35.1401 36.3944 35.9214 35.2988C36.7026 34.2032 37.8042 33.3767 39.0746 32.933C40.3449 32.4894 41.7216 32.4503 43.0151 32.8214C44.3085 33.1924 45.4552 33.9552 46.2972 35.0047C42.909 37.6723 39.2772 40.0148 35.4498 42.0014C34.9743 41.0899 34.7215 40.0788 34.7121 39.0508ZM45.6681 31.6203C44.7408 31.0707 43.7174 30.7025 42.6525 30.5356C43.7372 29.9607 44.7352 29.3749 45.744 28.7675C45.623 29.2941 45.5611 29.8325 45.5596 30.3729C45.563 30.7909 45.5992 31.208 45.6681 31.6203ZM54.2376 4.33898H49.8986C49.7302 4.33898 49.5641 4.29978 49.4135 4.22446C49.2628 4.14915 49.1318 4.03981 49.0308 3.90508C48.9099 3.74392 48.8363 3.55229 48.8182 3.35165C48.8001 3.15102 48.8383 2.94931 48.9284 2.76912C49.0184 2.58894 49.1569 2.43741 49.3283 2.3315C49.4997 2.22559 49.6971 2.16949 49.8986 2.16949H54.2376C55.676 2.16949 57.0556 2.74092 58.0727 3.75806C59.0899 4.77521 59.6613 6.15476 59.6613 7.59322V7.69085C58.944 7.56067 58.2091 7.56067 57.4918 7.69085V7.59322C57.4918 6.73014 57.1489 5.90242 56.5387 5.29213C55.9284 4.68184 55.1006 4.33898 54.2376 4.33898ZM49.4321 18.7986L51.862 15.6637L51.5365 18.2671L49.4321 18.7986ZM27.1189 36.8814H26.685C28.681 36.339 30.6769 35.7026 32.6728 34.9722L33.8118 34.5383C33.02 35.8224 32.5821 37.2932 32.5426 38.8014C31.0057 37.5632 29.0926 36.886 27.1189 36.8814ZM48.5101 33.1607C47.9166 32.1598 47.6607 30.9946 47.7802 29.8372C47.8997 28.6797 48.3883 27.5914 49.1738 26.7329C49.9594 25.8744 51.0001 25.2913 52.1424 25.0698C53.2848 24.8482 54.4681 24.9999 55.5176 25.5024C53.4903 28.3212 51.1383 30.8917 48.5101 33.1607Z" fill="#78BE20"/>
</svg>
