<svg width="71" height="64" viewBox="0 0 71 64" fill="none" xmlns="http://www.w3.org/2000/svg">
<path d="M67.8853 21.4019C65.8148 18.5103 62.4565 16.9179 58.4291 16.9179C57.4519 16.9179 56.4371 17.014 55.3969 17.2001C55.8396 16.9435 56.2839 16.6956 56.7294 16.4583C57.7715 15.9031 58.9184 15.6706 59.978 15.8025C60.9998 15.9291 62.0489 15.5537 62.7574 14.806C63.3814 14.1475 63.6981 13.2847 63.6493 12.3765C63.5625 10.7655 62.2868 9.44166 60.6818 9.2975C59.6406 9.20321 58.6126 9.61475 57.9265 10.3966C57.2951 11.1157 56.5121 11.6665 55.6619 11.9894C53.6359 12.7587 51.661 13.6702 49.7508 14.7132C50.2922 10.2842 49.5585 6.81172 47.5584 4.37268C45.179 1.47113 40.9816 0 35.0826 0C30.2102 0 26.6258 0.948044 24.1244 2.89826C23.6767 3.24717 23.5968 3.89304 23.9458 4.34075C24.2947 4.78846 24.9406 4.86863 25.3883 4.51931C27.4852 2.88442 30.7467 2.0556 35.0826 2.0556C40.3361 2.0556 43.9988 3.27376 45.9688 5.67593C47.8173 7.93011 48.3212 11.415 47.4684 16.0395C47.4507 16.0504 47.4333 16.0618 47.4156 16.0728C43.771 18.3411 40.4289 21.0963 37.4366 24.1709C37.4292 24.1786 37.4216 24.1858 37.414 24.1935C37.4107 24.1912 37.4072 24.1893 37.4039 24.1868C37.0115 23.9045 36.5737 23.6977 36.1102 23.5741V11.9395C36.1102 11.3719 35.65 10.9117 35.0824 10.9117C34.5148 10.9117 34.0546 11.3719 34.0546 11.9395V23.5741C33.5489 23.7089 33.0731 23.9424 32.6543 24.2654C32.652 24.2672 32.6497 24.2691 32.6474 24.2711C32.5562 24.3416 32.4676 24.4159 32.3822 24.4947C31.6979 25.1267 30.7284 24.95 29.9067 25.2604C29.8904 25.2665 29.8735 25.271 29.8573 25.2775C29.8469 25.2683 29.8364 25.2595 29.8258 25.2504C28.9954 24.5235 28.1398 23.8239 27.2603 23.1572C26.1567 22.3195 25.0481 21.5564 23.9413 20.8793C22.0548 14.9738 21.7869 10.436 23.1454 7.38798C23.3764 6.86942 23.1435 6.26192 22.625 6.03073C22.1065 5.79982 21.499 6.03279 21.2678 6.55107C19.8475 9.73794 19.8803 13.9771 21.3763 19.4608C18.028 17.7939 14.7545 16.9169 11.7361 16.9169C7.70794 16.9169 4.34949 18.5093 2.27895 21.4008C-0.443218 25.2024 -0.736758 30.84 1.45246 37.275C2.86219 41.4185 5.15241 44.0819 8.27035 45.2134C7.43098 46.9116 7.00602 48.6681 7.01931 50.4362C7.06481 56.4561 12.1491 61.3202 20.62 63.4477C22.0789 63.8142 23.4652 64 24.7407 64C27.8212 64 30.3649 62.9368 32.3012 60.84C33.5333 59.5058 34.4311 57.8355 35.0806 56.0056C36.9493 61.2537 40.4734 63.9999 45.424 64C46.6992 64 48.0855 63.8142 49.5444 63.4477C58.0153 61.3202 63.0996 56.4559 63.1451 50.4362C63.1584 48.6681 62.7336 46.9115 61.8941 45.2134C65.0124 44.0819 67.3028 41.4186 68.7125 37.2751C70.9015 30.8409 70.6078 25.2036 67.8853 21.4019ZM37.7543 26.8234C40.9664 23.3367 44.6445 20.1903 48.7048 17.694C51.1516 16.1916 53.7258 14.9231 56.3915 13.911C57.5543 13.4694 58.6192 12.7231 59.4711 11.7526C60.1724 10.9538 61.5393 11.4257 61.5964 12.4867C61.6366 13.2319 60.9728 13.8545 60.2314 13.7625C58.7539 13.579 57.1765 13.8909 55.7628 14.644C52.98 16.1264 50.2463 17.9664 47.6376 20.1126C44.8792 22.3821 42.4493 25.0337 40.286 27.871C38.9061 29.6807 37.5737 31.5619 36.513 33.5793C36.1165 34.3335 35.1785 34.7398 34.375 34.4051C33.4097 34.003 33.134 32.7739 33.6497 31.9105C34.7674 30.0384 36.2834 28.42 37.7543 26.8234ZM3.39884 36.6129C1.42889 30.8228 1.62486 25.8454 3.95043 22.5975C5.64863 20.226 8.34093 18.9725 11.7362 18.9725C15.0804 18.9725 18.8103 20.1929 22.6255 22.4858C24.1759 23.4177 25.6562 24.4707 27.0615 25.6097C27.4241 25.9035 27.8093 26.2239 28.1731 26.5373C28.1574 26.5255 27.8168 27.1005 27.7897 27.1504C27.5951 27.5081 27.4642 27.8998 27.3928 28.3007C27.3231 28.6924 27.3443 29.1075 27.1904 29.4804C23.6682 28.6289 18.2626 28.0653 11.4343 29.6526C10.8814 29.7812 10.5374 30.3336 10.666 30.8864C10.7945 31.4392 11.3465 31.7833 11.8997 31.6548C17.9224 30.2545 22.7444 30.6216 26.0376 31.3258C25.8192 31.8989 25.7333 32.5179 25.791 33.131C25.6073 33.1839 25.4244 33.2388 25.2414 33.2938C21.5423 34.4062 17.8681 35.9739 14.6733 38.2023C12.6302 39.6275 10.7552 41.3442 9.33803 43.4042C6.61408 42.5696 4.66688 40.3403 3.39884 36.6129ZM30.7914 59.4455C29.2386 61.1271 27.2595 61.9445 24.7411 61.9445C23.6343 61.9445 22.4165 61.7795 21.1212 61.4542C13.6163 59.5692 9.11315 55.4446 9.07519 50.4207C9.04422 46.325 11.9149 42.861 15.0118 40.4973C17.8685 38.3169 21.6101 36.5151 25.9961 35.213C25.9997 35.212 26.3425 35.1116 26.5108 35.0638C26.6074 35.1992 26.7131 35.3295 26.8259 35.4516C27.1359 35.7874 27.3168 36.2237 27.3348 36.6805C27.3536 37.1502 27.4561 37.5997 27.6265 38.0154C25.1333 40.491 21.9075 44.6274 19.6396 50.927C19.4474 51.4611 19.7245 52.0499 20.2586 52.2422C20.7851 52.4317 21.3839 52.1508 21.5738 51.6233C23.6568 45.8372 26.5773 42.0031 28.8833 39.6658C29.518 40.1584 30.303 40.4651 31.1535 40.4991C31.6102 40.5173 32.0466 40.6981 32.3825 41.0082C32.9593 41.5409 33.6938 41.8957 34.4696 42.0159C34.7412 46.4361 34.7135 55.1983 30.7914 59.4455ZM33.777 39.4979C33.0826 38.8567 32.18 38.4828 31.2354 38.4451C30.2397 38.4054 29.4286 37.5944 29.3889 36.5987C29.3536 35.7131 29.0228 34.8646 28.4534 34.1899C27.7802 33.3923 27.576 32.2691 28.3362 31.4458C28.9774 30.7513 29.3513 29.8487 29.3889 28.9043C29.428 27.9289 30.2602 27.097 31.2354 27.0578C32.1799 27.0201 33.0825 26.6462 33.777 26.005C34.3297 25.4946 35.3139 25.2757 35.9676 25.7214C35.9391 25.7659 35.9038 25.8004 35.8683 25.8396C34.9899 26.8088 34.1182 27.7901 33.309 28.8182C32.7962 29.4697 32.3102 30.1445 31.885 30.8567C31.3035 31.8305 31.1732 33.0048 31.5277 34.0782C31.8232 34.9728 32.4193 35.6895 33.2263 36.1307C35.0399 37.1222 37.3798 36.3487 38.3327 34.5357C39.0847 33.1051 39.9993 31.7669 40.7947 30.6467C40.887 30.5167 40.9802 30.3891 41.0738 30.2623C41.1173 30.3677 41.1654 30.4712 41.2177 30.5725C41.2191 30.5752 41.2205 30.5781 41.2218 30.5808C41.4559 31.0225 41.8374 31.3618 42.0822 31.7953C42.4881 32.5139 42.3904 33.4492 41.8291 34.0571C41.1921 34.747 40.8136 35.6603 40.7763 36.5985C40.7366 37.5943 39.9256 38.4054 38.9298 38.4451C38.0033 38.482 37.0794 38.8597 36.3883 39.4979C35.6618 40.1687 34.5033 40.1688 33.777 39.4979ZM49.0441 61.4542C45.3835 62.3736 41.444 62.0851 38.9481 58.9476C37.6197 57.2778 36.6706 54.9037 36.126 51.8898C36.2131 51.3706 36.2856 50.8492 36.3476 50.3283C36.3496 50.3115 36.3514 50.2947 36.3533 50.278C36.6603 47.67 36.6933 45.0325 36.552 42.412C36.5496 42.3655 36.4957 41.8041 36.5163 41.7973C36.9829 41.6416 37.4232 41.3401 37.7829 41.0081C38.1187 40.6981 38.5552 40.5172 39.0119 40.4991C39.8624 40.4651 40.6474 40.1586 41.282 39.6658C43.588 42.0033 46.5086 45.8372 48.5914 51.6231C49.037 52.8605 50.977 52.1812 50.5256 50.927C48.2577 44.6276 45.032 40.4912 42.5386 38.0152C42.709 37.5996 42.8116 37.1501 42.8304 36.6803C42.8485 36.2262 43.031 35.7855 43.3394 35.4515C43.452 35.3295 43.558 35.1989 43.6544 35.0637C43.678 35.0704 44.0188 35.1682 44.1648 35.2117C49.9121 36.9173 56.221 39.8209 59.4846 45.1248C60.4682 46.7244 61.1043 48.5254 61.0901 50.4207C61.052 55.4446 56.5488 59.5692 49.0441 61.4542ZM66.7667 36.6129C65.4982 40.3403 63.551 42.5696 60.8269 43.4045C60.0912 42.3349 59.1856 41.2967 58.1146 40.303C55.4732 37.8523 52.258 36.0502 48.9346 34.6997C47.4731 34.1058 45.9767 33.5942 44.461 33.1569C44.4319 33.1484 44.4034 33.1396 44.3742 33.1311C44.4319 32.5179 44.3461 31.8989 44.1276 31.3259C47.4208 30.6219 52.2426 30.2547 58.2655 31.6549C58.8183 31.7832 59.3708 31.4395 59.4993 30.8865C59.6278 30.3337 59.2839 29.7813 58.7309 29.6528C51.9026 28.0652 46.4972 28.6291 42.975 29.4805C42.9104 29.4961 42.743 28.1415 42.742 28.1372C42.7379 28.1183 42.7345 28.0991 42.7301 28.0801C42.7859 28.0103 42.8422 27.9418 42.8982 27.8726C43.8394 26.7102 44.8301 25.5862 45.8789 24.5197C46.851 23.5279 47.8716 22.5825 48.944 21.6999C48.9461 21.6983 48.9482 21.6966 48.9502 21.695L48.9846 21.6674C52.2992 19.9047 55.5634 18.9734 58.4293 18.9734C61.8239 18.9734 64.5161 20.2269 66.2143 22.5985C68.5401 25.8465 68.7362 30.8236 66.7667 36.6129Z" fill="#6880FF"/>
</svg>
