<svg width="1386" height="957" viewBox="0 0 1386 957" fill="none" xmlns="http://www.w3.org/2000/svg">
<g opacity="0.1">
<path d="M743.334 539.242C719.565 551.132 638.753 533.297 611.42 578.48C584.086 623.664 610.232 651.012 562.695 667.658C515.159 684.305 428.405 640.31 402.259 667.658C376.114 695.006 314.317 656.957 346.404 629.609C378.491 602.261 426.028 589.182 465.245 560.645C504.463 532.108 518.724 513.083 519.912 461.954C521.101 410.825 528.231 376.343 568.637 352.562C609.043 328.782 701.739 326.403 698.174 387.045C694.609 447.686 712.435 427.472 751.653 445.308C817.015 476.223 767.102 527.351 743.334 539.242Z" stroke="#9E9E9E" stroke-width="2" stroke-miterlimit="10"/>
<path d="M883.566 523.784C855.045 551.132 757.595 593.938 705.305 612.962C653.014 631.987 609.043 681.927 601.913 709.275C594.782 736.623 557.942 762.782 456.927 775.861C355.911 788.941 244.201 774.672 228.751 711.653C213.302 648.634 340.462 586.804 405.825 536.864C489.014 473.845 485.448 410.825 477.13 372.776C468.811 334.727 412.955 281.22 430.781 238.414C448.608 195.609 522.289 208.688 575.768 243.171C629.246 277.653 701.739 253.872 777.798 266.951C938.233 296.677 940.61 469.088 883.566 523.784Z" stroke="#9E9E9E" stroke-width="2" stroke-miterlimit="10"/>
<path d="M759.971 710.464C724.319 830.557 257.273 906.656 168.142 793.697C101.591 708.086 243.012 593.938 267.969 578.48C326.201 540.431 453.361 445.308 422.462 364.453C403.448 314.513 364.23 265.762 380.868 208.688C404.636 130.212 524.666 88.5952 626.869 129.023C696.986 156.371 815.827 234.847 922.784 247.927C1029.74 261.006 1105.8 275.275 1118.87 404.88C1131.94 534.486 793.247 602.261 759.971 710.464Z" stroke="#9E9E9E" stroke-width="2" stroke-miterlimit="10"/>
<path d="M1206.81 177.774C1035.68 205.122 951.306 133.78 868.117 88.5962C784.928 43.4127 657.768 -26.7408 530.608 12.4976C471.187 30.3332 443.854 31.5222 371.361 31.5222C244.201 31.5222 226.375 113.566 259.65 202.744C292.926 291.922 184.78 412.015 112.287 505.95C39.7939 599.884 8.89517 659.336 2.95311 709.276C-18.4383 869.796 139.62 913.791 294.114 932.816C498.521 958.974 755.218 979.188 941.799 897.144C1128.38 815.1 1338.73 498.815 1375.57 415.583C1412.41 332.35 1336.35 158.75 1206.81 177.774ZM1267.42 402.503C1228.21 543.999 1029.74 628.421 866.929 786.563C793.247 857.906 351.158 923.303 175.273 855.528C-0.612122 787.752 64.7505 639.122 132.49 566.591C200.229 494.059 319.071 463.144 309.563 345.429C303.621 271.709 297.679 197.988 359.477 126.646C446.231 27.9551 603.101 42.2236 669.652 79.0839C736.203 115.944 872.871 188.476 946.552 207.5C1020.23 226.525 1305.45 259.818 1267.42 402.503V402.503Z" stroke="#9E9E9E" stroke-width="2" stroke-miterlimit="10"/>
</g>
</svg>
