<svg width="48" height="56" viewBox="0 0 48 56" fill="none" xmlns="http://www.w3.org/2000/svg">
<path d="M48 51C48 53.7614 45.7614 56 43 56H5C2.23858 56 0 53.7614 0 51V5C0 2.23858 2.23858 0 5 0H31.5926C32.9156 0 34.1848 0.5244 35.1219 1.45832L46.5294 12.8262C47.4708 13.7643 48 15.0387 48 16.3678V51Z" fill="#2D9CDB"/>
<path d="M5.06445 34.1357H8.83105C10.3167 34.1357 11.472 34.5618 12.2969 35.4141C13.1217 36.2663 13.5342 37.4717 13.5342 39.0303C13.5342 40.5934 13.1195 41.8125 12.29 42.6875C11.4652 43.5625 10.3122 44 8.83105 44H5.06445V34.1357ZM7.12891 35.8379V42.291H8.58496C9.51009 42.291 10.2142 42.0153 10.6973 41.4639C11.1849 40.9079 11.4287 40.099 11.4287 39.0371C11.4287 38.0072 11.1826 37.2165 10.6904 36.665C10.1982 36.1136 9.49642 35.8379 8.58496 35.8379H7.12891ZM15.8379 35.3389C16.6947 34.4229 17.8545 33.9648 19.3174 33.9648C20.7803 33.9648 21.9378 34.4229 22.79 35.3389C23.6468 36.2549 24.0752 37.499 24.0752 39.0713C24.0752 40.639 23.6468 41.8809 22.79 42.7969C21.9333 43.7129 20.7757 44.1709 19.3174 44.1709C17.8545 44.1709 16.6947 43.7129 15.8379 42.7969C14.9857 41.8809 14.5596 40.639 14.5596 39.0713C14.5596 37.499 14.9857 36.2549 15.8379 35.3389ZM21.2451 36.6035C20.7666 35.9928 20.124 35.6875 19.3174 35.6875C18.5107 35.6875 17.8659 35.9928 17.3828 36.6035C16.9043 37.2142 16.665 38.0368 16.665 39.0713C16.665 40.1012 16.9043 40.9215 17.3828 41.5322C17.8613 42.1383 18.5062 42.4414 19.3174 42.4414C20.124 42.4414 20.7666 42.1383 21.2451 41.5322C21.7236 40.9215 21.9629 40.1012 21.9629 39.0713C21.9629 38.0368 21.7236 37.2142 21.2451 36.6035ZM29.7695 44.1709C28.3294 44.1709 27.1901 43.7174 26.3516 42.8105C25.5176 41.8991 25.1006 40.6504 25.1006 39.0645C25.1006 37.4831 25.5199 36.2389 26.3584 35.332C27.1969 34.4206 28.334 33.9648 29.7695 33.9648C30.5534 33.9648 31.2643 34.1198 31.9023 34.4297C32.5449 34.7396 33.0599 35.1771 33.4473 35.7422C33.8346 36.3073 34.0534 36.9521 34.1035 37.6768H32.0938C31.998 37.0706 31.736 36.5853 31.3076 36.2207C30.8838 35.8561 30.3711 35.6738 29.7695 35.6738C28.9902 35.6738 28.3682 35.9792 27.9033 36.5898C27.4385 37.2005 27.2061 38.0231 27.2061 39.0576C27.2061 40.1104 27.4362 40.9421 27.8965 41.5527C28.3568 42.1589 28.9834 42.4619 29.7764 42.4619C30.387 42.4619 30.8997 42.2933 31.3145 41.9561C31.7292 41.6188 31.9912 41.1585 32.1006 40.5752H34.1104C33.9964 41.6735 33.5475 42.5485 32.7637 43.2002C31.9798 43.8473 30.9818 44.1709 29.7695 44.1709ZM34.4521 44L37.583 39.0576V39.0029L34.4727 34.1357H36.8994L38.9912 37.6904H39.0459L41.1582 34.1357H43.4619L40.2354 39.0439V39.0918L43.4209 44H41.0693L38.9092 40.5479H38.8545L36.6807 44H34.4521Z" fill="white"/>
</svg>
