<svg width="14" height="16" viewBox="0 0 14 16" fill="none" xmlns="http://www.w3.org/2000/svg">
<path d="M3.83983 3.90669C3.57231 3.90669 3.35547 3.68985 3.35547 3.42233V0.484359C3.35547 0.216841 3.57231 0 3.83983 0C4.10734 0 4.32419 0.216841 4.32419 0.484359V3.42233C4.32419 3.68985 4.10734 3.90669 3.83983 3.90669Z" fill="#78BE20"/>
<path d="M10.1597 3.90669C9.89214 3.90669 9.67529 3.68985 9.67529 3.42233V0.484359C9.67529 0.216841 9.89214 0 10.1597 0C10.4272 0 10.644 0.216841 10.644 0.484359V3.42233C10.644 3.68985 10.4272 3.90669 10.1597 3.90669Z" fill="#78BE20"/>
<path d="M0 6.71973V13.4029C0 14.5422 0.926851 15.469 2.06612 15.469H11.9339C13.0731 15.469 14 14.5422 14 13.4029V6.71973H0Z" fill="#78BE20"/>
<path d="M14 5.75079V3.5349C14 2.39563 13.0731 1.46878 11.9338 1.46878H11.6128V3.42211C11.6128 4.22336 10.9609 4.87519 10.1597 4.87519C9.35845 4.87519 8.70662 4.22336 8.70662 3.42211V1.46875H5.29338V3.42208C5.29338 4.22333 4.64155 4.87515 3.8403 4.87515C3.03905 4.87515 2.38722 4.22333 2.38722 3.42208V1.46875H2.06612C0.926851 1.46875 0 2.3956 0 3.53487V5.75075H14V5.75079Z" fill="#78BE20"/>
</svg>
