<svg width="327" height="389" viewBox="0 0 327 389" fill="none" xmlns="http://www.w3.org/2000/svg">
<path opacity="0.3" fill-rule="evenodd" clip-rule="evenodd" d="M47.7009 233.017C54.1076 252.269 74.8602 261.386 91.1113 273.536C107.836 286.04 122.867 302.724 143.652 304.754C165.465 306.885 185.325 295.139 204.552 284.617C226.891 272.393 259.113 264.194 263.582 239.126C268.158 213.463 237.022 196.48 224.324 173.715C214.792 156.626 211.501 137.254 198.57 122.568C182.432 104.24 165.799 81.5953 141.459 79.6031C116.793 77.5843 93.3033 94.0052 76.992 112.617C62.4011 129.266 63.4248 153.105 58.1921 174.614C53.3992 194.315 41.299 213.779 47.7009 233.017Z" stroke="#9E9E9E"/>
<path opacity="0.5" fill-rule="evenodd" clip-rule="evenodd" d="M73.11 196.724C72.633 210.847 83.9776 221.824 91.6483 233.692C99.5427 245.906 105.319 260.44 118.4 266.797C132.129 273.469 147.941 270.607 163.043 268.391C180.59 265.816 203.617 268.263 212.603 252.975C221.804 237.325 205.583 218.697 202.802 200.757C200.715 187.29 203.256 173.843 198.367 161.123C192.266 145.248 186.886 126.434 171.474 119.241C155.856 111.951 136.542 116.988 121.385 125.193C107.826 132.532 102.724 148.347 94.0994 161.126C86.2003 172.831 73.5867 182.612 73.11 196.724Z" stroke="#9E9E9E"/>
<path opacity="0.1" fill-rule="evenodd" clip-rule="evenodd" d="M35.02 271.852C48.836 294.524 77.9736 300.064 102.26 310.791C127.255 321.832 151.315 338.699 178.416 335.193C206.857 331.513 228.738 310.709 250.171 291.654C275.073 269.514 313.758 249.609 312.106 216.331C310.414 182.264 265.728 169.738 242.859 144.432C225.693 125.435 215.815 101.697 195.018 86.7614C169.065 68.1223 141.213 44.1232 109.59 48.721C77.5437 53.3802 52.4047 81.2093 37.0627 109.727C23.3389 135.237 31.6356 165.336 31.2707 194.3C30.9364 220.828 21.2144 249.198 35.02 271.852Z" stroke="#9E9E9E"/>
</svg>
