<svg width="30" height="30" viewBox="0 0 30 30" fill="none" xmlns="http://www.w3.org/2000/svg">
<path d="M29.6567 27.9991L21.1927 19.5351C25.049 14.8432 24.7866 7.87824 20.4046 3.49624C15.7429 -1.16541 8.1579 -1.16541 3.49624 3.49624C-1.16541 8.1579 -1.16541 15.7429 3.49624 20.4046C7.87706 24.7854 14.8412 25.0507 19.5351 21.1927L27.9991 29.6567C28.4568 30.1144 29.1989 30.1144 29.6566 29.6567C30.1144 29.1989 30.1144 28.4568 29.6567 27.9991ZM18.747 18.747C14.9994 22.4946 8.90152 22.4946 5.15386 18.747C1.40621 14.9993 1.40621 8.90146 5.15386 5.1538C8.9014 1.40632 14.9992 1.40603 18.747 5.1538C22.4947 8.90146 22.4947 14.9993 18.747 18.747Z" fill="#E5E5E5"/>
<path d="M17.6895 10.7785H13.1227V6.21166C13.1227 5.56432 12.5979 5.03955 11.9506 5.03955C11.3032 5.03955 10.7785 5.56432 10.7785 6.21166V10.7785H6.21166C5.56432 10.7785 5.03955 11.3032 5.03955 11.9506C5.03955 12.5979 5.56432 13.1227 6.21166 13.1227H10.7785V17.6895C10.7785 18.3368 11.3032 18.8616 11.9506 18.8616C12.5979 18.8616 13.1227 18.3368 13.1227 17.6895V13.1227H17.6895C18.3368 13.1227 18.8616 12.5979 18.8616 11.9506C18.8616 11.3032 18.3368 10.7785 17.6895 10.7785Z" fill="#E5E5E5"/>
</svg>
