<svg width="16" height="21" viewBox="0 0 16 21" fill="none" xmlns="http://www.w3.org/2000/svg">
<path d="M8 0C3.58933 0 0 3.55775 0 7.93187C0 14.147 7.248 20.5642 7.55644 20.8337C7.68356 20.9449 7.84178 21 8 21C8.15822 21 8.31644 20.9449 8.44355 20.8346C8.752 20.5643 16 14.147 16 7.93187C16 3.55775 12.4107 0 8 0ZM8 12.25C5.54933 12.25 3.55556 10.2874 3.55556 7.875C3.55556 5.46263 5.54933 3.5 8 3.5C10.4507 3.5 12.4444 5.46263 12.4444 7.875C12.4444 10.2874 10.4507 12.25 8 12.25Z" fill="#78BE20"/>
</svg>
