<svg width="48" height="56" viewBox="0 0 48 56" fill="none" xmlns="http://www.w3.org/2000/svg">
<path d="M48 51C48 53.7614 45.7614 56 43 56H5C2.23858 56 0 53.7614 0 51V5C0 2.23858 2.23858 0 5 0H31.5926C32.9156 0 34.1848 0.5244 35.1219 1.45832L46.5294 12.8262C47.4708 13.7643 48 15.0387 48 16.3678V51Z" fill="#F2994A"/>
<path d="M12.25 34.1357H16.2627C17.279 34.1357 18.1016 34.4456 18.7305 35.0654C19.3639 35.6852 19.6807 36.501 19.6807 37.5127C19.6807 38.5199 19.3548 39.3356 18.7031 39.96C18.0514 40.5798 17.2038 40.8896 16.1602 40.8896H14.3145V44H12.25V34.1357ZM14.3145 35.7695V39.2764H15.709C16.3014 39.2764 16.7617 39.1237 17.0898 38.8184C17.418 38.513 17.582 38.0801 17.582 37.5195C17.582 36.959 17.418 36.5283 17.0898 36.2275C16.7663 35.9222 16.3083 35.7695 15.7158 35.7695H14.3145ZM20.9043 34.1357H24.6709C26.1566 34.1357 27.3118 34.5618 28.1367 35.4141C28.9616 36.2663 29.374 37.4717 29.374 39.0303C29.374 40.5934 28.9593 41.8125 28.1299 42.6875C27.305 43.5625 26.152 44 24.6709 44H20.9043V34.1357ZM22.9688 35.8379V42.291H24.4248C25.3499 42.291 26.054 42.0153 26.5371 41.4639C27.0247 40.9079 27.2686 40.099 27.2686 39.0371C27.2686 38.0072 27.0225 37.2165 26.5303 36.665C26.0381 36.1136 25.3363 35.8379 24.4248 35.8379H22.9688ZM32.7715 44H30.707V34.1357H37.167V35.8379H32.7715V38.4834H36.7842V40.1172H32.7715V44Z" fill="white"/>
</svg>
