<svg width="27" height="28" viewBox="0 0 27 28" fill="none" xmlns="http://www.w3.org/2000/svg">
<path d="M24.373 6.53333H22.1655V2.48889C22.1655 1.11634 21.0527 0 19.6845 0H7.31554C5.9473 0 4.83446 1.11634 4.83446 2.48889V6.55163H2.62703C1.18581 6.53333 0 7.72288 0 9.18693V20.4967C0 21.9608 1.18581 23.132 2.62703 23.132H4.68851V26.2065C4.68851 27.1948 5.49122 27.9817 6.45811 27.9817H20.5054C21.4905 27.9817 22.275 27.1765 22.275 26.2065V23.132H24.3365C25.7959 23.132 26.9635 21.9425 26.9635 20.4967V9.18693C27 7.72288 25.8142 6.53333 24.373 6.53333ZM5.9473 2.48889C5.9473 1.72026 6.56757 1.09804 7.31554 1.09804H19.6845C20.4507 1.09804 21.0709 1.72026 21.0709 2.48889V6.55163H5.9473V2.48889ZM21.2169 26.2248C21.2169 26.6092 20.9068 26.902 20.5419 26.902H6.49459C6.11149 26.902 5.81959 26.5909 5.81959 26.2248V16.7451H21.2351V26.2248H21.2169ZM25.9054 20.4967C25.9054 21.3569 25.2122 22.034 24.373 22.034H22.3115V16.7451H23.5885V15.6471H22.3115H4.68851H3.41149V16.7451H4.68851V22.034H2.62703C1.76959 22.034 1.09459 21.3386 1.09459 20.4967V9.18693C1.09459 8.3268 1.78784 7.64967 2.62703 7.64967H24.3547C25.2122 7.64967 25.8872 8.3451 25.8872 9.18693V20.4967H25.9054Z" fill="#78BE20"/>
<path d="M23.5703 9.57129H20.396V10.6693H23.5703V9.57129Z" fill="#78BE20"/>
<path d="M19.9398 19.5996H7.06006V20.6976H19.9398V19.5996Z" fill="#78BE20"/>
<path d="M19.9398 22.6377H7.06006V23.7357H19.9398V22.6377Z" fill="#78BE20"/>
</svg>
