<svg width="20" height="20" viewBox="0 0 20 20" fill="none" xmlns="http://www.w3.org/2000/svg">
<path d="M14.8223 4.34854C15.3131 4.1301 15.8085 4.01932 16.3041 4.01932C16.9465 4.01932 17.6043 4.21326 18.244 4.58647C19.9999 2.57622 20 0 20 0C20 0 16.3882 2.06204 14.1187 2.66138C14.4905 3.14052 14.7406 3.71838 14.8223 4.34854Z" fill="white"/>
<path d="M1.75598 4.58679C2.39579 4.21354 3.05361 4.0196 3.69603 4.0196C4.19158 4.0196 4.68697 4.13038 5.17768 4.34878C5.25944 3.71862 5.50948 3.14077 5.88132 2.66162C3.61177 2.06228 0 0.000244141 0 0.000244141C0 0.000244141 3.90412e-05 2.57651 1.75598 4.58679Z" fill="white"/>
<path d="M16.3041 5.19141C15.9629 5.19141 15.6356 5.275 15.3315 5.40598C15.8682 6.4959 16.1641 7.67361 16.217 8.86099C16.2459 8.8622 16.2749 8.86287 16.3041 8.86287C17.9066 8.86287 19.2057 7.02716 19.2057 7.02716C19.2057 7.02716 17.9066 5.19141 16.3041 5.19141Z" fill="white"/>
<path d="M4.66855 5.40594C4.36449 5.27496 4.03726 5.19141 3.69605 5.19141C2.0935 5.19141 0.794434 7.02712 0.794434 7.02712C0.794434 7.02712 2.09354 8.86283 3.69605 8.86283C3.72515 8.86283 3.75417 8.86217 3.78308 8.86099C3.83605 7.67361 4.13191 6.4959 4.66855 5.40594Z" fill="white"/>
<path d="M13.7726 17.432L13.6883 16.9921C13.6433 16.7569 13.6103 16.5202 13.589 16.2831L12.5032 13.2902C12.1364 12.2793 12.1042 11.2 12.4103 10.1691C12.7164 9.13815 13.3322 8.25123 14.1911 7.60419L14.7635 7.17302C14.6153 6.65642 14.4112 6.15212 14.1504 5.66958L13.6807 4.8007C13.6807 3.51699 12.64 2.47632 11.3563 2.47632H8.64451C7.36079 2.47632 6.32012 3.51699 6.32012 4.8007L5.85047 5.66958C5.58965 6.15212 5.38551 6.65642 5.2373 7.17302L5.80969 7.60419C6.66864 8.25123 7.28446 9.13815 7.59048 10.1691C7.89653 11.2 7.86446 12.2793 7.49767 13.2902L6.41176 16.2831C6.39047 16.5203 6.3575 16.7569 6.31247 16.992L6.22821 17.432C5.97434 18.7577 6.9904 19.9868 8.34017 19.9868H11.6606C13.0104 19.9868 14.0264 18.7578 13.7726 17.432ZM9.34154 18.1196H8.16966V16.8748H9.34154V18.1196ZM11.8312 18.1196H10.6593V16.8748H11.8312V18.1196Z" fill="white"/>
<path d="M6.46645 10.5024C6.23227 9.71366 5.76114 9.0351 5.10395 8.54002L4.98664 8.45166C4.83719 9.85596 5.08352 11.2943 5.72875 12.5946C5.75024 12.6379 5.77133 12.6814 5.79196 12.7251C5.92766 13.0124 6.04184 13.3077 6.13477 13.6087L6.39544 12.8903C6.67602 12.1169 6.70059 11.2912 6.46645 10.5024Z" fill="white"/>
<path d="M15.013 8.45166L14.8957 8.53998C14.2385 9.03502 13.7673 9.71362 13.5332 10.5024C13.2991 11.2911 13.3236 12.1168 13.6042 12.8903L13.8648 13.6086C13.9578 13.3077 14.0719 13.0124 14.2076 12.7251C14.2282 12.6814 14.2493 12.6379 14.2708 12.5946C14.9161 11.2942 15.1624 9.85596 15.013 8.45166Z" fill="white"/>
</svg>
