<svg width="40" height="27" viewBox="0 0 40 27" fill="none" xmlns="http://www.w3.org/2000/svg">
<path d="M38.5082 18.0585V13.6797C38.5082 12.0167 37.1967 10.6797 35.5656 10.6797L33.5328 10.3538L30.0492 5.00558C30 4.9638 29.959 4.86352 29.9098 4.82173C29.3689 4.08636 28.5082 3.57661 27.5082 3.57661H20.9016V1.71309C20.9016 0.768803 20.2131 0 19.3607 0H1.54098C0.688525 0 0 0.768803 0 1.71309V13.4206V19.7716V20.1811V21.936C0 22.9053 0.770492 23.6407 1.67213 23.6407H4.07377C4.61475 25.5794 6.33607 26.9583 8.41803 26.9583C10.5 26.9583 12.2213 25.5293 12.7623 23.6407H18.2377H27.5574C28.0984 25.5794 29.8197 26.9583 31.9016 26.9583C33.9836 26.9583 35.7049 25.5293 36.2459 23.6407H38.3279C39.2787 23.6407 40 22.8552 40 21.936V19.7716C40 18.8858 39.3197 18.1504 38.5082 18.0585ZM8.41803 24.6518C7.14754 24.6518 6.15574 23.5906 6.15574 22.3454C6.15574 21.1003 7.19672 20.039 8.41803 20.039C9.68852 20.039 10.6803 21.1003 10.6803 22.3454C10.6803 23.5906 9.68852 24.6518 8.41803 24.6518ZM24 10.5293C23.8852 10.5293 23.7869 10.4373 23.7869 10.312V6.07522C23.7869 5.95822 23.877 5.85795 24 5.85795H27.5902C27.6639 5.85795 27.7295 5.89137 27.7623 5.94987L30.5574 10.1866C30.6475 10.3287 30.5492 10.5209 30.3852 10.5209H24V10.5293ZM31.9016 24.6518C30.6311 24.6518 29.6393 23.5906 29.6393 22.3454C29.6393 21.1003 30.6803 20.039 31.9016 20.039C33.1721 20.039 34.1639 21.1003 34.1639 22.3454C34.1639 23.5906 33.123 24.6518 31.9016 24.6518Z" fill="#78BE20"/>
</svg>
