<svg width="43" height="41" viewBox="0 0 43 41" fill="none" xmlns="http://www.w3.org/2000/svg">
<path d="M33.3927 19.3714H40.0001V13.0845C40.0001 12.6629 39.7873 12.2699 39.4342 12.0391C39.0811 11.8084 38.6352 11.7713 38.2486 11.9402L29.286 15.8572V13.0845C29.286 12.6629 29.0731 12.2699 28.72 12.0391C28.3668 11.8084 27.9208 11.7713 27.5343 11.9402L21.1524 14.7301L22.4428 26.7683C23.4354 24.285 26.7425 19.3714 33.3927 19.3714Z" fill="#78BE20"/>
<path d="M18.2173 10.8115H3.03314L0.00713263 39.0397C-0.0307113 39.3921 0.0832372 39.7439 0.320387 40.0076C0.557536 40.2711 0.895547 40.4218 1.2504 40.4218H20C20.3548 40.4218 20.6929 40.2711 20.9301 40.0076C21.1672 39.7439 21.2811 39.3921 21.2432 39.0397L18.2173 10.8115Z" fill="#78BE20"/>
<path d="M17.2254 1.57933C17.1572 0.944908 16.6211 0.463867 15.9823 0.463867H5.26818C4.62934 0.463867 4.09327 0.944908 4.025 1.57933L3.30096 8.31323H17.9496L17.2254 1.57933Z" fill="#78BE20"/>
<path d="M41.4283 21.8694H33.3927C28.2856 21.8694 24.1069 25.99 24.1069 31.1455V38.6553L32.5086 30.2624C32.9971 29.7745 33.7887 29.7748 34.2769 30.2624C34.7652 30.7501 34.7652 31.541 34.2769 32.0288L25.8751 40.4216H33.3927C38.5005 40.4216 42.6786 36.3005 42.6786 31.1456V23.1185C42.6786 22.4286 42.1188 21.8694 41.4283 21.8694Z" fill="#78BE20"/>
</svg>
