<svg width="40" height="41" viewBox="0 0 40 41" fill="none" xmlns="http://www.w3.org/2000/svg">
<path d="M39.5759 33.2182L28.5714 15.3534V6.17215C30.1493 6.17215 31.4286 4.8942 31.4286 3.31801C31.4286 1.74182 30.1493 0.463867 28.5714 0.463867H11.4286C9.85072 0.463867 8.57142 1.74182 8.57142 3.31801C8.57142 4.8942 9.85072 6.17215 11.4286 6.17215V15.3534L0.424109 33.2182C0.146486 33.667 0 34.1854 0 34.7136V37.5677C0 39.1439 1.2793 40.4219 2.85714 40.4219H37.1429C38.7207 40.4219 40 39.1439 40 37.5677V34.7136C40 34.1854 39.8535 33.667 39.5759 33.2182H39.5759ZM22.8571 6.17218V16.97L24.9974 20.4429H15.0033L17.1429 16.97V6.17218H22.8572H22.8571Z" fill="#78BE20"/>
</svg>
