<svg width="65" height="64" viewBox="0 0 65 64" fill="none" xmlns="http://www.w3.org/2000/svg">
<path d="M63.5799 13.3227C62.7578 8.8898 60.5757 5.64281 56.7127 3.10419C54.2848 1.50881 51.4187 0.480813 48.4243 0.131563C45.3831 -0.222936 42.3509 0.142188 39.6561 1.18794C34.731 3.09931 31.2565 7.14806 29.8728 12.5882C29.0693 15.7474 27.6903 18.0983 26.1413 20.1485C23.7013 18.0737 20.5326 16.8434 17.0806 16.6542C13.3624 16.449 9.64136 17.4378 6.60236 19.4349C3.10449 21.7337 1.12837 24.6742 0.38387 28.689C-0.282754 32.2832 0.0388708 36.3928 0.445995 41.5956C0.50737 42.3803 0.570495 43.187 0.631245 44.0065C1.01149 49.7785 4.35174 55.0659 10.0367 58.8947C14.8124 62.1111 20.8565 64 26.3176 64C26.4987 64 26.6802 63.9979 26.86 63.9936C30.7975 63.9021 34.2838 62.4771 36.942 59.873C39.131 57.7284 40.6306 54.88 41.2236 51.7804C45.3293 50.8828 49.4097 49.1759 52.8846 46.8354C59.1802 42.5953 62.8797 36.7437 63.3019 30.3589C63.3703 29.4365 63.4404 28.5395 63.5087 27.667C63.9616 21.8802 64.3192 17.3093 63.5799 13.3227ZM26.8018 61.4945C23.1157 61.5796 19.0919 60.6907 15.437 59.042C16.5994 58.1962 18.0857 56.8965 18.5487 55.5156C18.7682 54.8611 18.4156 54.1525 17.761 53.933C17.1065 53.714 16.3979 54.0661 16.1785 54.7208C15.8787 55.6146 14.1416 56.9959 12.8955 57.7354C12.3962 57.4451 11.9076 57.1408 11.4332 56.8213C6.40436 53.4341 3.45399 48.8248 3.12512 43.8321C3.06337 42.9989 3.00012 42.1888 2.93837 41.4008C2.68562 38.1705 2.46587 35.3614 2.50749 32.899C2.81662 32.9353 3.14712 32.9544 3.49162 32.9544C5.11274 32.9544 7.01211 32.551 8.13349 31.7305C8.69061 31.3228 8.81174 30.5407 8.40411 29.9835C7.99636 29.4264 7.21424 29.305 6.65711 29.7129C5.84161 30.3098 3.79349 30.5827 2.66149 30.403C3.09349 26.6502 4.49899 23.8087 7.97536 21.5242C12.5675 18.5064 19.8341 17.9972 24.5711 22.0934C24.2782 22.4388 23.9842 22.7798 23.6912 23.1194C22.6712 24.3019 21.7078 25.4189 20.8326 26.6607C18.4364 30.06 17.5685 34.4259 18.2881 38.6578C18.2851 38.6604 18.2817 38.6625 18.2787 38.6653C17.5366 39.3211 15.1516 39.6556 13.7141 39.635C13.7097 39.635 13.7054 39.635 13.7011 39.635C13.0167 39.635 12.4585 40.1863 12.4514 40.8721C12.4442 41.5624 12.9982 42.1278 13.6885 42.135C13.6974 42.135 13.7161 42.1351 13.744 42.1351C14.1916 42.1351 16.9896 42.0968 18.9172 41.1864C19.1841 41.9969 19.5103 42.7943 19.9007 43.5691C22.6843 49.0931 27.9041 52.3458 34.2217 52.4928C34.4215 52.4974 34.6221 52.4998 34.8233 52.4998C36.0467 52.4998 37.2967 52.4129 38.556 52.247C37.2973 56.9689 33.3888 61.3412 26.8018 61.4945ZM60.8083 30.1805C60.8081 30.1839 60.8078 30.1874 60.8076 30.1908C60.4389 35.7879 57.1292 40.9629 51.4881 44.7621C49.7678 45.9208 47.8887 46.9108 45.9333 47.7085C45.3156 46.0796 43.7496 44.323 42.5571 43.7266C41.9392 43.4179 41.1887 43.668 40.88 44.2856C40.5712 44.903 40.8215 45.6539 41.4389 45.9628C42.1112 46.2989 43.2243 47.6148 43.5886 48.561C40.4888 49.5543 37.2842 50.0629 34.28 49.9936C28.9153 49.8688 24.4881 47.1171 22.1335 42.4443C19.7612 37.7364 20.0526 32.1064 22.8758 28.1013C23.6807 26.9594 24.6053 25.8874 25.5842 24.7524C28.0932 21.8434 30.9371 18.5463 32.2956 13.2044C33.2737 9.35855 35.2186 6.91168 37.2652 5.35431C38.1551 6.63243 40.0163 7.9573 41.4893 8.29743C41.584 8.3193 41.6785 8.32968 41.7716 8.32968C42.3406 8.32968 42.855 7.93868 42.9885 7.36068C43.1437 6.68793 42.7243 6.01681 42.0516 5.86143C41.1738 5.65881 39.919 4.72331 39.3917 4.03493C39.7913 3.83618 40.1832 3.66506 40.5605 3.51868C42.3141 2.83806 44.2267 2.50569 46.1601 2.50569C49.3764 2.50569 52.6497 3.42581 55.3396 5.19356C59.9612 8.23055 61.3331 12.1267 61.4879 17.544C61.4713 17.555 61.4542 17.5649 61.4379 17.5769C60.2434 18.4507 57.1432 18.7802 55.8622 18.3528C55.2073 18.1348 54.4994 18.4885 54.2811 19.1434C54.0628 19.7983 54.4168 20.5062 55.0717 20.7245C55.6826 20.9282 56.4953 21.0292 57.3818 21.0292C58.7262 21.0292 60.2394 20.7963 61.4747 20.3373C61.4057 22.4907 61.2207 24.8582 61.0162 27.4724C60.9478 28.35 60.8771 29.2525 60.8083 30.1805Z" fill="#B56BD8"/>
<path d="M34.7669 22.1336C34.0778 22.175 33.5527 22.7672 33.5941 23.4563C33.6356 24.1455 34.2298 24.6708 34.9167 24.6291C36.2649 24.5471 39.1739 25.6681 40.1012 26.8215C40.3483 27.1285 40.7104 27.2881 41.076 27.288C41.3508 27.288 41.6277 27.1977 41.8587 27.0121C42.3966 26.5794 42.4819 25.7926 42.0493 25.2547C40.5789 23.4265 36.8136 22.0087 34.7669 22.1336Z" fill="#B56BD8"/>
<path d="M30.592 35.4251C30.9996 34.868 30.8785 34.086 30.3214 33.6782C28.8375 32.5926 25.8439 32.3182 24.3545 32.8146C23.6996 33.0329 23.3457 33.7407 23.564 34.3956C23.7823 35.0505 24.4904 35.4044 25.145 35.1861C25.9599 34.9143 28.0865 35.1405 28.8452 35.6956C29.0678 35.8584 29.3261 35.9369 29.5822 35.9369C29.9675 35.9369 30.3473 35.7597 30.592 35.4251Z" fill="#B56BD8"/>
<path d="M47.6 13.7998H47.599C46.9088 13.7998 46.3496 14.3595 46.3496 15.0497C46.3496 15.7399 46.9097 16.2996 47.6 16.2996C48.2903 16.2996 48.8499 15.7399 48.8499 15.0497C48.8499 14.3595 48.2903 13.7998 47.6 13.7998Z" fill="#B56BD8"/>
<path d="M51.349 30.0498H51.3482C50.658 30.0498 50.0986 30.6095 50.0986 31.2997C50.0986 31.9899 50.6587 32.5496 51.349 32.5496C52.0394 32.5496 52.5989 31.9899 52.5989 31.2997C52.5989 30.6095 52.0392 30.0498 51.349 30.0498Z" fill="#B56BD8"/>
<path d="M40.3495 33.5508H40.3485C39.6583 33.5508 39.0991 34.1105 39.0991 34.8007C39.0991 35.4909 39.6592 36.0506 40.3495 36.0506C41.0399 36.0506 41.5994 35.4909 41.5994 34.8007C41.5994 34.1105 41.0399 33.5508 40.3495 33.5508Z" fill="#B56BD8"/>
<path d="M11.85 45.8008H11.8491C11.1588 45.8008 10.5996 46.3605 10.5996 47.0507C10.5996 47.7409 11.1597 48.3006 11.85 48.3006C12.5403 48.3006 13.0999 47.7409 13.0999 47.0507C13.0999 46.3605 12.5403 45.8008 11.85 45.8008Z" fill="#B56BD8"/>
<path d="M15.3495 25.0506C16.0398 25.0506 16.5994 24.4909 16.5994 23.8007C16.5994 23.1105 16.0398 22.5508 15.3495 22.5508H15.3486C14.6583 22.5508 14.0991 23.1105 14.0991 23.8007C14.0991 24.4909 14.6592 25.0506 15.3495 25.0506Z" fill="#B56BD8"/>
<path d="M28.0985 54.5498H28.0977C27.4073 54.5498 26.8481 55.1095 26.8481 55.7997C26.8481 56.4899 27.4082 57.0496 28.0985 57.0496C28.7889 57.0496 29.3484 56.4899 29.3484 55.7997C29.3484 55.1095 28.7889 54.5498 28.0985 54.5498Z" fill="#B56BD8"/>
<path d="M30.099 40.2998H30.0982C29.4078 40.2998 28.8486 40.8595 28.8486 41.5497C28.8486 42.2399 29.4087 42.7996 30.099 42.7996C30.7894 42.7996 31.3489 42.2399 31.3489 41.5497C31.3489 40.8595 30.7894 40.2998 30.099 40.2998Z" fill="#B56BD8"/>
</svg>
