<svg width="64" height="64" viewBox="0 0 64 64" fill="none" xmlns="http://www.w3.org/2000/svg">
<path d="M31.9872 22.8282C31.6034 22.6256 31.2195 22.4444 30.825 22.2738L33.9065 10.1826C34.2874 8.7065 33.8519 7.13929 32.764 6.07134C31.6761 5.00339 30.1011 4.59694 28.6323 5.0051C27.1635 5.41326 26.024 6.57401 25.6431 8.05012C25.5898 8.43397 25.5898 8.88179 25.5898 4.26497C25.5898 1.90949 23.6803 0 21.3248 0C18.9693 0 17.0599 1.90949 17.0599 4.26497V8.27403C16.5328 5.97744 14.2438 4.54294 11.9472 5.06998C9.65064 5.59701 8.21614 7.88602 8.74318 10.1826L11.8353 22.2738C4.83007 25.3872 0 31.8273 0 39.2697C0 47.3198 5.71505 54.5276 14.213 57.2038C16.2055 57.791 17.875 59.1604 18.8405 60.9997L19.9067 63.1321C20.1837 63.6654 20.7346 64 21.3355 64C21.9364 64 22.4873 63.6654 22.7642 63.1321L23.8305 60.9997C24.7959 59.1604 26.4655 57.791 28.458 57.2038C29.674 56.8145 30.8547 56.3222 31.9872 55.7324C33.122 56.3253 34.3065 56.8177 35.5272 57.2038C37.5197 57.791 39.1892 59.1604 40.1546 60.9997L41.2209 63.1321C41.4997 63.6597 42.0476 63.9898 42.6443 63.9898C43.2411 63.9898 43.7889 63.6597 44.0677 63.1321L45.134 60.9997C46.0994 59.1604 47.769 57.791 49.7615 57.2038C58.2594 54.5276 63.9745 47.3198 63.9745 39.2697C63.9745 24.6195 46.0829 15.5031 31.9872 22.8282ZM27.7223 8.59391C27.8888 7.83067 28.4594 7.2196 29.2094 7.00116C29.9595 6.78272 30.7689 6.99187 31.3192 7.54633C31.8696 8.10078 32.0727 8.91176 31.8486 9.66015L28.7885 21.4954C27.7441 21.1348 26.6751 20.8497 25.5898 20.6424V16.8786L27.7223 8.59391ZM21.3248 2.13248C22.5026 2.13248 23.4573 3.08723 23.4573 4.26497V20.3545C22.0385 20.2266 20.6111 20.2266 19.1923 20.3545V4.26497C19.1923 3.08723 20.1471 2.13248 21.3248 2.13248ZM10.8117 9.64948C10.5876 8.9011 10.7908 8.09011 11.3411 7.53566C11.8914 6.98121 12.7008 6.77205 13.4509 6.99049C14.2009 7.20893 14.7715 7.82001 14.938 8.58324L17.0705 16.8679V20.6318C15.9852 20.8391 14.9162 21.1241 13.8718 21.4848L10.8117 9.64948ZM27.7969 55.1673C25.2553 55.926 23.131 57.6847 21.9113 60.04L21.3248 61.2023L20.7384 60.04C19.5187 57.6847 17.3943 55.926 14.8527 55.1673C7.23978 52.7789 2.13248 46.3922 2.13248 39.2697C2.13248 29.9614 10.7477 22.3911 21.3248 22.3911C31.9019 22.3911 40.5172 29.9614 40.5172 39.2697C40.5172 46.3069 35.4738 52.7576 27.7969 55.1673ZM42.1485 35.186H42.6496C46.0616 35.186 49.0471 37.0945 49.0471 39.2697C49.0471 40.7304 47.4691 42.2871 45.2833 42.9695C44.386 43.2503 43.5065 43.585 42.6496 43.9718C42.4471 43.8758 42.2551 43.8119 42.0525 43.7266C42.8196 40.9355 42.8526 37.9936 42.1485 35.186ZM41.3595 45.7204C43.492 46.6054 42.1059 46.1896 45.923 44.9741C49.0471 44.0251 51.1796 41.6687 51.1796 39.2697C51.1796 35.7297 46.8293 32.5417 41.4874 33.1175C41.2035 32.4274 40.8795 31.7546 40.5172 31.1023C47.4584 30.036 53.3121 34.301 53.3121 39.2697C53.3121 42.639 50.6038 45.7631 46.5627 47.0426C45.1955 47.4638 43.8822 48.0435 42.6496 48.7699C41.9384 48.3659 41.2011 48.0097 40.4425 47.7036C40.7897 47.0699 41.096 46.4146 41.3595 45.7418V45.7204ZM39.227 49.4949C41.8926 50.5612 41.9353 51.0623 42.607 51.0623C43.2787 51.0623 43.9931 49.9961 47.1598 49.0471C52.1285 47.5117 55.4445 43.5773 55.4445 39.2697C55.4445 32.2645 47.2771 27.3811 39.3443 29.151C38.897 28.5092 38.4091 27.8967 37.8835 27.3171C47.4264 24.5236 57.577 30.6011 57.577 39.2697C57.577 44.5156 53.6639 49.271 47.8422 51.1049C45.9331 51.7004 44.1661 52.6801 42.6496 53.9838C41.2416 52.784 39.6214 51.8582 37.8729 51.2542C38.3706 50.7014 38.8369 50.1212 39.2697 49.5162L39.227 49.4949ZM49.0791 55.1567C46.5347 55.9039 44.4075 57.6611 43.1934 60.0187L42.6496 61.2023L42.0632 60.04C40.8491 57.6824 38.722 55.9252 36.1776 55.178C35.5079 54.9626 34.8495 54.7135 34.205 54.4316C34.892 53.9627 35.5506 53.4535 36.1776 52.9069C38.3307 53.4981 40.2977 54.6283 41.8926 56.1909C42.0928 56.3928 42.3653 56.5063 42.6496 56.5063C42.9339 56.5063 43.2065 56.3928 43.4067 56.1909C44.8255 54.7746 46.5672 53.7245 48.482 53.1308C55.1993 50.9983 59.7095 45.4539 59.7095 39.2697C59.7095 28.7885 47.2985 21.634 36.1669 25.6538C35.5366 25.1054 34.8705 24.5996 34.173 24.1397C46.9679 18.5952 61.8953 26.816 61.8953 39.2697C61.842 46.3815 56.7347 52.7789 49.1217 55.178L49.0791 55.1567Z" fill="#9E9E9E"/>
</svg>
