<svg width="14" height="20" viewBox="0 0 14 20" fill="none" xmlns="http://www.w3.org/2000/svg">
<path d="M11.1799 5.97405C11.0722 4.84745 10.7073 3.75835 10.1083 2.78937C9.38537 1.61999 8.35354 0.676826 7.12432 0.0619043C6.95928 -0.0206348 6.76506 -0.0206348 6.60002 0.0619043C5.3708 0.676865 4.33896 1.61999 3.61604 2.78937C3.01701 3.75835 2.65217 4.84745 2.54443 5.97405C4.27295 6.40882 5.781 7.40456 6.86213 8.75636C7.94334 7.40456 9.45143 6.40882 11.1799 5.97405ZM8.1174 4.7487C8.43967 4.7487 8.70334 5.0112 8.70334 5.33464C8.70334 5.65808 8.43967 5.92058 8.1174 5.92058C7.79514 5.92058 7.53146 5.65808 7.53146 5.33464C7.53146 5.0112 7.79518 4.7487 8.1174 4.7487ZM6.27627 3.138C6.27627 2.81456 6.53994 2.55206 6.86221 2.55206C7.18447 2.55206 7.44814 2.81456 7.44814 3.138C7.44814 3.46144 7.18447 3.72394 6.86221 3.72394C6.53994 3.72394 6.27627 3.46144 6.27627 3.138Z" fill="white"/>
<path d="M13.1379 6.90381C9.35416 6.90381 6.27588 9.98209 6.27588 13.7658V19.4142C6.27588 19.7378 6.53822 20.0002 6.86182 20.0002C9.30783 20.0002 11.3472 18.1651 11.6056 15.7304C11.8626 13.2671 12.1724 10.3209 12.3335 8.79955C12.3773 8.38689 12.7231 8.07568 13.1379 8.07568C13.4615 8.07568 13.7238 7.81334 13.7238 7.48975C13.7238 7.16615 13.4615 6.90381 13.1379 6.90381Z" fill="white"/>
<path d="M6.16625 9.77693C4.92012 8.03861 2.88316 6.90381 0.585938 6.90381C0.262344 6.90381 0 7.16615 0 7.48975C0 7.81334 0.262344 8.07568 0.585938 8.07568C1.0007 8.07568 1.34652 8.38689 1.39027 8.79943C1.55137 10.3209 1.86125 13.2671 2.11832 15.7315C2.31199 17.556 3.50684 19.0442 5.12363 19.6747C5.11094 19.5897 5.10422 19.5028 5.10422 19.4142V13.7658C5.10418 12.3151 5.49078 10.9529 6.16625 9.77693Z" fill="white"/>
</svg>
