<svg width="20" height="20" viewBox="0 0 20 20" fill="none" xmlns="http://www.w3.org/2000/svg">
<path d="M9.98083 2.59493C10.2394 2.10998 10.6904 1.64379 11.1599 1.24656C10.902 0.827417 10.6443 0.46948 10.4839 0.265913C10.3488 0.0944693 10.1768 0 10.0001 0C9.82317 0 9.65135 0.0944693 9.51616 0.265913C9.35213 0.474328 9.08643 0.84449 8.82275 1.27611C9.28414 1.6658 9.72486 2.1209 9.98083 2.59493Z" fill="white"/>
<path d="M2.59493 10.0189C2.11011 9.76041 1.64404 9.30965 1.24694 8.84033C0.827797 9.09815 0.469606 9.35568 0.265829 9.51604C0.0944693 9.6511 0 9.82293 0 9.99981C0 10.1767 0.0944271 10.3485 0.265956 10.4837C0.47437 10.6478 0.844532 10.9134 1.27616 11.1771C1.6658 10.7157 2.12086 10.275 2.59493 10.0189Z" fill="white"/>
<path d="M16.3719 4.60444C16.5834 4.60444 16.7978 4.61536 17.0085 4.63332C17.123 4.15356 17.1944 3.71696 17.2252 3.45897C17.2493 3.2554 17.2017 3.07468 17.0912 2.95037C16.9855 2.83145 16.8307 2.76855 16.6437 2.76855C16.6103 2.76855 16.5757 2.77066 16.5408 2.77479C16.2774 2.8062 15.8278 2.88001 15.3362 2.99876C15.387 3.60048 15.3768 4.23386 15.2227 4.75005C15.5405 4.65334 15.9258 4.60444 16.3719 4.60444Z" fill="white"/>
<path d="M19.7342 9.51616C19.5258 9.3521 19.1556 9.08639 18.724 8.82275C18.3344 9.28418 17.8793 9.72487 17.4053 9.98088C17.8901 10.2395 18.3561 10.6903 18.7532 11.1595C19.1724 10.9017 19.5306 10.6442 19.7343 10.4838C19.9057 10.3487 20.0001 10.1769 20.0001 10.0001C20.0002 9.82318 19.9057 9.65131 19.7342 9.51616Z" fill="white"/>
<path d="M17.0005 15.3336C16.7909 15.3516 16.5779 15.3626 16.368 15.3626C15.9349 15.3626 15.5607 15.3148 15.2495 15.2217C15.4097 15.7475 15.4206 16.3963 15.3695 17.0093C15.8482 17.1235 16.2836 17.1946 16.5411 17.2253C16.5758 17.2294 16.6104 17.2315 16.6439 17.2315C16.8309 17.2315 16.9855 17.1686 17.0912 17.0497C17.2017 16.9254 17.2493 16.7447 17.2252 16.541C17.1937 16.277 17.1197 15.8263 17.0005 15.3336Z" fill="white"/>
<path d="M10.0189 17.4048C9.76041 17.8896 9.30965 18.3556 8.84033 18.7527C9.09811 19.1719 9.35568 19.5301 9.51604 19.7338C9.6511 19.9052 9.82293 19.9996 9.99977 19.9996C10.1767 19.9996 10.3485 19.9052 10.4838 19.7337C10.6478 19.5253 10.9134 19.1551 11.1771 18.7236C10.7157 18.3339 10.275 17.8788 10.0189 17.4048Z" fill="white"/>
<path d="M9.99994 4.62549C7.03645 4.62549 4.62549 7.03645 4.62549 9.99994C4.62549 12.9634 7.03645 15.3744 9.99994 15.3744C12.9635 15.3744 15.3744 12.9634 15.3744 9.99994C15.3744 7.03645 12.9635 4.62549 9.99994 4.62549Z" fill="white"/>
<path d="M10.5923 3.60897C10.6015 3.62946 10.6153 3.64935 10.6314 3.669C11.9007 3.79458 13.0614 4.29496 14.0013 5.05737C14.086 5.05164 14.2188 5.00603 14.3676 4.64413C14.7397 3.73919 14.3362 1.8377 14.1493 1.18139C14.0658 0.888162 13.8622 0.713135 13.6046 0.713135C13.4902 0.713135 13.3723 0.746859 13.2542 0.813379C12.6595 1.14906 11.0344 2.21815 10.6632 3.12098C10.6 3.27472 10.5364 3.48419 10.5923 3.60897Z" fill="white"/>
<path d="M5.97275 5.07791C5.97263 5.07799 5.97258 5.07808 5.97246 5.07816C6.90889 4.31048 8.06739 3.80428 9.33557 3.67212H9.33553C9.35155 3.65244 9.36517 3.63246 9.37423 3.61197C9.4295 3.48689 9.36479 3.27776 9.3008 3.12436C8.9241 2.22136 7.29414 1.16209 6.6979 0.830163C6.58054 0.764823 6.46352 0.731689 6.35004 0.731689C6.091 0.731689 5.88714 0.907813 5.80477 1.20281C5.6216 1.86073 5.22847 3.76575 5.6044 4.66664C5.75587 5.0296 5.88882 5.07276 5.97275 5.07791Z" fill="white"/>
<path d="M3.12058 9.33672C3.26998 9.39814 3.39501 9.42929 3.49227 9.42929C3.55756 9.42929 3.61515 9.40779 3.66911 9.36416C3.66902 9.36505 3.66898 9.36598 3.6689 9.36686C3.79473 8.09867 4.29469 6.93907 5.0563 5.99969C5.0563 5.99973 5.0563 5.99973 5.0563 5.99973C5.05386 5.97267 5.04913 5.94742 5.04058 5.9252C4.99121 5.79768 4.79755 5.69554 4.64381 5.63231C4.39881 5.53156 4.05832 5.48047 3.6318 5.48047C2.4977 5.48047 1.19397 5.84696 1.18095 5.85067C0.9711 5.91041 0.818373 6.03342 0.751136 6.19698C0.683856 6.36054 0.705861 6.55542 0.813061 6.74567C1.14866 7.34039 2.21779 8.9655 3.12058 9.33672Z" fill="white"/>
<path d="M16.5019 9.39533C16.5994 9.39533 16.7251 9.36354 16.8753 9.30086C17.7782 8.92408 18.8374 7.29416 19.1694 6.69792C19.2756 6.50713 19.2966 6.3122 19.2285 6.14893C19.1604 5.98571 19.0071 5.8635 18.7968 5.80478C18.784 5.80124 17.4995 5.44727 16.3717 5.44727C15.9323 5.44727 15.5827 5.50013 15.3328 5.60442C15.1794 5.66841 14.9863 5.77152 14.9376 5.89934C14.9292 5.92142 14.9246 5.94659 14.9224 5.97353C15.6887 6.90886 16.1943 8.06551 16.3271 9.33168C16.3806 9.37438 16.4376 9.39533 16.5019 9.39533Z" fill="white"/>
<path d="M16.8788 10.6631C16.7294 10.6017 16.6043 10.5706 16.5072 10.5706C16.442 10.5706 16.3844 10.592 16.3306 10.6356C16.3307 10.634 16.3308 10.6324 16.331 10.6308C16.2055 11.8999 15.7054 13.0603 14.9434 14.0002C14.9458 14.0273 14.9505 14.0525 14.9591 14.0747C15.0084 14.2022 15.2021 14.3044 15.3558 14.3676C15.6008 14.4683 15.9413 14.5194 16.3678 14.5194C17.5052 14.5194 18.8055 14.153 18.8185 14.1493C19.0285 14.0895 19.1812 13.9665 19.2485 13.8029C19.3158 13.6394 19.2937 13.4445 19.1865 13.2542C18.8507 12.6595 17.7816 11.0343 16.8788 10.6631Z" fill="white"/>
<path d="M14.0272 14.9218C14.0272 14.9218 14.0273 14.9217 14.0274 14.9216C13.0909 15.6894 11.9324 16.1956 10.6642 16.3277C10.6481 16.3474 10.6345 16.3674 10.6254 16.3879C10.5701 16.513 10.6349 16.7222 10.6989 16.8756C11.0747 17.7764 12.7053 18.8371 13.3019 19.1698C13.4191 19.235 13.5361 19.2681 13.6496 19.2681C13.9087 19.2681 14.1126 19.092 14.1949 18.797C14.3781 18.1391 14.7711 16.2339 14.3953 15.3331C14.244 14.9704 14.111 14.9271 14.0272 14.9218Z" fill="white"/>
<path d="M9.408 16.3908C9.39881 16.3703 9.38511 16.3505 9.36897 16.3308C9.36897 16.3308 9.36901 16.3308 9.36905 16.3308C8.09972 16.2052 6.93902 15.7048 5.99901 14.9424C5.91432 14.9482 5.78149 14.9938 5.63272 15.3556C5.26066 16.2605 5.66422 18.1621 5.85109 18.8184C5.93456 19.1117 6.13821 19.2867 6.39582 19.2867C6.51022 19.2867 6.62809 19.253 6.74617 19.1865C7.34089 18.8508 8.96596 17.7817 9.33714 16.8789C9.40033 16.7251 9.46394 16.5156 9.408 16.3908Z" fill="white"/>
<path d="M3.49785 10.6045C3.40035 10.6045 3.27469 10.6363 3.12445 10.699C2.22359 11.0749 1.16289 12.7055 0.830201 13.302C0.724097 13.4927 0.703103 13.6876 0.771184 13.8508C0.839306 14.0141 0.992666 14.1363 1.20302 14.1951C1.21567 14.1986 2.5003 14.5526 3.62807 14.5526C4.06745 14.5526 4.41696 14.4997 4.66686 14.3955C4.82022 14.3315 5.01329 14.2284 5.06202 14.1005C5.07049 14.0784 5.07504 14.0532 5.07732 14.0262C4.31102 13.0909 3.8055 11.9343 3.67276 10.6682C3.61918 10.6254 3.56218 10.6045 3.49785 10.6045Z" fill="white"/>
<path d="M2.99937 4.66645C3.20905 4.64837 3.42206 4.63741 3.6319 4.63741C4.06496 4.63741 4.43921 4.6853 4.75044 4.77838C4.59013 4.25241 4.57929 3.60343 4.63039 2.99025C4.15167 2.87622 3.71634 2.80527 3.45894 2.77479C3.42404 2.77066 3.38943 2.76855 3.35596 2.76855C3.16896 2.76855 3.01429 2.83141 2.90861 2.95033C2.79812 3.07468 2.75057 3.2554 2.77468 3.45909C2.80617 3.72298 2.88024 4.17375 2.99937 4.66645Z" fill="white"/>
<path d="M3.62787 15.3956C3.41621 15.3956 3.20164 15.3846 2.99083 15.3667C2.87642 15.8465 2.80526 16.283 2.7747 16.5409C2.75055 16.7447 2.7981 16.9254 2.90854 17.0497C3.01418 17.1686 3.16893 17.2315 3.35597 17.2315C3.38944 17.2315 3.4241 17.2294 3.459 17.2253C3.72238 17.1939 4.17201 17.12 4.66366 17.0012C4.61286 16.3995 4.62302 15.7661 4.77714 15.25C4.45917 15.3467 4.07387 15.3956 3.62787 15.3956Z" fill="white"/>
</svg>
