<svg width="48" height="56" viewBox="0 0 48 56" fill="none" xmlns="http://www.w3.org/2000/svg">
<path d="M48 51C48 53.7614 45.7614 56 43 56H5C2.23858 56 0 53.7614 0 51V5C0 2.23858 2.23858 0 5 0H31.5926C32.9156 0 34.1848 0.5244 35.1219 1.45832L46.5294 12.8262C47.4708 13.7643 48 15.0387 48 16.3678V51Z" fill="#78BE20"/>
<path d="M10.7715 44L13.9023 39.0576V39.0029L10.792 34.1357H13.2188L15.3105 37.6904H15.3652L17.4775 34.1357H19.7812L16.5547 39.0439V39.0918L19.7402 44H17.3887L15.2285 40.5479H15.1738L13 44H10.7715ZM27.2734 42.291V44H20.8955V34.1357H22.96V42.291H27.2734ZM28.1279 41.1904H30.1172C30.1628 41.5915 30.3747 41.9173 30.7529 42.168C31.1357 42.4141 31.6029 42.5371 32.1543 42.5371C32.7012 42.5371 33.1455 42.4209 33.4873 42.1885C33.8337 41.9515 34.0068 41.6507 34.0068 41.2861C34.0068 40.9671 33.8792 40.7096 33.624 40.5137C33.3688 40.3177 32.9427 40.1536 32.3457 40.0215L31.0605 39.7412C29.2513 39.3538 28.3467 38.4355 28.3467 36.9863C28.3467 36.084 28.6976 35.3548 29.3994 34.7988C30.1058 34.2428 31.0127 33.9648 32.1201 33.9648C33.2594 33.9648 34.1686 34.236 34.8477 34.7783C35.5267 35.3161 35.8753 36.0339 35.8936 36.9316H33.959C33.9271 36.5169 33.7425 36.1911 33.4053 35.9541C33.0726 35.7126 32.6465 35.5918 32.127 35.5918C31.6165 35.5918 31.2041 35.7035 30.8896 35.9268C30.5798 36.1501 30.4248 36.444 30.4248 36.8086C30.4248 37.1094 30.5501 37.3532 30.8008 37.54C31.056 37.7269 31.4684 37.8864 32.0381 38.0186L33.2344 38.2715C34.2233 38.4811 34.9434 38.8092 35.3945 39.2559C35.8457 39.6979 36.0713 40.2949 36.0713 41.0469C36.0713 42.0039 35.7113 42.765 34.9912 43.3301C34.2712 43.8906 33.2982 44.1709 32.0723 44.1709C30.8828 44.1709 29.9349 43.9066 29.2285 43.3779C28.5267 42.8447 28.1598 42.1156 28.1279 41.1904Z" fill="white"/>
</svg>
