<svg width="48" height="47" viewBox="0 0 48 47" fill="none" xmlns="http://www.w3.org/2000/svg">
<path d="M37.7998 1.66364C36.6056 0.539698 35.0773 0 33.537 0C31.8031 0 30.0521 0.683618 28.7466 1.99089L28.1863 2.55115L27.6261 1.98917C26.3205 0.683618 24.5695 0 22.8356 0C21.2953 0 19.767 0.539698 18.5728 1.66364C15.9463 4.13597 15.9 8.27195 18.4323 10.8042L28.1863 20.5582L37.9403 10.8042C40.4726 8.27195 40.4263 4.13597 37.7998 1.66364Z" fill="#78BE20"/>
<path d="M47.3735 25.5118C45.8744 24.4958 44.1079 24.7837 42.5436 25.6866C40.9794 26.5895 31.9981 34.2687 31.9981 34.2687L23.1573 34.2704C22.7461 34.2704 22.3007 33.8078 22.3007 33.3983C22.3007 32.9168 22.7204 32.5416 23.1573 32.5416H28.5663C30.4595 32.5416 32.5789 31.308 32.5789 29.115C32.5789 26.7848 30.4595 25.6883 28.5663 25.6883C25.2819 25.6883 24.6428 25.702 24.6428 25.702C23.327 25.702 21.9923 25.6232 20.9643 25.0732C19.5936 24.3708 18.0139 23.9733 16.328 23.9733C13.4976 23.9733 10.9636 25.1023 9.22627 26.8825L0 35.9666L10.28 46.2465L13.7066 42.8199H31.0575C32.7845 42.8199 34.4516 42.1859 35.7417 41.0397L47.49 27.8608C48.2079 27.2234 48.1668 26.0515 47.3735 25.5118Z" fill="#78BE20"/>
</svg>
