<svg width="45" height="51" viewBox="0 0 45 51" fill="none" xmlns="http://www.w3.org/2000/svg">
<path d="M32.4277 42.9946C31.3098 42.9946 30.2706 43.3369 29.4107 43.9227C28.456 42.2673 26.9995 40.9416 25.2439 40.1659C26.0089 38.4908 27.2951 36.8553 28.8337 35.6101C30.2849 37.2817 32.295 38.3548 34.5252 38.3548C41.1197 38.3548 42.9182 30.6856 44.9999 28.3745C42.6889 27.4681 38.7028 23.2797 34.4696 23.2797C32.4598 23.2797 30.3209 24.2155 28.8525 26.0069C28.3189 26.6574 28.7812 27.6297 29.6188 27.7082C34.3718 28.1543 37.644 29.9778 37.644 29.9778C30.8745 29.0733 24.3661 32.806 24.3661 32.806V24.1845C24.3661 24.1845 24.3679 24.1416 24.3696 24.0751C32.2216 21.4758 34.7688 12.0276 26.5857 4.83152C22.6946 1.40975 21.7578 0.0340374 21.7346 0C19.5613 3.05631 11.2921 7.52394 11.4228 14.208C11.393 16.7337 12.2988 19.1414 13.9862 21.0232C14.6375 21.7497 15.8126 21.472 16.0562 20.5275C17.607 14.5185 20.7001 10.7863 20.7001 10.7863C19.0207 15.4328 18.9918 26.8734 18.9918 26.8734C18.9918 31.6004 18.9918 35.4081 18.9918 39.8451C16.8474 40.5314 15.056 42.0005 13.9473 43.9227C13.0874 43.3368 12.0483 42.9946 10.9303 42.9946C7.96187 42.9946 5.55597 45.4005 5.55597 48.3689H0.181641V50.1604H43.1762V48.3689H37.8019C37.802 45.4005 35.3961 42.9946 32.4277 42.9946Z" fill="#78BE20"/>
</svg>
