<svg width="48" height="48" viewBox="0 0 48 48" fill="none" xmlns="http://www.w3.org/2000/svg">
<path d="M46.5938 45.1875H45.1105C45.2189 40.7606 45.9157 36.3728 47.1896 32.1266L47.847 29.9353C48.0191 29.3618 47.8091 28.7422 47.3237 28.3914C46.8385 28.0407 46.1842 28.0358 45.6937 28.3792L44.7669 29.0278C44.0553 29.526 43.3797 30.0642 42.7422 30.6381C41.8187 34.4949 41.3438 38.4595 41.3438 42.4358V45.1875H38.5312V42.4358C38.5312 33.6121 40.7424 24.8418 44.9257 17.0729C45.2387 16.4917 45.1052 15.771 44.6048 15.3404C44.1044 14.9098 43.3719 14.8852 42.8438 15.2813C39.7769 17.5813 37.0552 20.3465 34.7881 23.4423C33.5454 29.2501 32.9062 35.1863 32.9062 41.1194V45.1875H30.0813C29.931 37.0637 28.279 29.1398 25.1627 21.6162C21.8907 13.717 17.1662 6.64622 11.1203 0.600378L10.9319 0.411941C10.4442 -0.0758407 9.67472 -0.137809 9.11531 0.265503C8.55581 0.668722 8.37131 1.41825 8.67975 2.03513C14.7157 14.1073 17.9062 27.6224 17.9062 41.1194V45.1875H15.0938V41.1193C15.0938 35.1863 14.4546 29.2501 13.2119 23.4424C10.9448 20.3466 8.22309 17.5814 5.15625 15.2813C4.62816 14.8852 3.89559 14.9097 3.39516 15.3404C2.89481 15.771 2.76131 16.4918 3.07434 17.0729C7.25766 24.8419 9.46875 33.6122 9.46875 42.4358V45.1875H6.65625V42.4358C6.65625 38.4594 6.18131 34.4948 5.25778 30.6382C4.62038 30.0643 3.94481 29.5261 3.23316 29.0279L2.30644 28.3793C1.81594 28.0359 1.16166 28.0408 0.676313 28.3915C0.190969 28.7423 -0.0190313 29.3618 0.153 29.9354L0.810375 32.1267C2.08434 36.3728 2.78109 40.7607 2.88947 45.1875H1.40625C0.629625 45.1875 0 45.8171 0 46.5938C0 47.3704 0.629625 48 1.40625 48H46.5938C47.3704 48 48 47.3704 48 46.5938C48 45.8171 47.3704 45.1875 46.5938 45.1875Z" fill="#78BE20"/>
</svg>
