<svg width="32" height="38" viewBox="0 0 32 38" fill="none" xmlns="http://www.w3.org/2000/svg">
<path d="M16 0C11.758 0.00476722 7.69115 1.67457 4.69161 4.64309C1.69207 7.6116 0.00481704 11.6364 0 15.8345C0 27.6312 14.4956 37.3299 15.1126 37.7368C15.3761 37.9085 15.6846 38 16.0001 38C16.3156 38 16.6241 37.9085 16.8876 37.7368C17.5044 37.3299 32 27.6312 32 15.8345C31.9952 11.6364 30.3079 7.6116 27.3084 4.64309C24.3088 1.67457 20.242 0.00476722 16 0Z" fill="#78BE20"/>
<path fill-rule="evenodd" clip-rule="evenodd" d="M12.6646 11.2069C11.1599 14.1552 11.2602 16.431 13.2665 18.5L14.2696 19.5345C14.069 18.5 13.768 18.0862 13.5674 16.6379C13.1661 14.3103 14.4201 11.2069 16.4263 9.13793C15.4734 11.2069 12.7147 13.431 14.4201 18.9655C14.7712 20.1035 15.3229 22.6897 14.8715 23.6207L14.2194 21.8621C14.0275 21.4464 13.7548 21.0759 13.4184 20.7734C13.0819 20.4709 12.6888 20.2429 12.2633 20.1034C10.6583 19.5862 9.35423 19.9483 9.1536 19.8448C10.6082 19.2241 13.6176 19.3793 14.3699 21.6552L14.5204 22.1207C14.8213 20.2586 13.6677 19.069 12.3636 18.6035C11.0596 18.1379 10.6583 18.6035 10.0063 18.8621L8 19.6897C8.10031 20.3103 9.40439 21.8621 10.1066 22.3793C10.8088 22.8966 12.6144 22.7931 14.0188 22.5345H14.3197C14.4534 23.0792 14.5539 23.632 14.6207 24.1897V25.1207C14.5705 25.5345 14.4702 25.7931 14.6207 26H15.4232C15.5737 24.6552 15.1724 22.7414 16.0251 22.0172C16.3762 22.9483 16.627 23.7759 17.3292 24.2931C18.0313 24.8103 19.1348 24.9138 20.1881 24.8103C20.0375 23.7871 19.6598 22.8136 19.0846 21.9655C18.7204 21.6588 18.2906 21.4461 17.8307 21.3448C17.2288 21.2414 16.4263 21.2931 16.2257 21.7586C18.0313 21.4483 19.0846 22.9483 19.5862 24.1897C19.5862 23.8793 18.1818 22.0172 16.7273 21.9138C15.2727 21.8103 15.9248 22.1207 15.4734 22.431C15.4496 22.2185 15.4843 22.0034 15.5737 21.8103C16.326 21.1897 16.5266 20.8276 17.931 20.931C22.5455 21.2931 21.6426 19.8966 24 17.2069C22.4953 16.2759 19.9373 15.1897 18.1317 15.6034C16.326 16.0172 15.6238 17.3103 15.2226 18.6035C15.0868 19.1664 15.1042 19.757 15.2727 20.3103C15.9248 17.3621 19.4859 16.2241 22.2445 17C20.1379 16.8966 19.2351 16.8966 17.5799 17.7759C16.9357 18.104 16.3874 18.6024 15.9909 19.2202C15.5944 19.8381 15.3639 20.5534 15.3229 21.2931C15.1223 21.4483 15.2226 21.3966 15.1724 21.0862C14.721 19.3276 14.721 17.5172 16.2257 16.2759C17.7304 15.0345 17.8307 15.3966 18.9843 14C20.1379 12.6034 20.3887 10.1724 19.4859 8C19.2351 7.43103 18.1818 5.31034 17.7304 5C17.5256 5.15043 17.3546 5.34446 17.2288 5.56897C15.7743 7.48276 13.8683 8.87931 12.6646 11.2069Z" fill="white"/>
</svg>
