<svg width="64" height="64" viewBox="0 0 64 64" fill="none" xmlns="http://www.w3.org/2000/svg">
<path d="M23.4399 59.585C22.7496 59.585 22.1899 60.1446 22.1899 60.835C22.1899 61.5253 22.7496 62.085 23.4399 62.085H23.4471C24.1374 62.085 24.6934 61.5253 24.6934 60.835C24.6934 60.1446 24.1303 59.585 23.4399 59.585Z" fill="#BEB700"/>
<path d="M63.0436 0.880415C62.9007 0.419165 62.5051 0.0814153 62.0271 0.0127904C61.5491 -0.0560846 61.0745 0.15704 60.8078 0.55954C59.1621 3.04266 58.1689 4.54141 57.4149 5.09454C56.8694 5.49479 56.2873 5.49204 54.5296 5.42291L54.1369 5.40766C49.7325 5.24466 46.1323 5.63354 43.1294 6.59679C39.3985 7.79354 36.5486 9.92391 34.6588 12.9283C32.9548 15.635 31.9493 18.4239 31.7206 21.0567C28.4134 21.9497 25.2793 24.0338 22.8087 27.0025C20.3528 29.9544 18.8375 33.529 18.5739 36.9391C7.52004 40.9426 3.50454 47.8394 0.0556664 59.024C-0.122709 59.6025 0.139041 60.2256 0.677041 60.5031C5.13004 62.8008 9.91078 64 14.4697 64C15.7253 64 16.965 63.9089 18.1753 63.7248C18.8578 63.6209 19.3269 62.9835 19.223 62.301C19.1192 61.6185 18.4815 61.1494 17.7993 61.2533C13.0887 61.9701 7.66404 61.0574 2.76304 58.7454C6.04429 48.4693 9.81004 42.5425 20.1852 39.0233C20.6868 38.8531 21.0267 38.3854 21.0334 37.8558C21.0737 34.75 22.4212 31.3769 24.7303 28.6015C27.0388 25.8275 30.1128 23.8897 33.1641 23.2848C33.7438 23.1699 34.1638 22.6649 34.1709 22.074C34.201 19.6195 35.1013 16.9175 36.7745 14.2598C39.7074 9.59716 45.1961 7.57729 54.0435 7.90591L54.4314 7.92091C56.3504 7.99629 57.6176 8.04616 58.8936 7.11016C59.6413 6.56154 60.3219 5.72479 61.2705 4.35604C61.6859 7.72904 60.4935 10.1349 57.9629 13.6753C57.8346 13.8549 57.756 14.0653 57.7354 14.2852C57.6756 14.9213 57.6408 15.5667 57.6071 16.1908C57.4415 19.2592 57.2704 22.432 54.0544 26.294C51.7463 29.0678 48.6735 31.0056 45.6239 31.6109C45.0446 31.7258 44.625 32.2303 44.6174 32.8206C44.577 35.9276 43.2284 39.3006 40.9165 42.0756C38.6116 44.849 35.539 46.7868 32.4866 47.3919C32.0039 47.4876 31.6223 47.8575 31.5118 48.3371C30.7271 51.7394 29.2499 54.558 27.1209 56.7145C26.6359 57.2059 26.641 57.9973 27.1323 58.4823C27.6236 58.9671 28.4149 58.962 28.9 58.4709C31.1948 56.1463 32.8271 53.1863 33.7585 49.6643C37.0958 48.7974 40.3678 46.6474 42.8381 43.6748C45.2726 40.7528 46.7836 37.2185 47.0689 33.8369C50.3433 32.9416 53.5448 30.815 55.9758 27.8935C59.722 23.3948 59.9246 19.6392 60.1034 16.3257C60.1309 15.8157 60.1573 15.3288 60.1956 14.8493C63.5732 10.066 64.8432 6.69266 63.0436 0.880415Z" fill="#BEB700"/>
<path d="M43.2954 27.1252C45.5144 27.1252 48.086 26.2279 50.434 24.4647C54.8055 21.1777 56.505 16.3067 54.3032 13.3753C52.1018 10.445 46.9509 10.7233 42.5754 14.0092C38.204 17.2961 36.5045 22.1671 38.7062 25.0986C39.7262 26.4563 41.3794 27.1252 43.2954 27.1252ZM40.6157 20.3131C41.2162 18.7636 42.4457 17.2345 44.0772 16.0077C45.71 14.7816 47.5209 14.0256 49.1761 13.879C49.3361 13.8647 49.5212 13.8545 49.7213 13.8545C50.5636 13.8545 51.6732 14.0365 52.3042 14.8766H52.3043C53.0862 15.9175 52.696 17.3809 52.3938 18.1606C51.7932 19.7101 50.5637 21.2392 48.9322 22.4659C47.2995 23.6922 45.4886 24.4481 43.8334 24.5947C43.0005 24.6684 41.4864 24.6369 40.7052 23.5971C39.9234 22.5562 40.3135 21.0928 40.6157 20.3131Z" fill="#BEB700"/>
<path d="M35.316 27.7743C33.2017 27.9611 30.9356 28.8922 28.9361 30.3956C26.9359 31.8977 25.4119 33.8146 24.6448 35.7933C23.7994 37.9742 23.949 39.9943 25.067 41.4827C26.0887 42.8403 27.7429 43.5091 29.6586 43.5091C31.8777 43.5091 34.448 42.6117 36.7932 40.8483C39.4202 38.8756 41.2011 36.1976 41.5572 33.6847C41.7705 32.1796 41.4612 30.8232 40.6631 29.7621C39.5459 28.2745 37.6457 27.5683 35.316 27.7743ZM38.6644 31.2636C38.6646 31.2638 38.6649 31.2642 38.6651 31.2646C39.0619 31.7916 39.2021 32.4878 39.0822 33.3341C38.8212 35.1766 37.369 37.29 35.2917 38.85C32.1496 41.2126 28.3819 41.7301 27.0652 39.9806C26.2834 38.9397 26.6735 37.4766 26.9757 36.6971C27.5762 35.1481 28.8056 33.6201 30.438 32.3942C32.07 31.1671 33.8804 30.4107 35.5359 30.2646C35.6954 30.2505 35.88 30.2403 36.0795 30.2403C36.9219 30.2402 38.0326 30.4223 38.6644 31.2636Z" fill="#BEB700"/>
<path d="M26.359 47.3737C25.5986 45.6746 23.9029 44.5652 21.5844 44.2502C19.482 43.9647 17.067 44.3707 14.7824 45.3941C9.79226 47.6336 7.05714 52.0069 8.55539 55.3501C9.31576 57.0492 11.0115 58.1586 13.33 58.4736C13.769 58.5332 14.2215 58.5627 14.6838 58.5627C16.4349 58.5627 18.3244 58.1394 20.1311 57.3302C22.4144 56.3074 24.325 54.7747 25.5111 53.0144C26.8184 51.0743 27.1195 49.0712 26.359 47.3737ZM23.438 51.6173C22.5094 52.9956 20.972 54.2142 19.1093 55.0486C17.2454 55.8834 15.3131 56.2202 13.6666 55.9963C12.8383 55.8838 11.3691 55.5174 10.8369 54.3282C9.94239 52.3319 12.2179 49.2849 15.8051 47.6752C17.2928 47.0088 18.8243 46.6599 20.2189 46.6599C20.5715 46.6599 20.9155 46.6822 21.2478 46.7274C22.0761 46.8399 23.5453 47.2063 24.0773 48.3951C24.0773 48.3952 24.0774 48.3954 24.0775 48.3956C24.6098 49.5832 23.9053 50.9239 23.438 51.6173Z" fill="#BEB700"/>
<path d="M15.1387 15.2173C17.1388 16.7212 19.4048 17.6523 21.5192 17.8391C21.7844 17.8624 22.0439 17.8741 22.2974 17.8741C24.2718 17.8741 25.8762 17.1694 26.8663 15.8512C27.6644 14.7901 27.9737 13.4337 27.7604 11.9286C27.4043 9.41569 25.6234 6.73769 22.9972 4.76544C18.6267 1.47919 13.4757 1.20057 11.2694 4.13157C9.06807 7.06232 10.7677 11.9318 15.1387 15.2173ZM13.2676 5.63382C13.7957 4.93207 14.7174 4.59494 15.8352 4.59494C17.5053 4.59494 19.6127 5.34832 21.4954 6.76394C23.5721 8.32344 25.0242 10.4368 25.2853 12.2793C25.4052 13.1256 25.2648 13.8219 24.8683 14.3489C24.8681 14.3492 24.8678 14.3496 24.8676 14.3498C24.0859 15.3904 22.5718 15.4223 21.7391 15.3488C20.0836 15.2027 18.2731 14.4464 16.6409 13.2192C15.0101 11.9933 13.7809 10.4652 13.1801 8.91619C12.8776 8.13644 12.4869 6.67319 13.2676 5.63382Z" fill="#BEB700"/>
<path d="M8.43505 37.9448C12.1022 37.9448 14.9747 33.6591 14.9747 28.1879C14.9747 22.7187 12.102 18.4346 8.43505 18.4346C4.76992 18.4346 1.89893 22.7188 1.89893 28.1879C1.89893 33.6591 4.76992 37.9448 8.43505 37.9448ZM5.7588 22.8356C6.20017 22.1256 7.13467 20.9344 8.43505 20.9344C9.73767 20.9344 10.673 22.1257 11.1145 22.8358C11.9917 24.2464 12.4748 26.1472 12.4748 28.1879C12.4748 32.1216 10.6248 35.4449 8.43505 35.4449C7.13455 35.4449 6.20005 34.2537 5.7588 33.5436C4.8818 32.1322 4.3988 30.2302 4.3988 28.1879C4.39892 26.1473 4.8818 24.2464 5.7588 22.8356Z" fill="#BEB700"/>
<path d="M53.4774 43.3779C51.3632 43.5646 49.0982 44.4959 47.1007 45.9991C45.1003 47.5014 43.5757 49.4181 42.8078 51.3964C41.961 53.5776 42.11 55.5978 43.2274 57.0853C43.2274 57.0853 43.2274 57.0855 43.2275 57.0855C44.2189 58.405 45.824 59.11 47.7992 59.11C48.0525 59.11 48.3122 59.0983 48.5772 59.075C50.6907 58.8883 52.9557 57.958 54.9549 56.455C56.9554 54.9507 58.4797 53.0329 59.247 51.0547C60.0933 48.8727 59.9428 46.8519 58.8241 45.3657C57.7068 43.878 55.8065 43.1719 53.4774 43.3779ZM56.9163 50.1509C56.3155 51.7 55.0854 53.2292 53.4528 54.4568C51.8218 55.683 50.0122 56.4387 48.3574 56.5848C47.5244 56.6581 46.0095 56.6262 45.2262 55.584C44.4447 54.5436 44.8357 53.0805 45.1383 52.301C45.7395 50.752 46.9697 49.2239 48.603 47.9972C50.2333 46.7704 52.0424 46.0141 53.6974 45.868C54.5299 45.7944 56.0439 45.8265 56.826 46.868C57.609 47.9082 57.2186 49.3714 56.9163 50.1509Z" fill="#BEB700"/>
</svg>
