<svg width="73" height="68" viewBox="0 0 73 68" fill="none" xmlns="http://www.w3.org/2000/svg">
<path d="M40.0264 28.4068C40.0264 38.9075 31.5139 47.42 21.0132 47.42C10.5125 47.42 2 38.9075 2 28.4068C2 17.9061 10.5125 9.39355 21.0132 9.39355C31.5139 9.39355 40.0264 17.9061 40.0264 28.4068Z" stroke="#BEB700" stroke-width="2.5"/>
<path d="M33.6887 28.4072C33.6887 35.4077 28.0137 41.0827 21.0132 41.0827" stroke="#BEB700" stroke-width="2.5" stroke-linecap="round" stroke-linejoin="round"/>
<path d="M64.3212 38.9697C64.3212 45.9702 58.6462 51.6452 51.6458 51.6452" stroke="#BEB700" stroke-width="2.5" stroke-linecap="round" stroke-linejoin="round"/>
<path d="M45.0879 21.2345C47.2176 20.4095 49.5329 19.957 51.9538 19.957C62.4545 19.957 70.967 28.4695 70.967 38.9703C70.967 49.471 62.4545 57.9835 51.9538 57.9835C45.1365 57.9835 39.1572 54.3956 35.8013 49.005" stroke="#BEB700" stroke-width="2.5" stroke-linecap="round" stroke-linejoin="round"/>
<path d="M68.5463 12.9701C68.5463 12.9701 55.8708 -4.98681 31.5762 5.04795C31.5762 5.04795 40.1937 12.8133 47.4205 14.6755C55.4777 16.7516 68.5463 12.9701 68.5463 12.9701Z" stroke="#BEB700" stroke-width="2.5" stroke-linecap="round" stroke-linejoin="round"/>
<path d="M40.0266 63.6723C40.0266 63.6723 27.3511 45.7153 3.0564 55.7501C3.0564 55.7501 11.6739 63.5155 18.9007 65.3776C26.9579 67.4537 40.0266 63.6723 40.0266 63.6723Z" stroke="#BEB700" stroke-width="2.5" stroke-linecap="round" stroke-linejoin="round"/>
</svg>
