<svg width="64" height="64" viewBox="0 0 64 64" fill="none" xmlns="http://www.w3.org/2000/svg">
<path d="M63.5747 13.3246C62.7526 8.89203 60.5706 5.64529 56.708 3.10687C54.2803 1.51162 51.4144 0.483705 48.4202 0.134483C45.3792 -0.219989 42.3474 0.145107 39.6527 1.19077C34.728 3.10199 31.2537 7.15042 29.8702 12.5901C29.0668 15.7491 27.6879 18.0998 26.139 20.1499C23.6992 18.0752 20.5307 16.845 17.079 16.6558C13.3611 16.4507 9.64035 17.4393 6.6016 19.4363C3.104 21.7349 1.12804 24.6751 0.383596 28.6897C-0.282976 32.2835 0.0386236 36.3928 0.445716 41.5953C0.507086 42.3798 0.570206 43.1865 0.630951 44.006C1.01117 49.7775 4.35115 55.0645 10.0357 58.893C14.8109 62.1091 20.8546 63.9979 26.3153 63.9979C26.4964 63.9979 26.6779 63.9957 26.8576 63.9915C30.7948 63.9 34.2809 62.4751 36.9388 59.8712C39.1276 57.7267 40.6271 54.8786 41.2201 51.7792C45.3255 50.8817 49.4055 49.1749 52.8801 46.8346C59.1753 42.5948 62.8745 36.7437 63.2967 30.3594C63.3651 29.4371 63.4352 28.5402 63.5034 27.6678C63.9563 21.8814 64.3139 17.3109 63.5747 13.3246ZM26.7995 61.4926C23.1136 61.5777 19.0901 60.6889 15.4355 59.0403C16.5978 58.1946 18.0841 56.8949 18.547 55.5142C18.7665 54.8597 18.4139 54.1512 17.7593 53.9317C17.1049 53.7127 16.3963 54.0648 16.177 54.7194C15.8772 55.6132 14.1402 56.9943 12.8942 57.7337C12.395 57.4435 11.9064 57.1392 11.4321 56.8197C6.40361 53.4328 3.45347 48.8238 3.12463 43.8316C3.06288 42.9984 2.99964 42.1884 2.93789 41.4004C2.68516 38.1704 2.46543 35.3615 2.50705 32.8994C2.81615 32.9356 3.14662 32.9547 3.4911 32.9547C5.11209 32.9547 7.01132 32.5514 8.1326 31.731C8.68968 31.3232 8.8108 30.5412 8.4032 29.9841C7.99549 29.427 7.21342 29.3056 6.65634 29.7135C5.84091 30.3103 3.79295 30.5832 2.66104 30.4036C3.093 26.651 4.49839 23.8097 7.97449 21.5254C12.5662 18.5079 19.8323 17.9987 24.5689 22.0946C24.2761 22.4399 23.9821 22.7809 23.6891 23.1205C22.6692 24.3029 21.7059 25.4198 20.8307 26.6615C18.4347 30.0606 17.5668 34.4261 18.2864 38.6576C18.2834 38.6603 18.28 38.6624 18.277 38.6651C17.535 39.321 15.1502 39.6554 13.7128 39.6348C13.7084 39.6348 13.704 39.6348 13.6998 39.6348C13.0155 39.6348 12.4573 40.186 12.4501 40.8718C12.443 41.562 12.997 42.1274 13.6872 42.1346C13.696 42.1346 13.7148 42.1347 13.7427 42.1347C14.1902 42.1347 16.988 42.0964 18.9155 41.1861C19.1823 41.9965 19.5086 42.7938 19.8989 43.5686C22.6823 49.0922 27.9016 52.3446 34.2188 52.4915C34.4185 52.4962 34.6191 52.4985 34.8203 52.4985C36.0436 52.4985 37.2935 52.4117 38.5527 52.2458C37.2941 56.9673 33.386 61.3393 26.7995 61.4926ZM60.8033 30.1811C60.803 30.1845 60.8028 30.188 60.8025 30.1913C60.4339 35.788 57.1244 40.9626 51.4838 44.7615C49.7636 45.9201 47.8847 46.91 45.9294 47.7077C45.3117 46.0789 43.7459 44.3224 42.5535 43.7261C41.9356 43.4174 41.1852 43.6675 40.8765 44.2851C40.5678 44.9024 40.818 45.6532 41.4354 45.9621C42.1076 46.2982 43.2207 47.6139 43.5849 48.5601C40.4854 49.5533 37.281 50.0619 34.277 49.9926C28.9128 49.8677 24.4859 47.1163 22.1315 42.4438C19.7594 37.7363 20.0508 32.1068 22.8738 28.102C23.6786 26.9602 24.6032 25.8883 25.582 24.7534C28.0908 21.8446 30.9344 18.5478 32.2928 13.2063C33.2708 9.36074 35.2156 6.91406 37.262 5.35681C38.1518 6.63484 40.0129 7.95961 41.4858 8.2997C41.5804 8.32158 41.6749 8.33195 41.768 8.33195C42.337 8.33195 42.8513 7.94098 42.9848 7.36303C43.14 6.69033 42.7207 6.01926 42.048 5.8639C41.1703 5.66129 39.9156 4.72586 39.3883 4.03755C39.7879 3.83881 40.1798 3.6677 40.557 3.52134C42.3105 2.84077 44.223 2.50842 46.1562 2.50842C49.3723 2.50842 52.6453 3.42847 55.3349 5.19608C59.9562 8.23283 61.328 12.1286 61.4828 17.5456C61.4662 17.5566 61.4491 17.5665 61.4328 17.5785C60.2384 18.4521 57.1384 18.7816 55.8575 18.3543C55.2027 18.1363 54.4949 18.49 54.2765 19.1448C54.0583 19.7997 54.4123 20.5075 55.0671 20.7258C55.6779 20.9294 56.4906 21.0304 57.377 21.0304C58.7213 21.0304 60.2344 20.7976 61.4696 20.3386C61.4006 22.4918 61.2156 24.8591 61.0111 27.4732C60.9427 28.3507 60.872 29.2532 60.8033 30.1811Z" fill="#B56BD8"/>
<path d="M34.7642 22.1346C34.0751 22.176 33.55 22.7682 33.5914 23.4573C33.6329 24.1465 34.2271 24.6718 34.914 24.6301C36.2622 24.5481 39.1712 25.6691 40.0985 26.8225C40.3456 27.1295 40.7077 27.2891 41.0733 27.289C41.3481 27.289 41.625 27.1987 41.856 27.0131C42.3939 26.5804 42.4792 25.7936 42.0466 25.2556C40.5762 23.4275 36.8109 22.0096 34.7642 22.1346Z" fill="#B56BD8"/>
<path d="M30.5901 35.4251C30.9977 34.868 30.8766 34.086 30.3195 33.6782C28.8356 32.5926 25.842 32.3182 24.3526 32.8146C23.6976 33.0329 23.3438 33.7407 23.562 34.3956C23.7804 35.0505 24.4884 35.4044 25.143 35.1861C25.9579 34.9143 28.0845 35.1405 28.8432 35.6956C29.0658 35.8584 29.3242 35.9369 29.5803 35.9369C29.9655 35.9369 30.3453 35.7597 30.5901 35.4251Z" fill="#B56BD8"/>
<path d="M47.5961 13.8018H47.5951C46.9049 13.8018 46.3457 14.3615 46.3457 15.0517C46.3457 15.7418 46.9058 16.3016 47.5961 16.3016C48.2864 16.3016 48.846 15.7418 48.846 15.0517C48.846 14.3615 48.2864 13.8018 47.5961 13.8018Z" fill="#B56BD8"/>
<path d="M51.3446 30.0508H51.3438C50.6536 30.0508 50.0942 30.6105 50.0942 31.3007C50.0942 31.9909 50.6543 32.5506 51.3446 32.5506C52.035 32.5506 52.5946 31.9909 52.5946 31.3007C52.5946 30.6105 52.0348 30.0508 51.3446 30.0508Z" fill="#B56BD8"/>
<path d="M40.3464 33.5508H40.3454C39.6552 33.5508 39.0959 34.1105 39.0959 34.8007C39.0959 35.4909 39.656 36.0506 40.3464 36.0506C41.0367 36.0506 41.5963 35.4909 41.5963 34.8007C41.5963 34.1105 41.0367 33.5508 40.3464 33.5508Z" fill="#B56BD8"/>
<path d="M11.8488 45.7998H11.8479C11.1576 45.7998 10.5984 46.3595 10.5984 47.0497C10.5984 47.7399 11.1585 48.2996 11.8488 48.2996C12.5391 48.2996 13.0987 47.7399 13.0987 47.0497C13.0987 46.3595 12.5391 45.7998 11.8488 45.7998Z" fill="#B56BD8"/>
<path d="M15.3483 25.0516C16.0386 25.0516 16.5982 24.4919 16.5982 23.8017C16.5982 23.1115 16.0386 22.5518 15.3483 22.5518H15.3474C14.6571 22.5518 14.0979 23.1115 14.0979 23.8017C14.0979 24.4919 14.658 25.0516 15.3483 25.0516Z" fill="#B56BD8"/>
<path d="M28.0963 54.5488H28.0955C27.4052 54.5488 26.8459 55.1085 26.8459 55.7987C26.8459 56.4889 27.406 57.0486 28.0963 57.0486C28.7867 57.0486 29.3462 56.4889 29.3462 55.7987C29.3462 55.1085 28.7867 54.5488 28.0963 54.5488Z" fill="#B56BD8"/>
<path d="M30.0963 40.2998H30.0955C29.4052 40.2998 28.8459 40.8595 28.8459 41.5497C28.8459 42.2399 29.406 42.7996 30.0963 42.7996C30.7867 42.7996 31.3462 42.2399 31.3462 41.5497C31.3462 40.8595 30.7867 40.2998 30.0963 40.2998Z" fill="#B56BD8"/>
</svg>
