<svg width="65" height="64" viewBox="0 0 65 64" fill="none" xmlns="http://www.w3.org/2000/svg">
<path d="M63.0703 14.5152C63.3686 14.2178 63.6053 13.8646 63.7668 13.4756C63.9284 13.0866 64.0115 12.6696 64.0115 12.2484C64.0115 11.8272 63.9284 11.4102 63.7668 11.0212C63.6053 10.6322 63.3686 10.2789 63.0703 9.98162L60.0515 6.97349L57.0327 3.95469C56.9327 3.85553 56.8533 3.73755 56.7992 3.60756C56.745 3.47757 56.7171 3.33814 56.7171 3.19732C56.7171 3.05651 56.745 2.91708 56.7992 2.78709C56.8533 2.6571 56.9327 2.53912 57.0327 2.43996C57.1318 2.33998 57.2498 2.26062 57.3798 2.20646C57.5098 2.15231 57.6492 2.12443 57.79 2.12443C57.9309 2.12443 58.0703 2.15231 58.2003 2.20646C58.3303 2.26062 58.4482 2.33998 58.5474 2.43996L61.5662 5.45876C61.7703 5.63351 62.0328 5.72483 62.3012 5.71446C62.5697 5.70409 62.8244 5.5928 63.0143 5.40282C63.2043 5.21285 63.3156 4.95818 63.326 4.68971C63.3363 4.42125 63.245 4.15875 63.0703 3.95469L60.0515 0.935892C59.4515 0.33661 58.6381 0 57.79 0C56.942 0 56.1286 0.33661 55.5286 0.935892C55.2737 1.19383 55.0645 1.49322 54.9099 1.82126L54.0245 0.935892C53.4123 0.35595 52.6011 0.0327247 51.7578 0.0327247C50.9145 0.0327247 50.1032 0.35595 49.491 0.935892L48.0083 2.43996C47.7549 2.70313 47.5459 3.00576 47.3896 3.336L46.4936 2.43996C45.8935 1.84068 45.0802 1.50407 44.2321 1.50407C43.3841 1.50407 42.5707 1.84068 41.9707 2.43996L40.4453 3.95469C39.846 4.55472 39.5094 5.36808 39.5094 6.21612C39.5094 7.06416 39.846 7.87753 40.4453 8.47756L43.4641 11.4964C43.6628 11.6962 43.7743 11.9666 43.7743 12.2484C43.7743 12.5302 43.6628 12.8006 43.4641 13.0004L41.9494 14.5152C41.7495 14.7138 41.4791 14.8253 41.1973 14.8253C40.9155 14.8253 40.6451 14.7138 40.4453 14.5152L37.4265 11.4964C37.3265 11.3972 37.2471 11.2792 37.193 11.1492C37.1388 11.0192 37.111 10.8798 37.111 10.739C37.111 10.5982 37.1388 10.4587 37.193 10.3288C37.2471 10.1988 37.3265 10.0808 37.4265 9.98162C37.5579 9.77412 37.6137 9.52764 37.5844 9.28378C37.5551 9.03993 37.4426 8.81365 37.2658 8.64314C37.0891 8.47263 36.8589 8.36835 36.6141 8.3479C36.3694 8.32745 36.125 8.39209 35.9224 8.53089C35.3564 9.10042 35.0251 9.86193 34.9944 10.6643C34.1913 10.6826 33.4266 11.0114 32.861 11.5817L31.3462 13.0858C30.7841 13.6569 30.4567 14.4183 30.4289 15.2192C29.6307 15.2311 28.8674 15.5478 28.2954 16.1046L26.7914 17.6193C26.2292 18.1905 25.9019 18.9518 25.874 19.7527C25.0774 19.7719 24.3167 20.0877 23.7406 20.6381L22.2365 22.1528C21.6704 22.7223 21.3392 23.4839 21.3084 24.2862C20.5104 24.3084 19.7495 24.628 19.175 25.1823L19.0257 25.321L16.7642 23.0595C16.6648 22.9608 16.5469 22.8826 16.4172 22.8294C16.2875 22.7762 16.1486 22.7491 16.0084 22.7496C15.8683 22.7501 15.7296 22.7782 15.6003 22.8323C15.471 22.8864 15.3536 22.9654 15.2549 23.0649C15.1561 23.1643 15.0779 23.2823 15.0247 23.4119C14.9715 23.5416 14.9444 23.6805 14.9449 23.8207C14.9454 23.9608 14.9735 24.0995 15.0276 24.2288C15.0817 24.3581 15.1607 24.4755 15.2602 24.5743L18.2683 27.5931C20.4668 29.7933 21.7017 32.7764 21.7017 35.8868C21.7017 38.9971 20.4668 41.9802 18.2683 44.1804L10.2146 52.2448C10.103 52.3404 10.0123 52.4581 9.94825 52.5905C9.88422 52.7228 9.84824 52.8669 9.84256 53.0138C9.83689 53.1608 9.86164 53.3072 9.91527 53.4441C9.9689 53.581 10.0502 53.7053 10.1542 53.8093C10.2582 53.9133 10.3825 53.9946 10.5194 54.0482C10.6563 54.1019 10.8027 54.1266 10.9497 54.1209C11.0966 54.1153 11.2407 54.0793 11.373 54.0153C11.5054 53.9512 11.6231 53.8605 11.7187 53.7489L23.6979 41.8123C24.9857 40.5238 26.5148 39.5017 28.1977 38.8043C29.8807 38.1069 31.6846 37.7479 33.5063 37.7479C35.3281 37.7479 37.1319 38.1069 38.8149 38.8043C40.4979 39.5017 42.0269 40.5238 43.3147 41.8123L44.0721 42.5697L31.2716 55.3703C28.2741 58.3748 24.2059 60.0655 19.9619 60.0705C15.7179 60.0755 11.6457 58.3944 8.64123 55.3969C5.63673 52.3995 3.946 48.3313 3.941 44.0873C3.936 39.8433 5.61713 35.7711 8.61456 32.7666L14.0441 27.337C14.1441 27.2379 14.2235 27.1199 14.2776 26.9899C14.3318 26.8599 14.3597 26.7205 14.3597 26.5797C14.3597 26.4389 14.3318 26.2994 14.2776 26.1694C14.2235 26.0395 14.1441 25.9215 14.0441 25.8223C13.8443 25.6236 13.5739 25.5121 13.2921 25.5121C13.0103 25.5121 12.7399 25.6236 12.5401 25.8223L7.1105 31.2519C4.51171 33.8568 2.76684 37.1906 2.10761 40.8107C1.44839 44.4307 1.90599 48.1656 3.41967 51.5194L0.315532 54.6342C0.215551 54.7334 0.136193 54.8514 0.0820376 54.9814C0.027882 55.1114 0 55.2508 0 55.3916C0 55.5324 0.027882 55.6718 0.0820376 55.8018C0.136193 55.9318 0.215551 56.0498 0.315532 56.149C0.414697 56.249 0.532677 56.3283 0.662666 56.3825C0.792654 56.4366 0.93208 56.4645 1.0729 56.4645C1.21372 56.4645 1.35314 56.4366 1.48313 56.3825C1.61312 56.3283 1.7311 56.249 1.83027 56.149L4.46505 53.5035C5.94907 55.983 8.02315 58.0571 10.5026 59.5411L7.85719 62.1759C7.75721 62.2751 7.67786 62.3931 7.6237 62.523C7.56955 62.653 7.54166 62.7925 7.54166 62.9333C7.54166 63.0741 7.56955 63.2135 7.6237 63.3435C7.67786 63.4735 7.75721 63.5915 7.85719 63.6906C7.95687 63.7895 8.07508 63.8677 8.20504 63.9208C8.33501 63.9739 8.47417 64.0008 8.61456 64C8.75495 64.0008 8.89411 63.9739 9.02408 63.9208C9.15405 63.8677 9.27225 63.7895 9.37193 63.6906L12.4761 60.5865C15.8299 62.1002 19.5648 62.5578 23.1848 61.8986C26.8049 61.2393 30.1387 59.4945 32.7436 56.8957L46.3335 43.3271C46.4335 43.2279 46.5129 43.1099 46.567 42.9799C46.6212 42.85 46.6491 42.7105 46.6491 42.5697C46.6491 42.4289 46.6212 42.2895 46.567 42.1595C46.5129 42.0295 46.4335 41.9115 46.3335 41.8123L44.8081 40.3083C44.5308 40.0203 44.2321 39.7643 43.9334 39.5082C44.2011 39.0701 44.3517 38.5706 44.3708 38.0575C45.1717 38.0296 45.933 37.7023 46.5042 37.1401L48.0083 35.6361C48.5704 35.0649 48.8978 34.3036 48.9257 33.5027C49.7266 33.4748 50.4879 33.1474 51.0591 32.5853L52.5632 31.0705C53.1335 30.5049 53.4623 29.7402 53.4805 28.9371C54.2829 28.9064 55.0444 28.5751 55.614 28.0091L57.118 26.505C57.6841 25.9355 58.0153 25.174 58.0461 24.3716C58.8491 24.3533 59.6138 24.0245 60.1795 23.4542L61.6942 21.9501C62.2935 21.3501 62.6301 20.5368 62.6301 19.6887C62.6301 18.8407 62.2935 18.0273 61.6942 17.4273L60.7982 16.5312C61.1284 16.3749 61.431 16.166 61.6942 15.9125L63.0703 14.5152ZM49.203 4.70139C49.2042 4.42155 49.3153 4.15338 49.5124 3.95469L51.0271 2.43996C51.2269 2.24128 51.4973 2.12977 51.7791 2.12977C52.0609 2.12977 52.3313 2.24128 52.5312 2.43996L55.5499 5.45876C55.6499 5.55792 55.7293 5.6759 55.7834 5.80589C55.8376 5.93588 55.8655 6.0753 55.8655 6.21612C55.8655 6.35694 55.8376 6.49637 55.7834 6.62636C55.7293 6.75634 55.6499 6.87432 55.5499 6.97349L54.0245 8.53089C53.9254 8.63087 53.8074 8.71023 53.6774 8.76439C53.5474 8.81854 53.408 8.84642 53.2672 8.84642C53.1264 8.84642 52.9869 8.81854 52.8569 8.76439C52.727 8.71023 52.609 8.63087 52.5098 8.53089L49.491 5.45876C49.3922 5.35908 49.3139 5.24087 49.2608 5.11091C49.2078 4.98094 49.1809 4.84178 49.1817 4.70139H49.203ZM54.3552 13.7578C54.356 13.8982 54.3291 14.0373 54.276 14.1673C54.223 14.2973 54.1447 14.4155 54.0459 14.5152L52.5098 15.9979C52.31 16.1966 52.0396 16.3081 51.7578 16.3081C51.476 16.3081 51.2056 16.1966 51.0058 15.9979L48.0083 13.0004C47.8096 12.8006 47.6981 12.5302 47.6981 12.2484C47.6981 11.9666 47.8096 11.6962 48.0083 11.4964L49.5124 9.98162C49.6115 9.88164 49.7295 9.80228 49.8595 9.74813C49.9895 9.69397 50.1289 9.66609 50.2697 9.66609C50.4105 9.66609 50.55 9.69397 50.68 9.74813C50.8099 9.80228 50.9279 9.88164 51.0271 9.98162L54.0459 13.0004C54.2378 13.2052 54.3412 13.4773 54.3339 13.7578H54.3552ZM41.608 6.21612C41.6072 6.07574 41.6341 5.93657 41.6872 5.8066C41.7403 5.67664 41.8185 5.55843 41.9174 5.45876L43.4321 3.95469C43.6319 3.75601 43.9023 3.6445 44.1841 3.6445C44.4659 3.6445 44.7363 3.75601 44.9361 3.95469L48.0083 6.97349C48.1149 7.07327 48.1998 7.19386 48.2579 7.32781C48.316 7.46175 48.346 7.60619 48.346 7.75219C48.346 7.89819 48.316 8.04263 48.2579 8.17657C48.1998 8.31052 48.1149 8.43111 48.0083 8.53089L46.4936 10.035C46.2937 10.2336 46.0233 10.3451 45.7415 10.3451C45.4597 10.3451 45.1893 10.2336 44.9895 10.035L41.9494 6.97349C41.8447 6.8765 41.7606 6.75949 41.7019 6.6294C41.6433 6.49931 41.6114 6.35878 41.608 6.21612ZM44.9361 14.5152C45.0349 14.4144 45.1528 14.3342 45.2828 14.2792C45.4128 14.2243 45.5524 14.1957 45.6935 14.1951C45.9749 14.1991 46.2433 14.3142 46.4402 14.5152L49.459 17.534C49.66 17.7309 49.775 17.9993 49.779 18.2806C49.7784 18.4218 49.7499 18.5614 49.6949 18.6914C49.64 18.8214 49.5598 18.9392 49.459 19.038L48.0083 20.5421C47.9091 20.6421 47.7911 20.7214 47.6612 20.7756C47.5312 20.8297 47.3917 20.8576 47.2509 20.8576C47.1101 20.8576 46.9707 20.8297 46.8407 20.7756C46.7107 20.7214 46.5927 20.6421 46.4936 20.5421L43.4854 17.534C43.3854 17.4348 43.3061 17.3168 43.2519 17.1868C43.1978 17.0568 43.1699 16.9174 43.1699 16.7766C43.1699 16.6358 43.1978 16.4963 43.2519 16.3664C43.3061 16.2364 43.3854 16.1184 43.4854 16.0192L44.9361 14.5152ZM26.802 37.0975L25.3406 35.6361C25.2406 35.5369 25.1613 35.4189 25.1071 35.2889C25.053 35.159 25.0251 35.0195 25.0251 34.8787C25.0251 34.7379 25.053 34.5985 25.1071 34.4685C25.1613 34.3385 25.2406 34.2205 25.3406 34.1213L26.8447 32.6173C27.0446 32.4186 27.3149 32.3071 27.5967 32.3071C27.8785 32.3071 28.1489 32.4186 28.3488 32.6173L31.3676 35.6361C31.4086 35.6699 31.4445 35.7094 31.4742 35.7534C29.8647 35.963 28.2965 36.4162 26.8234 37.0975H26.802ZM32.9036 34.132L29.8742 31.1025C29.6755 30.9027 29.564 30.6323 29.564 30.3505C29.564 30.0687 29.6755 29.7983 29.8742 29.5985L31.3782 28.0837C31.4774 27.9838 31.5954 27.9044 31.7254 27.8503C31.8553 27.7961 31.9948 27.7682 32.1356 27.7682C32.2764 27.7682 32.4158 27.7961 32.5458 27.8503C32.6758 27.9044 32.7938 27.9838 32.893 28.0837L35.9118 31.1025C36.0117 31.2017 36.0911 31.3197 36.1452 31.4497C36.1994 31.5797 36.2273 31.7191 36.2273 31.8599C36.2273 32.0007 36.1994 32.1402 36.1452 32.2701C36.0911 32.4001 36.0117 32.5181 35.9118 32.6173L34.4077 34.132C34.2078 34.3307 33.9375 34.4422 33.6557 34.4422C33.3738 34.4422 33.1035 34.3307 32.9036 34.132ZM37.4265 29.6091L34.4077 26.5903C34.209 26.3905 34.0975 26.1201 34.0975 25.8383C34.0975 25.5565 34.209 25.2861 34.4077 25.0863L35.9224 23.5715C36.1223 23.3729 36.3926 23.2614 36.6745 23.2614C36.9563 23.2614 37.2266 23.3729 37.4265 23.5715L40.4453 26.5903C40.5442 26.69 40.6224 26.8082 40.6755 26.9382C40.7285 27.0682 40.7554 27.2073 40.7546 27.3477C40.7535 27.6276 40.6424 27.8957 40.4453 28.0944L38.9306 29.6091C38.7293 29.8064 38.4581 29.916 38.1763 29.914C37.8945 29.912 37.6249 29.7986 37.4265 29.5985V29.6091ZM41.9494 25.0863L38.9306 22.0675C38.8306 21.9683 38.7512 21.8503 38.6971 21.7203C38.6429 21.5904 38.615 21.4509 38.615 21.3101C38.615 21.1693 38.6429 21.0299 38.6971 20.8999C38.7512 20.7699 38.8306 20.6519 38.9306 20.5527L40.4453 19.0487C40.6451 18.85 40.9155 18.7385 41.1973 18.7385C41.4791 18.7385 41.7495 18.85 41.9494 19.0487L44.9682 22.0675C45.1668 22.2673 45.2783 22.5377 45.2783 22.8195C45.2783 23.1013 45.1668 23.3717 44.9682 23.5715L43.4641 25.0863C43.3642 25.1856 43.2457 25.2641 43.1153 25.3173C42.9849 25.3706 42.8453 25.3975 42.7045 25.3965C42.5637 25.3955 42.4244 25.3666 42.2948 25.3116C42.1652 25.2565 42.0478 25.1763 41.9494 25.0756V25.0863ZM32.9036 14.5258L34.4077 13.0111C34.5115 12.905 34.6362 12.8218 34.774 12.7667C34.9117 12.7116 35.0594 12.6858 35.2077 12.6911C35.3481 12.6903 35.4873 12.7172 35.6172 12.7703C35.7472 12.8233 35.8654 12.9016 35.9651 13.0004L38.9306 15.9979C39.0305 16.097 39.1099 16.215 39.1641 16.345C39.2182 16.475 39.2461 16.6144 39.2461 16.7552C39.2461 16.8961 39.2182 17.0355 39.1641 17.1655C39.1099 17.2955 39.0305 17.4135 38.9306 17.5126L37.4265 19.0167C37.2266 19.2154 36.9563 19.3269 36.6745 19.3269C36.3926 19.3269 36.1223 19.2154 35.9224 19.0167L32.9036 15.9979C32.7114 15.799 32.6039 15.5332 32.6039 15.2565C32.6039 14.9799 32.7114 14.7141 32.9036 14.5152V14.5258ZM28.3701 19.0487L29.8742 17.534C30.074 17.3353 30.3444 17.2238 30.6262 17.2238C30.908 17.2238 31.1784 17.3353 31.3782 17.534L34.397 20.5421C34.497 20.6412 34.5764 20.7592 34.6305 20.8892C34.6847 21.0192 34.7126 21.1586 34.7126 21.2994C34.7126 21.4403 34.6847 21.5797 34.6305 21.7097C34.5764 21.8397 34.497 21.9577 34.397 22.0568L32.893 23.5609C32.7938 23.6609 32.6758 23.7402 32.5458 23.7944C32.4158 23.8485 32.2764 23.8764 32.1356 23.8764C31.9948 23.8764 31.8553 23.8485 31.7254 23.7944C31.5954 23.7402 31.4774 23.6609 31.3782 23.5609L28.3594 20.5421C28.1622 20.3408 28.0526 20.0697 28.0546 19.7879C28.0566 19.506 28.17 19.2365 28.3701 19.038V19.0487ZM23.8472 23.5715L25.362 22.0675C25.5618 21.8688 25.8322 21.7573 26.114 21.7573C26.3958 21.7573 26.6662 21.8688 26.866 22.0675L29.8742 25.0756C30.0728 25.2755 30.1844 25.5458 30.1844 25.8276C30.1844 26.1095 30.0728 26.3798 29.8742 26.5797L28.3594 28.0837C28.1596 28.2824 27.8892 28.3939 27.6074 28.3939C27.3256 28.3939 27.0552 28.2824 26.8554 28.0837L23.8366 25.0756C23.7373 24.9757 23.6587 24.8572 23.6055 24.7268C23.5523 24.5965 23.5254 24.4568 23.5264 24.316C23.5273 24.1752 23.5562 24.036 23.6113 23.9064C23.6664 23.7768 23.7465 23.6593 23.8472 23.5609V23.5715ZM22.3432 26.5903L25.362 29.6091C25.5606 29.809 25.6722 30.0794 25.6722 30.3612C25.6722 30.643 25.5606 30.9134 25.362 31.1132L23.8472 32.6279C23.7879 32.6835 23.7237 32.7335 23.6552 32.7773C23.1598 30.5592 22.1268 28.4968 20.6471 26.7717L20.8284 26.5903C20.9269 26.4897 21.0443 26.4095 21.1739 26.3544C21.3035 26.2993 21.4428 26.2705 21.5836 26.2695C21.7244 26.2685 21.864 26.2954 21.9944 26.3486C22.1248 26.4019 22.2433 26.4804 22.3432 26.5797V26.5903ZM23.5806 39.0816C23.7322 38.4632 23.8462 37.8363 23.9219 37.2041L24.8713 38.1535C24.4257 38.441 23.995 38.7508 23.5806 39.0816ZM35.7838 35.7961C35.8241 35.738 35.8706 35.6843 35.9224 35.6361L37.4265 34.132C37.6264 33.9333 37.8967 33.8218 38.1785 33.8218C38.4603 33.8218 38.7307 33.9333 38.9306 34.132L41.9494 37.1508C42.0501 37.2496 42.1303 37.3674 42.1853 37.4974C42.2402 37.6274 42.2688 37.767 42.2694 37.9082C42.2634 38.0104 42.2418 38.1111 42.2054 38.2069C40.2655 36.9461 38.0741 36.1234 35.7838 35.7961ZM46.4509 34.1213L44.9468 35.6361C44.747 35.8348 44.4766 35.9463 44.1948 35.9463C43.913 35.9463 43.6426 35.8348 43.4428 35.6361L40.424 32.6173C40.324 32.5181 40.2446 32.4001 40.1905 32.2701C40.1363 32.1402 40.1084 32.0007 40.1084 31.8599C40.1084 31.7191 40.1363 31.5797 40.1905 31.4497C40.2446 31.3197 40.324 31.2017 40.424 31.1025L41.928 29.5985C42.0272 29.4985 42.1452 29.4191 42.2752 29.365C42.4051 29.3108 42.5446 29.2829 42.6854 29.2829C42.8262 29.2829 42.9656 29.3108 43.0956 29.365C43.2256 29.4191 43.3436 29.4985 43.4428 29.5985L46.4509 32.6173C46.6496 32.8171 46.7611 33.0875 46.7611 33.3693C46.7611 33.6511 46.6496 33.9215 46.4509 34.1213ZM50.9844 29.5985L49.4697 31.1025C49.2698 31.3012 48.9995 31.4127 48.7177 31.4127C48.4358 31.4127 48.1655 31.3012 47.9656 31.1025L44.9468 28.0837C44.7497 27.8851 44.6386 27.6169 44.6375 27.337C44.6367 27.1967 44.6636 27.0575 44.7167 26.9275C44.7697 26.7976 44.848 26.6794 44.9468 26.5797L46.4509 25.0756C46.55 24.9756 46.668 24.8963 46.798 24.8421C46.928 24.788 47.0674 24.7601 47.2083 24.7601C47.3491 24.7601 47.4885 24.788 47.6185 24.8421C47.7485 24.8963 47.8665 24.9756 47.9656 25.0756L50.9844 28.0837C51.0858 28.1815 51.1668 28.2984 51.2228 28.4276C51.2788 28.5568 51.3087 28.6958 51.3107 28.8367C51.3126 28.9775 51.2867 29.1173 51.2344 29.2481C51.1821 29.3788 51.1043 29.4979 51.0058 29.5985H50.9844ZM55.5073 25.0756L54.0032 26.5797C53.904 26.6797 53.7861 26.759 53.6561 26.8132C53.5261 26.8673 53.3867 26.8952 53.2458 26.8952C53.105 26.8952 52.9656 26.8673 52.8356 26.8132C52.7056 26.759 52.5876 26.6797 52.4885 26.5797L49.4697 23.5609C49.271 23.361 49.1595 23.0907 49.1595 22.8088C49.1595 22.527 49.271 22.2567 49.4697 22.0568L50.9844 20.5421C51.1843 20.3434 51.4546 20.2319 51.7364 20.2319C52.0183 20.2319 52.2886 20.3434 52.4885 20.5421L55.5073 23.5609C55.6087 23.6586 55.6897 23.7755 55.7457 23.9047C55.8017 24.0339 55.8315 24.173 55.8335 24.3138C55.8355 24.4546 55.8096 24.5944 55.7573 24.7252C55.7049 24.856 55.6272 24.975 55.5286 25.0756H55.5073ZM60.0301 20.5421L58.5261 22.0568C58.4269 22.1568 58.3089 22.2362 58.1789 22.2903C58.049 22.3445 57.9095 22.3723 57.7687 22.3723C57.6279 22.3723 57.4885 22.3445 57.3585 22.2903C57.2285 22.2362 57.1105 22.1568 57.0113 22.0568L54.0032 19.038C53.8045 18.8382 53.693 18.5678 53.693 18.286C53.693 18.0042 53.8045 17.7338 54.0032 17.534L55.5286 15.9979C55.6283 15.899 55.7465 15.8208 55.8765 15.7677C56.0064 15.7146 56.1456 15.6877 56.286 15.6885C56.5658 15.6897 56.834 15.8008 57.0327 15.9979L60.0515 19.0167C60.2502 19.2165 60.3617 19.4869 60.3617 19.7687C60.3617 20.0505 60.2502 20.3209 60.0515 20.5207L60.0301 20.5421ZM55.5073 11.4964C55.4073 11.3972 55.3279 11.2792 55.2738 11.1492C55.2196 11.0192 55.1917 10.8798 55.1917 10.739C55.1917 10.5982 55.2196 10.4587 55.2738 10.3288C55.3279 10.1988 55.4073 10.0808 55.5073 9.98162L57.0327 8.53089C57.1324 8.43203 57.2506 8.35381 57.3805 8.30072C57.5105 8.24764 57.6497 8.22073 57.79 8.22154C57.9304 8.22073 58.0696 8.24764 58.1996 8.30072C58.3295 8.35381 58.4477 8.43203 58.5474 8.53089L61.5662 11.5497C61.7649 11.7496 61.8764 12.0199 61.8764 12.3017C61.8764 12.5835 61.7649 12.8539 61.5662 13.0538L60.0515 14.5685C59.8516 14.7672 59.5813 14.8787 59.2994 14.8787C59.0176 14.8787 58.7473 14.7672 58.5474 14.5685L55.5073 11.4964Z" fill="#F2C94C"/>
</svg>
