<svg width="86" height="86" viewBox="0 0 86 86" fill="none" xmlns="http://www.w3.org/2000/svg">
<path d="M73.165 37.8575C72.7971 37.3 72.0474 37.1458 71.4894 37.5133C71.4407 37.5459 66.6799 40.6329 58.1035 42.1645C58.0154 41.9647 57.9041 41.7693 57.7709 41.5771C60.9473 40.9588 64.2721 39.5662 65.2033 37.4529C74.5777 35.8707 79.7802 32.4986 80.0006 32.3533C80.5581 31.9862 80.7123 31.2356 80.3449 30.6777C79.9769 30.1202 79.2272 29.966 78.6688 30.3339C78.6201 30.3656 73.8209 33.4794 65.1769 35.0043C64.9583 34.5345 64.6217 34.1022 64.1956 33.7065C65.6951 33.1665 67.1833 32.4293 68.4378 31.5852C70.2408 30.3723 71.3205 29.1103 71.6347 27.8741C77.2615 26.2227 80.3238 24.2297 80.4566 24.1425C81.0137 23.775 81.1674 23.0267 80.8009 22.4687C80.4352 21.9108 79.685 21.7561 79.1266 22.1214C79.0975 22.1406 76.3003 23.9489 71.2136 25.4752C70.4679 24.3888 68.9363 23.6092 66.6974 23.1952C66.2606 23.1143 65.8082 23.0499 65.3477 23.0016C65.776 21.242 65.9834 19.342 65.9114 17.691C65.7966 15.0582 65.0348 13.7269 64.2184 13.0607C65.2865 10.4405 66.2016 9.02287 66.2226 8.99024C66.5896 8.43275 66.4363 7.68303 65.8779 7.31599C65.3204 6.94806 64.5698 7.10229 64.2023 7.66023C64.154 7.73265 63.0775 9.38142 61.8544 12.4536C59.1192 12.8873 56.2249 16.6006 54.6902 19.6786C54.248 19.0836 53.7522 18.5994 53.2033 18.2811C54.6638 9.16951 57.9779 4.02427 58.0123 3.97196C58.3784 3.41448 58.2242 2.66475 57.6667 2.29771C57.1088 1.93023 56.3591 2.08447 55.9911 2.64195C55.8391 2.87264 52.3328 8.28075 50.7967 18.0115C48.5851 18.7577 47.0485 22.1781 46.3842 25.5508C46.2729 25.4734 46.1589 25.405 46.0436 25.3415C47.513 16.3042 50.7985 11.2036 50.8325 11.1518C51.1991 10.5938 51.0444 9.84457 50.4869 9.47753C49.9294 9.1096 49.1792 9.26429 48.8113 9.82177C48.6602 10.0516 45.166 15.4396 43.6258 25.1368C41.4495 25.9343 39.9385 29.324 39.2831 32.6653C39.1516 32.5723 39.0175 32.4892 38.8812 32.4163C40.3547 23.4742 43.5977 18.4161 43.6522 18.332C44.0188 17.7741 43.8646 17.0244 43.3071 16.6574C42.7496 16.2894 41.999 16.4437 41.6315 17.0016C41.4799 17.2309 37.9987 22.6006 36.4541 32.2639C34.3211 33.1092 32.8382 36.4484 32.1886 39.7463C32.0375 39.6408 31.882 39.5487 31.7224 39.4696C33.2057 30.6061 36.4183 25.5946 36.4724 25.5119C36.839 24.9539 36.6848 24.2042 36.1273 23.8372C35.5693 23.4697 34.8192 23.6235 34.4517 24.1814C34.3006 24.4103 30.8318 29.7603 29.2827 39.3914C27.1891 40.2833 25.7331 43.5839 25.0911 46.8439C24.9199 46.7245 24.7433 46.623 24.5613 46.5377C26.0523 37.7444 29.2385 32.7744 29.2926 32.6917C29.6592 32.1338 29.5049 31.384 28.9474 31.017C28.3895 30.6495 27.6398 30.8037 27.2719 31.3612C27.1221 31.5888 23.6676 36.9182 22.1132 46.5126C20.0572 47.4331 18.6851 50.6488 18.0445 53.6893C17.9569 54.1051 18.0941 54.5159 18.3735 54.7953C18.5336 54.9554 18.7406 55.0721 18.9788 55.1226C19.6325 55.2603 20.2744 54.8418 20.4121 54.1882C21.1601 50.6363 22.5992 48.6715 23.3073 48.6715C24.0879 48.6715 25.539 50.8317 26.2418 54.3796C25.4814 55.2634 25.0558 56.3417 25.0553 57.5537C25.0553 58.0464 25.1273 58.5234 25.2677 58.9785C23.3699 59.0541 21.7211 59.519 20.4559 60.338C20.2999 59.8699 20.185 59.3545 20.118 58.8028C20.0366 58.1394 19.4331 57.6682 18.7701 57.7491C18.1071 57.83 17.6354 58.4331 17.7168 59.0965C17.8603 60.2701 18.1661 61.3126 18.6216 62.2108C18.188 62.9502 17.9582 63.7764 17.9578 64.6513C17.9582 64.844 17.9703 65.0331 17.9922 65.2204L13.163 70.0495C12.6905 70.5221 12.69 71.2879 13.1626 71.7605C13.6351 72.233 14.4009 72.2326 14.8735 71.76L18.9927 67.6408C19.13 67.8174 19.2793 67.9881 19.4425 68.1513C19.674 68.3829 19.932 68.6006 20.2141 68.8014C21.6237 69.8059 23.5626 70.3366 25.8202 70.3366C29.2877 70.3366 35.0968 68.9355 36.6673 66.1409C45.9269 64.5467 51.0627 61.2169 51.2813 61.0725C51.8393 60.7051 51.9931 59.9549 51.6256 59.397C51.2581 58.839 50.5079 58.6852 49.95 59.0527C49.9017 59.0849 45.2599 62.0932 36.89 63.6436C36.7912 63.3731 36.6539 63.1143 36.4827 62.867C39.5848 62.255 42.7232 60.9058 43.7863 58.9718C53.0839 57.3807 58.2412 54.0376 58.4607 53.8932C59.0177 53.5257 59.1715 52.7773 58.8049 52.2194C58.4388 51.661 57.6895 51.5063 57.1307 51.872C57.082 51.9037 52.3596 54.9442 43.9629 56.4839C43.8664 56.2362 43.7381 55.9979 43.5807 55.7699C46.6735 55.1646 49.9129 53.8216 50.9335 51.7978C60.2516 50.2094 65.4206 46.8582 65.6405 46.7134C66.198 46.3463 66.3514 45.5975 65.9848 45.0404C65.6186 44.4812 64.8689 44.3269 64.3105 44.6931C64.2618 44.7248 59.4992 47.7912 51.0355 49.3237C50.942 49.0989 50.8226 48.882 50.6782 48.6733C53.8122 48.0608 57.0949 46.6932 58.0709 44.6256C67.4154 43.0394 72.5999 39.6788 72.8199 39.534C73.3787 39.1656 73.5325 38.4154 73.165 37.8575ZM66.257 25.574C68.3524 25.9616 69.2282 26.6568 69.3055 27.0301C69.3829 27.4025 68.8558 28.3892 67.0877 29.5779C65.4487 30.6804 63.2648 31.6089 61.3738 32.0095C59.5556 31.2589 57.4199 30.8024 55.6058 30.6415C55.4779 30.4215 55.3831 30.1846 55.3304 29.9288C54.9396 28.0458 56.8584 26.2763 59.9964 25.6259C61.8986 25.2311 64.298 25.211 66.257 25.574ZM56.3367 21.9188C57.9157 17.8345 61.4748 14.439 62.5665 14.8611C63.5071 15.2223 63.9609 19.0085 62.8795 22.8983C61.7117 22.9198 60.5561 23.0383 59.5046 23.2564C58.4656 23.4719 57.5246 23.7943 56.6975 24.2002C56.5401 23.6127 56.355 23.028 56.1427 22.4642C56.2026 22.2836 56.2656 22.1017 56.3367 21.9188ZM51.698 20.2817C52.4432 20.2812 53.839 22.3154 54.5659 25.6683C53.2104 26.9809 52.5948 28.6516 52.9614 30.4202C52.9761 30.4904 52.9936 30.5597 53.011 30.6289C51.7534 30.7421 50.621 31.0358 49.654 31.4985C49.3599 30.3477 48.9638 29.2051 48.4648 28.2036C48.7398 23.9472 50.638 20.2812 51.698 20.2817ZM37.5033 34.4764C38.2741 34.4764 39.7427 36.6817 40.4374 40.1858C39.6698 41.0875 39.2513 42.1766 39.2513 43.3586C39.2513 43.8495 39.3247 44.3269 39.4659 44.7838C37.9477 44.8437 36.5895 45.1531 35.4589 45.6936C35.1652 44.5433 34.7686 43.4002 34.2693 42.3992C34.5447 38.1423 36.4424 34.4768 37.5033 34.4764ZM30.4053 41.5744C31.1859 41.5744 32.6371 43.7346 33.3398 47.2825C32.5686 48.1887 32.1533 49.279 32.1538 50.4562C32.1538 50.9488 32.2253 51.4263 32.3661 51.8818C30.8403 51.9449 29.4821 52.2677 28.3636 52.8014C28.0694 51.6471 27.6724 50.5 27.1717 49.4959C27.4471 45.2389 29.3449 41.5744 30.4053 41.5744ZM25.8202 67.9171C23.6073 67.9171 22.3139 67.3265 21.6179 66.8307C21.0519 66.4275 20.3773 65.7224 20.3773 64.6513C20.3773 63.5801 21.0519 62.8751 21.6174 62.4723C22.3135 61.9765 23.6073 61.3855 25.8202 61.3855C29.4446 61.3859 33.1185 62.821 34.2769 63.9793C34.5178 64.2203 34.6502 64.4501 34.6502 64.6513C34.6502 65.8217 30.1997 67.9171 25.8202 67.9171ZM33.837 60.7873C32.1194 59.9316 29.9721 59.3777 28.0547 59.1251C27.6706 58.6615 27.4753 58.1327 27.4753 57.5542C27.4753 56.483 28.1494 55.7775 28.715 55.3747C29.411 54.8789 30.7053 54.2884 32.9178 54.2879C37.2968 54.2884 41.7477 56.3833 41.7473 57.5542C41.7477 58.6133 38.089 60.5088 33.837 60.7873ZM40.9332 53.6884C39.2156 52.8336 37.0692 52.2797 35.1522 52.0276C34.7677 51.5635 34.5728 51.0351 34.5728 50.4566C34.5728 49.3854 35.247 48.68 35.8125 48.2772C36.5086 47.7814 37.8029 47.1908 40.0154 47.1904C44.3948 47.1904 48.8457 49.2853 48.8453 50.4562C48.8457 51.4992 45.1718 53.4063 40.9332 53.6884ZM48.0312 46.5913C46.3145 45.7365 44.169 45.1826 42.2525 44.93C41.8675 44.4637 41.6708 43.9362 41.6704 43.359C41.6708 42.333 42.307 41.4402 43.4627 40.8452C44.0564 40.5394 44.2902 39.8103 43.9839 39.2161C43.713 38.6895 43.1081 38.4467 42.5605 38.6126C42.2592 37.435 41.8577 36.3048 41.3655 35.3244C41.636 31.0581 43.5387 27.3788 44.6004 27.3792C45.3806 27.3788 46.8322 29.5395 47.5354 33.0878C46.7638 33.9935 46.3489 35.0844 46.3493 36.2615C46.3489 37.376 46.7267 38.4351 47.4415 39.3234C47.4692 39.3583 47.4987 39.3914 47.5296 39.4222C47.9606 39.8532 48.6562 39.8988 49.1421 39.5085C49.663 39.0896 49.7452 38.3278 49.3268 37.8074C48.9562 37.3465 48.768 36.8266 48.7684 36.261C48.7679 35.1903 49.4426 34.4853 50.0085 34.0821C50.7042 33.5867 51.998 32.9957 54.2109 32.9957C58.5904 32.9957 63.0409 35.0902 63.0409 36.2615C63.0409 37.3112 59.3562 39.221 55.1015 39.4951C54.7125 39.3028 54.2932 39.1178 53.8372 38.9434C53.2135 38.7051 52.5143 39.0172 52.2756 39.6413C52.0369 40.2654 52.3489 40.9646 52.973 41.2033C55.152 42.0366 55.9429 42.9491 55.9429 43.3586C55.9429 44.4038 52.2716 46.3092 48.0312 46.5913Z" fill="#F2994A"/>
</svg>
