<svg width="1386" height="421" viewBox="0 0 1386 421" fill="none" xmlns="http://www.w3.org/2000/svg">
<g opacity="0.1">
<path d="M743.334 248.242C719.565 260.133 638.753 242.297 611.42 287.48C584.087 332.664 610.232 360.012 562.695 376.659C515.159 393.305 428.405 349.311 402.26 376.659C376.114 404.007 314.317 365.957 346.404 338.609C378.491 311.261 426.028 298.182 465.245 269.645C504.463 241.108 518.724 222.083 519.912 170.954C521.101 119.826 528.231 85.3435 568.637 61.5626C609.043 37.7818 701.739 35.4037 698.174 96.0448C694.609 156.686 712.435 136.472 751.653 154.308C817.015 185.223 767.102 236.352 743.334 248.242Z" stroke="white" stroke-width="2" stroke-miterlimit="10"/>
<path d="M883.566 232.784C855.044 260.132 757.595 302.938 705.304 321.962C653.014 340.987 609.043 390.927 601.913 418.275C594.782 445.623 557.941 471.782 456.926 484.861C355.911 497.941 244.201 483.672 228.751 420.653C213.302 357.634 340.462 295.804 405.825 245.864C489.013 182.845 485.448 119.825 477.129 81.7761C468.81 43.7268 412.955 -9.78005 430.781 -52.5855C448.607 -95.391 522.289 -82.3116 575.767 -47.8294C629.246 -13.3472 701.739 -37.128 777.798 -24.0485C938.233 5.67748 940.61 178.088 883.566 232.784Z" stroke="white" stroke-width="2" stroke-miterlimit="10"/>
<path d="M759.971 419.464C724.319 539.557 257.273 615.656 168.142 502.697C101.591 417.086 243.012 302.938 267.969 287.48C326.201 249.431 453.361 154.308 422.463 73.453C403.448 23.5133 364.23 -25.2374 380.868 -82.3114C404.636 -160.788 524.666 -202.405 626.869 -161.977C696.986 -134.629 815.827 -56.1525 922.784 -43.073C1029.74 -29.9936 1105.8 -15.7251 1118.87 113.88C1131.94 243.486 793.247 311.261 759.971 419.464Z" stroke="white" stroke-width="2" stroke-miterlimit="10"/>
<path d="M1206.81 -113.226C1035.68 -85.8777 951.306 -157.22 868.117 -202.404C784.928 -247.587 657.768 -317.741 530.608 -278.502C471.187 -260.667 443.854 -259.478 371.361 -259.478C244.201 -259.478 226.375 -177.434 259.65 -88.2558C292.926 0.9223 184.78 121.015 112.287 214.95C39.7939 308.884 8.89517 368.336 2.95311 418.276C-18.4383 578.796 139.62 622.791 294.114 641.816C498.521 667.974 755.218 688.188 941.799 606.144C1128.38 524.1 1338.73 207.815 1375.57 124.583C1412.41 41.3497 1336.35 -132.25 1206.81 -113.226ZM1267.42 111.503C1228.21 252.999 1029.74 337.421 866.929 495.563C793.247 566.906 351.158 632.303 175.273 564.528C-0.612122 496.752 64.7505 348.122 132.49 275.591C200.229 203.059 319.071 172.144 309.563 54.4292C303.621 -19.2914 297.679 -93.012 359.477 -164.354C446.231 -263.045 603.101 -248.776 669.652 -211.916C736.203 -175.056 872.871 -102.524 946.552 -83.4996C1020.23 -64.475 1305.45 -31.1818 1267.42 111.503V111.503Z" stroke="white" stroke-width="2" stroke-miterlimit="10"/>
</g>
</svg>
