<svg width="163" height="64" viewBox="0 0 163 64" fill="none" xmlns="http://www.w3.org/2000/svg">
<g clip-path="url(#clip0)">
<path fill-rule="evenodd" clip-rule="evenodd" d="M26.4776 17.2494C24.0922 21.8439 24.2512 25.3905 27.4317 28.6147L29.022 30.2268C28.7039 28.6147 28.2268 27.9699 27.9088 25.7129C27.2727 22.0857 29.2605 17.2494 32.441 14.0253C30.9303 17.2494 26.5571 20.7154 29.2605 29.3401C29.8171 31.1134 30.6917 35.1437 29.9761 36.5945L28.9425 33.854C28.6382 33.2063 28.206 32.6289 27.6726 32.1574C27.1391 31.686 26.5159 31.3307 25.8415 31.1134C23.2971 30.3074 21.2298 30.8716 20.9117 30.7104C23.2176 29.7432 27.9883 29.985 29.181 33.5316L29.4195 34.257C29.8966 31.3552 28.0678 29.5013 26.0005 28.7759C23.9332 28.0505 23.2971 28.7759 22.2634 29.1789L19.0829 30.4686C19.242 31.4359 21.3093 33.854 22.4225 34.66C23.5356 35.4661 26.3981 35.3049 28.6244 34.9018H29.1015C29.3133 35.7507 29.4726 36.6122 29.5786 37.4812V38.9321C29.499 39.5769 29.34 39.9799 29.5786 40.3023H30.8508C31.0893 38.2066 30.4532 35.2243 31.8049 34.0958C32.3615 35.5467 32.759 36.8364 33.8722 37.6424C34.9854 38.4484 36.7347 38.6097 38.4044 38.4484C38.1656 36.8539 37.567 35.3368 36.6551 34.0152C36.0778 33.5373 35.3963 33.2057 34.6673 33.0479C33.7132 32.8867 32.441 32.9673 32.123 33.6928C34.9854 33.2092 36.6551 35.5467 37.4503 37.4812C37.4503 36.9976 35.2239 34.0958 32.9181 33.9346C30.6122 33.7734 31.6459 34.257 30.9303 34.7406C30.8925 34.4095 30.9476 34.0742 31.0893 33.7734C32.282 32.8061 32.6 32.2419 34.8264 32.4031C42.1415 32.9673 40.7103 30.791 44.4473 26.5996C42.062 25.1487 38.0069 23.456 35.1444 24.1008C32.282 24.7457 31.1688 26.7608 30.5327 28.7759C30.3175 29.6531 30.345 30.5735 30.6122 31.4359C31.6459 26.8414 37.2912 25.0681 41.6644 26.2772C38.3249 26.1159 36.8937 26.1159 34.2698 27.4862C33.2486 27.9975 32.3793 28.7742 31.7508 29.7371C31.1222 30.7 30.7568 31.8146 30.6917 32.9673C30.3737 33.2092 30.5327 33.1285 30.4532 32.6449C29.7376 29.9044 29.7376 27.0832 32.123 25.1487C34.5083 23.2142 34.6673 23.7784 36.4961 21.6021C38.3249 19.4258 38.7225 15.6374 37.2912 12.252C36.8937 11.3653 35.2239 8.06053 34.5083 7.5769C34.1837 7.81133 33.9125 8.1137 33.7132 8.46355C31.4073 11.4459 28.3859 13.6222 26.4776 17.2494Z" fill="#78BE20"/>
<path fill-rule="evenodd" clip-rule="evenodd" d="M18.9239 43.6714C18.4447 42.8174 17.6849 42.1613 16.7771 41.8175C15.6639 41.1726 15.6639 40.5278 14.8688 39.6411C14.0736 38.7545 9.46194 36.7394 10.7341 33.8376C11.3702 32.3061 14.7893 35.9333 16.6975 36.9812C18.6058 38.0291 22.661 38.2709 25.3644 40.3666C26.9132 41.6368 28.0945 43.3078 28.7834 45.2029C30.5327 49.5555 28.9424 55.4396 29.0219 60.3565C29.0219 61.1626 29.1014 62.6134 28.7039 63.1777C28.3063 63.7419 27.0341 63.9031 26.239 63.9031C24.0831 63.7511 21.9768 63.1762 20.0371 62.2104C19.1624 61.5656 19.7985 61.3238 20.2756 58.5832C20.6112 56.56 20.7444 54.5076 20.6732 52.4573C20.6732 51.2482 19.2419 50.2809 18.2878 49.7973C14.3917 48.024 11.5293 49.6361 7.87169 45.3641C7.07447 44.4105 6.45481 43.318 6.04291 42.1399C5.3273 39.883 6.5995 41.8981 4.45267 38.6739C2.30584 35.4497 2.38535 34.6437 1.03364 31.9031C0.556572 30.9359 -0.397575 29.2432 0.238523 28.1147C0.87462 26.9862 2.22633 29.0819 2.62389 29.8074C3.02145 30.5328 3.25999 31.5001 4.29364 33.2734C5.3273 35.0467 5.40682 35.8527 5.88389 36.7394C6.17306 37.2605 6.58225 37.7029 7.07657 38.0291C7.74501 38.2557 8.44021 38.3912 9.14389 38.4321C9.93901 38.6739 10.098 39.1575 10.6546 39.4799C11.2406 39.8114 11.893 40.0043 12.5629 40.0442C13.8156 40.3211 15.0036 40.8412 16.0615 41.5757C17.4132 42.6235 16.8566 41.8175 18.9239 43.6714Z" fill="black"/>
<path fill-rule="evenodd" clip-rule="evenodd" d="M8.90531 38.2064C5.5658 38.0452 6.2019 36.1913 4.77068 33.6926C4.14403 32.8255 3.63585 31.8765 3.25995 30.8714C2.70336 29.2593 1.74922 28.6145 2.46483 27.8084C3.18044 27.0024 4.21409 28.6951 4.61166 29.4205L6.12239 32.2417C6.99702 33.7732 8.74629 36.1913 8.90531 38.2064Z" fill="black"/>
<path fill-rule="evenodd" clip-rule="evenodd" d="M9.62095 35.869C9.38241 35.1436 9.22339 35.3048 9.54144 34.4987C9.85949 33.6927 10.257 34.7406 10.4161 35.5466C10.5751 36.3526 12.1653 38.932 12.4039 39.6574C12.6424 40.3829 11.8473 39.4962 11.2907 39.5768H11.1317C10.8931 39.5768 10.8136 39.4156 10.6546 39.335L10.0185 38.7708C9.77183 38.5804 9.50517 38.4182 9.22339 38.2872C8.98485 37.6423 8.90534 36.9169 8.58729 36.1914C7.71266 34.0957 6.44046 32.8866 5.72485 30.8715C6.00756 30.8342 6.29482 30.8833 6.54981 31.0125C6.80481 31.1418 7.01592 31.3453 7.15607 31.597C8.18973 32.7254 8.98485 34.9824 9.62095 35.869Z" fill="black"/>
<path fill-rule="evenodd" clip-rule="evenodd" d="M44.6062 43.3489C45.0455 42.4747 45.7787 41.7885 46.6735 41.4144C47.7866 40.7696 47.7866 40.1248 48.5023 39.2381C49.2179 38.3515 53.8296 36.2557 52.5574 33.354C51.8418 31.7419 48.5023 35.5303 46.6735 36.6588C44.8447 37.7872 40.7101 38.029 38.0066 40.2054C36.5226 41.5509 35.3776 43.2368 34.6671 45.1222C33.0769 49.5555 34.8262 55.4396 34.8262 60.2759C34.8262 61.1625 34.8262 62.5328 35.2237 63.0971C35.6213 63.6613 36.8935 63.8225 37.7681 63.7419C39.8901 63.5696 41.9509 62.9374 43.811 61.888C44.7652 61.2431 44.0496 61.0013 43.493 58.3414C43.1338 56.2934 42.9741 54.2145 43.0159 52.1348C43.0159 51.0064 44.3676 49.9585 45.3218 49.4749C49.1384 47.621 52.0803 49.1525 55.6584 44.7192C56.4003 43.7413 56.9902 42.6539 57.4076 41.495C58.1232 39.2381 56.851 41.2532 58.9184 38.029C60.9857 34.8049 60.9062 33.9182 62.1784 31.0971C62.6554 30.2104 63.6096 28.4371 62.894 27.3086C62.1784 26.1802 60.9062 28.3565 60.5086 29.1625C60.111 29.9686 59.8725 30.8552 58.9979 32.6285C58.1232 34.4018 57.8847 35.2079 57.4076 36.0945C57.1489 36.6342 56.7673 37.1039 56.2945 37.4648C55.6241 37.6838 54.9298 37.8191 54.2271 37.8678C53.432 38.1096 53.273 38.5933 52.7959 38.9963C52.2004 39.3041 51.553 39.4955 50.8876 39.5605C49.6364 39.8835 48.4518 40.4293 47.3891 41.1726C46.3871 41.7948 45.4541 42.5244 44.6062 43.3489Z" fill="black"/>
<path fill-rule="evenodd" clip-rule="evenodd" d="M54.5453 37.9646C57.8053 37.7228 57.1692 35.8689 58.6004 33.3702C59.2118 32.4647 59.7187 31.491 60.1112 30.4684C60.6678 28.9369 61.5424 28.2115 60.9063 27.4054C60.2702 26.5994 59.157 28.3727 58.7595 29.0981L57.2487 31.9193C56.3741 33.5314 54.7043 35.9495 54.5453 37.9646Z" fill="black"/>
<path fill-rule="evenodd" clip-rule="evenodd" d="M53.8297 35.6272C53.9887 34.9018 54.1478 34.9824 53.8297 34.257C53.5117 33.5315 53.1936 34.4988 53.0346 35.3048C52.8756 36.1109 51.2853 38.6902 51.0468 39.4157C50.8082 40.1411 51.6034 39.2544 52.16 39.335H52.319L52.7961 39.0932L53.4321 38.4484L54.2273 37.9648C54.4658 37.3199 54.5453 36.6751 54.8634 35.9497C55.6585 33.8539 56.9307 32.5643 57.6463 30.5492C57.3658 30.5311 57.0855 30.5887 56.8341 30.7161C56.5827 30.8435 56.3691 31.0362 56.2151 31.2746C55.1814 32.4031 54.3863 34.66 53.8297 35.6272Z" fill="black"/>
<path fill-rule="evenodd" clip-rule="evenodd" d="M49.6156 35.6179C52.637 29.9755 55.0224 23.5272 51.8419 15.1443C43.4931 -6.78014 9.22336 -0.0899646 10.8931 24.575C11.2112 29.7337 12.6424 32.3131 14.6302 35.7791C13.0399 33.1191 11.9268 31.4264 11.1317 27.5574C7.95116 11.9201 20.037 2.97301 26.239 0.877291C33.7131 -1.70205 47.0712 0.957895 52.0804 14.9025C55.1814 23.5272 52.796 29.9755 49.6156 35.6179Z" fill="black"/>
<path d="M154.095 44.1713C152.81 44.2252 151.529 44.0015 150.336 43.5151C149.144 43.0287 148.067 42.2907 147.177 41.3501C145.507 39.4962 144.633 36.9974 144.633 33.7733C144.633 30.5491 145.507 27.9697 147.177 26.1158C148.911 24.4671 151.166 23.497 153.54 23.3789C155.915 23.2608 158.253 24.0023 160.138 25.471C160.951 26.1393 161.618 26.9716 162.097 27.9151C162.576 28.8587 162.857 29.8929 162.921 30.9521H158.15C157.95 29.9848 157.448 29.1086 156.719 28.4534C155.988 27.8285 155.049 27.5112 154.095 27.5667C153.475 27.5536 152.862 27.6935 152.308 27.9743C151.754 28.2552 151.275 28.6686 150.914 29.1788C150.051 30.5456 149.634 32.1529 149.721 33.7733C149.623 35.3695 150.042 36.9545 150.914 38.2871C151.269 38.8292 151.755 39.2696 152.326 39.5661C152.897 39.8626 153.533 40.005 154.174 39.9798C155.096 39.9801 155.992 39.668 156.719 39.0932C157.462 38.4834 157.969 37.6269 158.15 36.675H163C162.912 37.7172 162.621 38.7312 162.143 39.6582C161.665 40.5853 161.011 41.407 160.217 42.0755C158.492 43.4997 156.318 44.244 154.095 44.1713ZM141.929 43.6876H137V35.7078H129.207V43.6876H124.198V23.8589H129.207V31.5969H137V23.8589H141.929V43.6876ZM112.351 28.0503L110.124 35.7078H114.577L112.43 28.0503H112.351ZM116.803 43.6876L115.531 39.335H109.17L107.898 43.6876H102.889L109.409 23.8589H115.531L122.051 43.6876H116.803ZM76.3317 43.6876V23.8589H81.2615V39.5768H86.0322V23.8589H90.962V39.5768H95.7327V23.8589H100.742V43.6876H76.3317Z" fill="black"/>
<path d="M157.593 47.7178H158.468C158.462 48.0052 158.545 48.2872 158.706 48.5238C158.803 48.6113 158.917 48.6779 159.04 48.7195C159.163 48.761 159.293 48.7767 159.422 48.7656C159.539 48.7704 159.655 48.7514 159.764 48.7099C159.873 48.6684 159.973 48.6051 160.058 48.5238C160.211 48.2768 160.319 48.0037 160.376 47.7178H161.171C161.185 47.9546 161.15 48.1918 161.068 48.414C160.986 48.6362 160.858 48.8384 160.694 49.0074C160.347 49.3283 159.892 49.5015 159.422 49.4911C158.928 49.5059 158.446 49.3335 158.07 49.0074C157.906 48.8384 157.779 48.6362 157.696 48.414C157.614 48.1918 157.579 47.9546 157.593 47.7178ZM158.07 55.8588H156.798V50.2971H158.07V54.0049H158.15L160.535 50.2971H161.807V55.8588H160.535V52.0704L158.07 55.8588ZM151.948 55.8588H150.676V50.2971H151.948V54.0049H152.027L154.413 50.2971H155.685V55.8588H154.413V52.0704H154.333L151.948 55.8588ZM148.211 55.8588V53.5213H145.905V55.8588H144.553V50.2971H145.905V52.4734H148.211V50.2971H149.483V55.8588H148.211ZM140.419 55.9394C139.949 55.9498 139.493 55.7767 139.146 55.4558C138.965 55.3141 138.82 55.1304 138.723 54.92C138.626 54.7096 138.58 54.4787 138.59 54.2467C138.571 54.0249 138.613 53.8022 138.711 53.6031C138.81 53.404 138.96 53.2362 139.146 53.1183C139.609 52.7727 140.163 52.5761 140.737 52.554H142.168V52.151C142.173 52.0328 142.154 51.9149 142.113 51.8042C142.072 51.6934 142.009 51.5921 141.929 51.5062C141.696 51.343 141.418 51.2584 141.134 51.2644L140.419 51.4256C140.222 51.5574 140.08 51.7584 140.021 51.9898H138.828C138.849 51.7353 138.924 51.4883 139.047 51.2657C139.171 51.0431 139.34 50.8502 139.544 50.7001C140.03 50.3515 140.619 50.1809 141.214 50.2165C141.782 50.1929 142.342 50.3632 142.804 50.7001C143.013 50.8583 143.18 51.0659 143.291 51.3048C143.402 51.5438 143.453 51.8067 143.44 52.0704V55.9394H142.168V54.9722C142.014 55.2865 141.762 55.5413 141.452 55.6976C141.132 55.8615 140.777 55.9444 140.419 55.9394ZM140.816 54.9722C141.159 54.9667 141.492 54.8541 141.77 54.6498C142.012 54.4183 142.155 54.1 142.168 53.7631V53.3601H140.896C140.766 53.349 140.636 53.3647 140.513 53.4063C140.39 53.4478 140.277 53.5144 140.18 53.6019C140.102 53.6726 140.04 53.7597 139.999 53.8572C139.958 53.9547 139.938 54.0601 139.942 54.1661C139.938 54.2605 139.958 54.3543 140 54.4388C140.042 54.5233 140.104 54.5958 140.18 54.6498C140.258 54.7457 140.355 54.8239 140.464 54.8795C140.574 54.935 140.694 54.9666 140.816 54.9722ZM136.363 55.8588V51.2644H134.058V55.8588H132.785V50.2971H137.636V55.8588H136.363ZM126.265 55.8588H124.993V50.2971H126.663L128.333 54.1661L130.002 50.2971H131.593V55.8588H130.4V51.9898H130.321L128.81 55.617H127.856L126.345 51.9898H126.265V55.8588ZM120.461 54.4079C120.563 54.573 120.704 54.7105 120.87 54.8088C121.036 54.907 121.223 54.9631 121.415 54.9722C121.618 54.963 121.817 54.9075 121.996 54.8098C122.175 54.7121 122.329 54.5747 122.449 54.4079C122.702 53.9995 122.814 53.5175 122.767 53.0377C122.802 52.5586 122.691 52.0802 122.449 51.6674C122.325 51.5109 122.168 51.3858 121.988 51.3018C121.809 51.2179 121.613 51.1775 121.415 51.1838C121.229 51.177 121.044 51.2177 120.877 51.3022C120.711 51.3867 120.567 51.5122 120.461 51.6674C120.191 52.0709 120.052 52.5501 120.063 53.0377C120.034 53.5275 120.174 54.0125 120.461 54.4079ZM123.403 55.214C122.86 55.7113 122.146 55.9719 121.415 55.9394C121.065 55.9584 120.715 55.9037 120.386 55.7789C120.058 55.654 119.758 55.4617 119.507 55.214C118.991 54.6099 118.709 53.8367 118.712 53.0377C118.7 52.6523 118.765 52.2685 118.901 51.9087C119.038 51.5489 119.244 51.2202 119.507 50.942C119.745 50.6711 120.04 50.458 120.37 50.3185C120.701 50.1789 121.058 50.1165 121.415 50.1359C121.784 50.1158 122.153 50.1775 122.497 50.3167C122.84 50.4559 123.149 50.6693 123.403 50.942C123.906 51.5169 124.163 52.2706 124.119 53.0377C124.151 53.8275 123.897 54.602 123.403 55.214ZM115.849 52.8765L118.314 55.8588H116.724L114.657 53.3601V55.8588H113.305V50.2971H114.657V52.6347L116.724 50.2971H118.235L115.849 52.8765ZM107.023 55.9394C106.554 55.9498 106.098 55.7767 105.751 55.4558C105.57 55.3141 105.425 55.1304 105.328 54.92C105.231 54.7096 105.185 54.4787 105.195 54.2467C105.176 54.0249 105.218 53.8022 105.316 53.6031C105.414 53.404 105.565 53.2362 105.751 53.1183C106.213 52.7727 106.768 52.5761 107.342 52.554H108.773V52.151C108.78 52.0248 108.754 51.8988 108.698 51.7857C108.643 51.6726 108.559 51.5762 108.455 51.5062C108.358 51.4187 108.244 51.3521 108.121 51.3105C107.998 51.269 107.868 51.2533 107.739 51.2644L107.023 51.4256C106.827 51.5574 106.685 51.7584 106.626 51.9898H105.433C105.435 51.7311 105.502 51.4771 105.627 51.2515C105.752 51.026 105.932 50.8363 106.149 50.7001C106.635 50.3515 107.224 50.1809 107.819 50.2165C108.387 50.1929 108.947 50.3632 109.409 50.7001C109.604 50.8703 109.762 51.0803 109.871 51.3164C109.981 51.5526 110.04 51.8095 110.045 52.0704V55.9394H108.773V54.9722C108.618 55.2865 108.367 55.5413 108.057 55.6976C107.737 55.8615 107.382 55.9444 107.023 55.9394ZM107.421 54.9722C107.764 54.9667 108.097 54.8541 108.375 54.6498C108.617 54.4183 108.76 54.1 108.773 53.7631V53.3601H107.501C107.371 53.349 107.241 53.3647 107.118 53.4063C106.995 53.4478 106.882 53.5144 106.785 53.6019C106.696 53.6684 106.622 53.7529 106.567 53.8501C106.513 53.9472 106.478 54.0549 106.467 54.1661C106.479 54.2664 106.514 54.3623 106.569 54.4463C106.624 54.5303 106.698 54.6 106.785 54.6498C106.863 54.7457 106.96 54.8239 107.069 54.8795C107.179 54.935 107.299 54.9666 107.421 54.9722ZM102.968 55.8588V51.2644H100.662V55.8588H99.3903V50.2971H104.241V55.8588H102.968ZM96.9254 55.8588V51.2644H94.6196V55.8588H93.3474V50.2971H98.1976V55.8588H96.9254ZM88.2586 57.9545H87.7815V56.9067H88.1791L88.7356 56.7455C88.9275 56.6086 89.0677 56.4096 89.1332 56.1812V55.8588L87.1454 50.2971H88.5766L89.8488 54.7304L91.2005 50.2971H92.5522L90.6439 56.1006C90.4575 56.6418 90.1593 57.1365 89.7693 57.5515C89.3123 57.8253 88.7893 57.9648 88.2586 57.9545ZM84.0444 54.8916C84.2307 54.8984 84.4157 54.8577 84.5824 54.7732C84.7491 54.6887 84.8922 54.5631 84.9986 54.4079C85.2689 54.0044 85.4079 53.5253 85.3961 53.0377C85.414 52.5742 85.2736 52.1187 84.9986 51.748C84.8875 51.5978 84.7434 51.476 84.5778 51.392C84.4122 51.3081 84.2296 51.2644 84.0444 51.2644C83.8593 51.2644 83.6767 51.3081 83.511 51.392C83.3454 51.476 83.2014 51.5978 83.0903 51.748C82.7951 52.1079 82.6522 52.5714 82.6927 53.0377C82.6663 53.2814 82.6879 53.528 82.7561 53.7632C82.8243 53.9984 82.9379 54.2175 83.0903 54.4079C83.1967 54.5631 83.3398 54.6887 83.5065 54.7732C83.6732 54.8577 83.8582 54.8984 84.0444 54.8916ZM84.442 50.1359C84.762 50.1356 85.078 50.2079 85.3669 50.3473C85.6558 50.4868 85.9103 50.6899 86.1117 50.942C86.5588 51.5437 86.7838 52.2852 86.7478 53.0377C86.7655 53.8127 86.543 54.5738 86.1117 55.214C85.9063 55.4558 85.6491 55.6469 85.3597 55.7726C85.0703 55.8983 84.7564 55.9554 84.442 55.9394C84.0832 55.9444 83.7286 55.8615 83.4083 55.6976C83.1142 55.5196 82.8683 55.2704 82.6927 54.9722V57.7127H81.4205V50.2971H82.6927V51.2644C82.8195 50.912 83.076 50.6231 83.4083 50.4583C83.698 50.2179 84.0691 50.1022 84.442 50.1359ZM80.4664 51.2644H78.0015V55.8588H76.7293V50.2971H80.4664V51.2644Z" fill="black"/>
</g>
<defs>
<clipPath id="clip0">
<rect width="163" height="64" fill="white"/>
</clipPath>
</defs>
</svg>
