<svg width="20" height="19" viewBox="0 0 20 19" fill="none" xmlns="http://www.w3.org/2000/svg">
<path d="M9.99972 0L8.40039 5.22608C8.8968 6.29979 9.42258 7.43174 10.0005 8.50724C10.5709 7.44455 11.0921 6.32256 11.599 5.22608L9.99972 0Z" fill="white"/>
<path d="M12.7105 5.62652C12.0809 6.98851 11.4312 8.39335 10.6841 9.70331C11.1192 10.4151 11.5843 11.0772 12.0872 11.6502C12.7736 10.8631 13.4403 10.0321 14.0958 9.20421L15.6261 0.540283C14.6137 1.50942 13.6829 3.52309 12.7105 5.62652Z" fill="white"/>
<path d="M4.61471 9.47089C2.96421 7.38128 1.38695 5.38437 0 4.66895L4.06698 14.3279C5.0746 16.7209 7.40346 18.2672 9.99997 18.2672C11.3141 18.2672 12.5597 17.8711 13.6002 17.1697C10.064 16.3704 7.18772 12.7285 4.61471 9.47089Z" fill="white"/>
<path d="M7.28964 5.6268C6.31726 3.52333 5.3864 1.50967 4.37402 0.540527L5.90429 9.20441C7.18527 10.8221 8.54546 12.4969 10.0003 13.7969C10.441 13.4034 10.8715 12.9772 11.2936 12.5286C9.6214 10.6698 8.38734 8.00137 7.28964 5.6268Z" fill="white"/>
<path d="M15.3853 9.47093C13.9793 11.251 12.5302 13.0856 10.918 14.5537C12.1368 15.4718 13.4206 16.0811 14.7776 16.1474C15.2534 15.62 15.6466 15.0083 15.933 14.3279L20 4.66895C18.6131 5.38437 17.0358 7.38128 15.3853 9.47093Z" fill="white"/>
</svg>
