<svg width="38" height="40" viewBox="0 0 38 40" fill="none" xmlns="http://www.w3.org/2000/svg">
<path d="M37.2448 33.7398L32.6576 23.9028C30.1247 27.5909 26.1699 30.2171 21.592 31.0134L25.432 39.2478C25.923 40.3015 27.4424 40.2312 27.8377 39.1431L29.8059 33.7365L30.2116 33.5474L35.6182 35.5156C36.7031 35.9137 37.7351 34.7893 37.2448 33.7398Z" fill="#78BE20"/>
<path d="M18.6855 0C10.7803 0 4.34827 6.43164 4.34827 14.3372C4.34827 22.2427 10.7804 28.6744 18.6855 28.6744C26.5906 28.6744 33.0226 22.2427 33.0226 14.3372C33.0226 6.43164 26.5907 0 18.6855 0ZM25.6615 13.2837L23.1193 15.762L23.7201 19.2623C23.9037 20.331 22.7777 21.1339 21.8286 20.6362L18.6855 18.984L15.5425 20.6361C14.5879 21.1373 13.4683 20.325 13.651 19.2623L14.2518 15.762L11.7095 13.2837C10.9369 12.5304 11.3657 11.2155 12.4318 11.0605L15.9456 10.5502L17.5172 7.36633C17.9927 6.39945 19.378 6.39859 19.8541 7.36633L21.4257 10.5502L24.9395 11.0605C26.0055 11.2154 26.4342 12.5304 25.6615 13.2837Z" fill="#78BE20"/>
<path d="M4.7129 23.9028L0.125708 33.7398C-0.36687 34.7942 0.67438 35.9124 1.75235 35.5153L7.15891 33.5471L7.56454 33.7363L9.53274 39.1429C9.92735 40.2288 11.4465 40.3036 11.9384 39.2478L15.7784 31.0133C11.2006 30.2171 7.24586 27.591 4.7129 23.9028Z" fill="#78BE20"/>
</svg>
