<svg width="43" height="66" viewBox="0 0 43 66" fill="none" xmlns="http://www.w3.org/2000/svg">
<path d="M42.0522 41.465C41.4891 38.9838 40.0406 36.8528 37.9569 35.4198C38.011 35.3396 38.0641 35.2593 38.1147 35.1793C39.3582 33.207 39.7586 30.8679 39.2424 28.5934C38.7263 26.3193 37.356 24.3823 35.3837 23.1391C35.081 22.9484 34.7687 22.7789 34.4494 22.6287C35.2527 21.1692 35.4924 19.4882 35.1206 17.8499C34.7183 16.077 33.6495 14.5666 32.1115 13.5973C32.0054 13.5304 31.8976 13.4676 31.7887 13.407C32.6448 11.0893 31.7935 8.39527 29.6272 7.02883C29.5769 6.99707 29.525 6.96912 29.4738 6.93926C30.01 5.17061 29.3268 3.18268 27.6938 2.15264C26.5961 1.46166 25.248 1.32421 24.045 1.74916C23.3652 1.27758 22.5407 1 21.6523 1C20.7639 1 19.9394 1.27758 19.2595 1.74941C18.0564 1.32433 16.7083 1.46192 15.6099 2.15327C13.9776 3.18281 13.2944 5.17073 13.8307 6.93939C13.7793 6.96937 13.7271 6.99757 13.6766 7.02933C11.5109 8.3954 10.6596 11.0893 11.5159 13.407C11.4071 13.4675 11.2993 13.5304 11.1933 13.5972C9.6551 14.5666 8.58631 16.077 8.18398 17.8499C7.812 19.4888 8.05198 21.1706 8.85488 22.6289C8.53575 22.779 8.22348 22.9485 7.92075 23.1392C7.66311 23.3015 7.41157 23.4789 7.17299 23.6664C6.75934 23.9916 6.68757 24.5906 7.01279 25.0043C7.20068 25.2434 7.48017 25.3682 7.76245 25.3682C7.96851 25.3682 8.1761 25.3017 8.35065 25.1645C8.5374 25.0176 8.73457 24.8786 8.93644 24.7513C10.6709 23.6588 12.7911 23.416 14.7038 24.0409C13.5869 25.5076 12.9221 27.3361 12.9221 29.3177C12.9221 30.6999 13.2506 32.3732 13.8289 34.04C11.5836 33.3948 9.17044 33.5491 7.02067 34.4886C6.94393 34.3796 6.87 34.2707 6.8019 34.1631C5.5531 32.1823 5.40446 29.7325 6.40439 27.6096C6.62862 27.1336 6.42447 26.5659 5.94845 26.3416C5.47255 26.1175 4.90481 26.3216 4.68046 26.7976C3.40205 29.5119 3.59248 32.6452 5.19052 35.1802C5.24083 35.2599 5.29393 35.3398 5.3478 35.4197C3.26396 36.8527 1.81557 38.9837 1.25253 41.4649C0.658994 44.0809 1.11977 46.7714 2.54999 49.0406C3.99927 51.3404 6.86962 53.8408 9.86269 55.4106C11.9849 56.5236 13.9641 57.0855 15.6841 57.0855C16.365 57.0855 17.0036 56.994 17.596 56.8172V60.9436C17.596 63.1803 19.4157 65 21.6524 65C23.8891 65 25.7088 63.1803 25.7088 60.9436V56.8154C26.3042 56.9921 26.9464 57.0828 27.6298 57.0828C29.9761 57.0828 32.7838 56.0514 35.6661 54.0625C36.0992 53.7635 36.2081 53.1703 35.9091 52.7371C35.6102 52.304 35.0169 52.195 34.5837 52.494C30.8828 55.048 28.014 55.4895 26.2688 54.9909C27.2064 54.1086 28.0942 52.9601 28.9032 51.5646C30.5985 48.6409 31.6938 44.995 31.6938 42.2762C31.6938 39.9169 30.8739 37.7467 29.5067 36.0309C31.8427 35.1943 34.4653 35.4594 36.5976 36.8035C38.4358 37.9619 39.713 39.767 40.1938 41.8864C40.6748 44.0061 40.3014 46.1858 39.1426 48.0245C38.6899 48.7428 38.0391 49.5271 37.2607 50.2927C36.8854 50.6616 36.8804 51.2649 37.2494 51.6401C37.4359 51.8297 37.6822 51.9249 37.9288 51.9249C38.1699 51.9249 38.4113 51.8339 38.5968 51.6515C39.4913 50.772 40.2173 49.8935 40.7547 49.0406C42.1849 46.7715 42.6457 44.081 42.0522 41.465ZM33.2622 18.2716C33.552 19.5483 33.3272 20.8612 32.6277 21.9709C32.6213 21.9812 32.614 21.9919 32.6075 22.0022C30.973 21.643 29.2537 21.7562 27.6645 22.35C28.1683 20.9818 28.4578 19.5842 28.4578 18.4471C28.4578 17.0247 28.0185 15.7035 27.2695 14.6103C28.5576 14.2822 29.9447 14.4841 31.0953 15.2095C32.203 15.9075 32.9726 16.995 33.2622 18.2716ZM27.434 34.0742C25.7979 32.9175 23.8038 32.2349 21.6522 32.2349C19.5005 32.2349 17.5064 32.9174 15.8704 34.0742C15.2093 32.3932 14.8277 30.6776 14.8277 29.3179C14.8277 25.5555 17.8892 22.4946 21.6523 22.4946C25.4155 22.4946 28.4769 25.5555 28.4769 29.3179C28.4769 30.6776 28.0953 32.3932 27.434 34.0742ZM16.7523 18.447C16.7523 15.7451 18.9504 13.547 21.6523 13.547C24.3542 13.547 26.5522 15.7451 26.5522 18.447C26.5522 19.3708 26.3073 20.5294 25.8804 21.6845C24.6268 20.9875 23.1855 20.589 21.6523 20.589C20.119 20.589 18.6778 20.9875 17.4241 21.6845C16.9973 20.5294 16.7523 19.3708 16.7523 18.447ZM18.2133 10.869C18.2133 8.9728 19.7561 7.43002 21.6523 7.43002C23.5486 7.43002 25.0913 8.9728 25.0913 10.869C25.0913 11.3181 25.004 11.8669 24.8482 12.4409C23.8947 11.9314 22.8068 11.6415 21.6523 11.6415C20.4977 11.6415 19.4099 11.9314 18.4563 12.4409C18.3006 11.8669 18.2133 11.3181 18.2133 10.869ZM30.0094 12.7238C28.9311 12.4763 27.8031 12.494 26.7275 12.7802C26.9007 12.0988 26.9969 11.4406 26.9969 10.869C26.9969 9.87847 26.725 8.95057 26.2534 8.15428C27.0612 8.03041 27.9009 8.19379 28.6114 8.64122C29.9983 9.51602 30.5473 11.2372 30.0094 12.7238ZM26.678 3.76503C27.5409 4.3094 27.9191 5.34313 27.6791 6.28526C27.0375 6.176 26.3798 6.18591 25.7389 6.31232C25.8169 5.92345 25.8599 5.54957 25.8599 5.20745C25.8599 4.5659 25.7149 3.95775 25.457 3.41313C25.8825 3.41427 26.3067 3.53141 26.678 3.76503ZM21.6523 2.90561C22.9215 2.90561 23.9543 3.93819 23.9543 5.20745C23.9543 5.43968 23.9191 5.71231 23.8568 6.00221C23.1841 5.6963 22.4382 5.52441 21.6523 5.52441C20.8665 5.52441 20.1206 5.6963 19.4479 6.00221C19.3856 5.71243 19.3504 5.43968 19.3504 5.20745C19.3504 3.93819 20.383 2.90561 21.6523 2.90561ZM16.6258 3.76554C16.9975 3.53153 17.4218 3.4144 17.8476 3.41313C17.5897 3.95775 17.4448 4.5659 17.4448 5.20745C17.4448 5.54957 17.4878 5.92345 17.5658 6.31232C16.9249 6.18591 16.2672 6.176 15.6256 6.28526C15.3855 5.34313 15.7635 4.30953 16.6258 3.76554ZM14.6924 8.6416C15.4034 8.19391 16.2433 8.03041 17.0511 8.15428C16.5796 8.95057 16.3077 9.87847 16.3077 10.869C16.3077 11.4406 16.4039 12.0988 16.577 12.7802C15.5014 12.4938 14.3734 12.4762 13.2952 12.7237C12.7573 11.2372 13.3061 9.51602 14.6924 8.6416ZM10.697 22.0021C10.6898 21.991 10.6822 21.9797 10.6752 21.9686C9.97728 20.8612 9.75241 19.5483 10.0422 18.2716C10.332 16.995 11.1015 15.9075 12.2094 15.2093C13.3597 14.4838 14.7469 14.2821 16.0349 14.6102C15.2859 15.7034 14.8466 17.0246 14.8466 18.447C14.8466 19.5842 15.1361 20.9818 15.64 22.3499C14.0507 21.7561 12.3315 21.6429 10.697 22.0021ZM10.7476 53.7231C8.03038 52.2979 5.44537 50.0611 4.162 48.0246C3.00327 46.1861 2.6299 44.0062 3.11087 41.8867C3.59172 39.7673 4.86886 37.9621 6.70726 36.8037C8.83938 35.4597 11.462 35.1943 13.798 36.031C12.4308 37.7468 11.6109 39.917 11.6109 42.2763C11.6109 44.9951 12.7062 48.641 14.4015 51.5647C15.2118 52.9623 16.1011 54.1123 17.0402 54.9949C15.4481 55.4602 13.2221 55.021 10.7476 53.7231ZM21.6523 63.0945C20.4664 63.0945 19.5015 62.1297 19.5015 60.9437V56.6416C20.209 56.9346 20.9292 57.0855 21.6523 57.0855C22.3754 57.0855 23.0957 56.9346 23.8031 56.6416V60.9437C23.8031 62.1297 22.8382 63.0945 21.6523 63.0945ZM21.6523 55.1799C19.7762 55.1799 17.7342 53.5139 16.0499 50.6089C14.5108 47.9545 13.5165 44.6837 13.5165 42.2763C13.5165 37.7901 17.1662 34.1405 21.6523 34.1405C26.1383 34.1405 29.7882 37.7902 29.7882 42.2763C29.7881 47.1301 25.8475 55.1799 21.6523 55.1799ZM29.4757 34.0401C30.0538 32.3735 30.3825 30.7 30.3825 29.3179C30.3825 27.3365 29.7176 25.508 28.6008 24.0412C30.5133 23.4163 32.6337 23.659 34.3679 24.7513C35.9095 25.7229 36.9806 27.2373 37.3841 29.0152C37.7876 30.7934 37.4745 32.6216 36.5033 34.1622C36.435 34.2703 36.3608 34.3795 36.2839 34.4887C34.134 33.5491 31.7209 33.3949 29.4757 34.0401Z" fill="#FF73E0" stroke="#FF73E0" stroke-width="0.5"/>
</svg>
