<svg width="38" height="83" viewBox="0 0 38 83" fill="none" xmlns="http://www.w3.org/2000/svg">
<path d="M12.0122 16.6152L10.1279 32.9958L4.3965 82.2158" stroke="#BEB700" stroke-width="2" stroke-miterlimit="10" stroke-linecap="round"/>
<path d="M21.5908 28.3721L10.128 32.9962" stroke="#BEB700" stroke-width="2" stroke-miterlimit="10" stroke-linecap="round"/>
<path d="M22.6899 23.7471L10.7561 28.9983" stroke="#BEB700" stroke-width="2" stroke-miterlimit="10" stroke-linecap="round"/>
<path d="M18.3716 20.2988L10.9914 25.9419" stroke="#BEB700" stroke-width="2" stroke-miterlimit="10" stroke-linecap="round"/>
<path d="M1.49168 18.8877L10.5991 26.9604" stroke="#BEB700" stroke-width="2" stroke-miterlimit="10" stroke-linecap="round"/>
<path d="M1.17762 23.1982L10.2065 30.6439" stroke="#BEB700" stroke-width="2" stroke-miterlimit="10" stroke-linecap="round"/>
<path d="M2.19835 31.1152L9.5 37.1502" stroke="#BEB700" stroke-width="2" stroke-miterlimit="10" stroke-linecap="round"/>
<path d="M21.5909 10.8154C22.002 10.3927 22.2509 9.83902 22.294 9.25145C22.337 8.66388 22.1715 8.07994 21.8265 7.602C21.4046 7.05137 20.7895 6.68063 20.1049 6.5643C19.4203 6.44798 18.717 6.59471 18.1364 6.97499C18.3942 5.63649 18.1207 4.25035 17.3734 3.10954C16.6262 1.96873 15.4639 1.16265 14.1322 0.861676C11.3843 0.391421 8.40084 2.7427 8.32232 6.03448C7.82999 5.62257 7.21179 5.39037 6.56958 5.37612C5.92736 5.36188 5.29944 5.56644 4.78927 5.9561C4.32971 6.35371 4.00673 6.88526 3.86588 7.47583C3.72502 8.0664 3.77338 8.68621 4.00414 9.24789C3.27444 9.18524 2.54714 9.39272 1.96079 9.83081C1.37443 10.2689 0.969985 10.907 0.824485 11.6235C0.678985 12.3401 0.802597 13.085 1.17178 13.7165C1.54096 14.3479 2.12991 14.8217 2.82645 15.0477C2.649 15.6042 2.644 16.2012 2.81211 16.7606C2.98022 17.32 3.31359 17.8156 3.7686 18.1827C4.3802 18.5959 5.12648 18.761 5.85569 18.6446C6.5849 18.5281 7.2423 18.1388 7.69423 17.5557C8.30192 16.9644 9.03049 16.5111 9.83002 16.227C10.6295 15.9429 11.4811 15.8347 12.3265 15.9098C13.1218 16.0253 13.8833 16.3087 14.5602 16.7412C15.2372 17.1737 15.8139 17.7453 16.2521 18.4179C16.5915 19.099 17.1792 19.6247 17.8946 19.887C18.6099 20.1494 19.3988 20.1285 20.0992 19.8286C20.6843 19.5294 21.1504 19.0409 21.4213 18.443C21.6923 17.8451 21.7521 17.1731 21.5909 16.5368C22.3271 16.5371 23.0344 16.2506 23.5623 15.7383C24.0901 15.226 24.3969 14.5283 24.4174 13.7937C24.4278 13.4128 24.363 13.0337 24.2266 12.6778C24.0902 12.322 23.8848 11.9965 23.6224 11.7199C23.3599 11.4433 23.0454 11.2211 22.6968 11.0659C22.3482 10.9107 21.9724 10.8256 21.5909 10.8154V10.8154Z" stroke="#BEB700" stroke-width="2" stroke-miterlimit="10" stroke-linecap="round"/>
<path d="M26.6157 39.4229L17.1942 48.6712L7.30167 58.0763" stroke="#BEB700" stroke-width="2" stroke-miterlimit="10" stroke-linecap="round"/>
<path d="M27.479 51.2567L18.6856 47.6514" stroke="#BEB700" stroke-width="2" stroke-miterlimit="10" stroke-linecap="round"/>
<path d="M31.7974 48.7491L20.9627 45.3789" stroke="#BEB700" stroke-width="2" stroke-miterlimit="10" stroke-linecap="round"/>
<path d="M28.1855 44.125L22.3756 43.8115" stroke="#BEB700" stroke-width="2" stroke-miterlimit="10" stroke-linecap="round"/>
<path d="M17.1942 37.8555L20.0991 45.5363" stroke="#BEB700" stroke-width="2" stroke-miterlimit="10" stroke-linecap="round"/>
<path d="M14.4463 41.2256L17.5083 48.201" stroke="#BEB700" stroke-width="2" stroke-miterlimit="10" stroke-linecap="round"/>
<path d="M35.0164 40.598C35.2846 40.6194 35.5544 40.5877 35.8103 40.5046C36.0662 40.4215 36.3031 40.2887 36.5074 40.1139C36.7117 39.9391 36.8794 39.7257 37.0008 39.4859C37.1222 39.2462 37.1949 38.9849 37.2147 38.717C37.2365 38.1477 37.0357 37.5923 36.6548 37.1682C36.2738 36.744 35.7426 36.4844 35.1734 36.4441C36.0205 35.7537 36.5614 34.7581 36.6789 33.6728C36.7964 32.5874 36.4812 31.4995 35.8015 30.6443C35.3895 30.2277 34.894 29.9028 34.3474 29.6908C33.8008 29.4788 33.2155 29.3845 32.6299 29.4141C32.0442 29.4437 31.4715 29.5965 30.9492 29.8625C30.4268 30.1286 29.9667 30.5018 29.599 30.9578C29.4926 30.4736 29.2252 30.0397 28.8403 29.7266C28.4554 29.4135 27.9756 29.2397 27.4792 29.2335C26.9766 29.2025 26.4795 29.3512 26.0767 29.6527C25.6739 29.9543 25.3917 30.3891 25.2808 30.8794C24.8879 30.5012 24.3755 30.2709 23.8313 30.228C23.2871 30.1851 22.7449 30.3323 22.2973 30.6443C21.7948 30.9934 21.4482 31.5241 21.331 32.1239C21.2137 32.7238 21.3351 33.3456 21.6692 33.8577C21.2674 34.1067 20.9532 34.4744 20.7703 34.9098C20.5874 35.3452 20.5448 35.8267 20.6486 36.2873C20.8298 36.8426 21.2116 37.3107 21.7195 37.6005C22.2275 37.8902 22.8253 37.9809 23.3965 37.8549C24.0656 37.7889 24.7411 37.8667 25.3776 38.083C26.0141 38.2993 26.5968 38.6491 27.0866 39.1089C27.5252 39.5965 27.8621 40.1665 28.0778 40.7854C28.2935 41.4044 28.3836 42.0601 28.3428 42.7142C28.2609 43.0025 28.2391 43.3046 28.2786 43.6017C28.3181 43.8989 28.4182 44.1848 28.5727 44.4418C28.7272 44.6988 28.9328 44.9215 29.1768 45.0962C29.4208 45.2708 29.6981 45.3937 29.9916 45.4573C30.4985 45.5434 31.0196 45.4495 31.4643 45.1917C31.909 44.9339 32.2491 44.5287 32.4254 44.0466C32.6486 44.2597 32.9128 44.4253 33.202 44.5333C33.4912 44.6413 33.7995 44.6894 34.1079 44.6747C34.4164 44.6601 34.7186 44.5829 34.9963 44.448C35.2739 44.313 35.5212 44.1231 35.723 43.8898C35.9082 43.6323 36.0375 43.3389 36.1024 43.0286C36.1673 42.7182 36.1665 42.3977 36.1 42.0877C36.0334 41.7777 35.9026 41.485 35.716 41.2284C35.5294 40.9719 35.2911 40.7571 35.0164 40.598V40.598Z" stroke="#BEB700" stroke-width="2" stroke-miterlimit="10" stroke-linecap="round"/>
<path d="M22.6899 38.168L22.3759 43.5759" stroke="#BEB700" stroke-width="2" stroke-miterlimit="10" stroke-linecap="round"/>
</svg>
