<svg width="71" height="64" viewBox="0 0 71 64" fill="none" xmlns="http://www.w3.org/2000/svg">
<path d="M21.6065 64.0001C18.9177 63.9806 16.246 63.5707 13.675 62.7832C11.3212 62.061 9.21748 61.0375 7.41513 59.7466C5.20955 58.1767 3.40407 56.11 2.14456 53.7133C0.853918 51.2511 0.120472 48.442 0.0124452 45.5931C-0.0955817 42.6077 0.501409 39.6962 1.73519 37.1714C4.39038 31.7522 9.59842 28.7782 12.1001 27.3452C12.2934 27.2315 12.5038 27.1178 12.7312 26.9927C14.3914 26.0658 17.1717 24.5248 17.3024 22.8131C17.3081 22.7506 17.3081 22.6539 17.3138 22.5516C17.3366 21.8464 17.3764 20.5386 18.3202 19.4809C18.6272 19.1397 19.4914 18.3265 20.8048 18.2526C21.453 18.2185 22.4252 18.3606 23.4202 19.2079C24.4152 20.0552 24.671 21.2039 24.8416 22.0853C24.9155 22.5004 24.9894 22.8927 25.1429 23.251C25.6944 24.5589 27.2239 25.1787 28.4576 25.6734C28.6282 25.7417 28.7931 25.8042 28.9466 25.8724C31.272 26.8448 33.6202 28.4427 35.9172 30.6093C38.2142 32.7758 39.4991 34.5841 39.8573 35.1016C41.455 37.4103 42.4898 40.3956 42.7797 43.5175C43.0811 46.8156 42.5523 50.0626 41.256 52.9172C36.5085 63.3803 23.4429 63.966 21.9703 64.0001H21.6065ZM19.571 22.9837C19.3493 25.9123 16.0289 27.7603 13.8342 28.9772L13.2258 29.3241C10.9232 30.6377 6.1245 33.3786 3.77633 38.1722C2.70743 40.3615 2.19004 42.8977 2.2867 45.5078C2.37231 48.0004 3.01332 50.4424 4.16295 52.6556C8.92751 61.7426 20.6058 61.754 21.9192 61.7255C22.5389 61.7085 25.8081 61.5777 29.4583 60.2869C31.5563 59.5476 33.3985 58.5639 34.9336 57.3583C36.7985 55.8912 38.2312 54.0772 39.1864 51.9789C40.3236 49.4826 40.7784 46.628 40.5112 43.7222C40.261 40.987 39.3627 38.3883 37.9868 36.3981C36.5426 34.3168 32.6138 29.8757 28.071 27.9707L27.6105 27.7831C26.1607 27.1974 23.966 26.316 23.0449 24.1324C22.8004 23.5524 22.6981 22.9951 22.6014 22.5061C22.4536 21.7213 22.357 21.2949 21.9419 20.9366C21.5269 20.5784 21.2653 20.5101 20.9299 20.5272C20.4523 20.5499 20.1111 20.8911 20.0202 20.9992C19.6222 21.437 19.6051 22.0966 19.5824 22.6255C19.5824 22.7506 19.5767 22.87 19.571 22.9837Z" fill="#DBA0A0"/>
<path d="M14.4714 62.9253C14.2933 62.9251 14.1179 62.8822 13.9597 62.8002C12.4254 61.9998 11.0142 60.9829 9.76943 59.7807C7.29618 57.4094 5.7042 54.6003 5.03899 51.433C4.39651 48.3623 4.68648 45.1494 5.87477 42.1413C7.08006 39.1248 9.0948 36.4997 11.6969 34.5556C11.8163 34.466 11.9523 34.4008 12.0969 34.3637C12.2416 34.3266 12.3921 34.3184 12.5399 34.3396C12.6878 34.3607 12.83 34.4107 12.9585 34.4868C13.087 34.5629 13.1992 34.6636 13.2888 34.783C13.3784 34.9025 13.4436 35.0385 13.4807 35.1832C13.5177 35.3278 13.526 35.4784 13.5048 35.6263C13.4837 35.7741 13.4337 35.9163 13.3576 36.0449C13.2815 36.1734 13.1809 36.2856 13.0614 36.3752C8.41625 39.8667 6.142 45.593 7.26775 50.9667C8.58113 57.2502 13.9256 60.2356 14.9888 60.7701C15.219 60.8848 15.4035 61.0742 15.5122 61.3073C15.6209 61.5404 15.6474 61.8034 15.5874 62.0535C15.5274 62.3036 15.3843 62.526 15.1816 62.6843C14.979 62.8426 14.7286 62.9276 14.4714 62.9253Z" fill="#DBA0A0"/>
<path d="M33.4894 37.6212C33.2905 37.6221 33.0948 37.5706 32.9221 37.4717C32.7494 37.3729 32.6058 37.2303 32.5058 37.0582C31.387 35.14 30.1627 33.2852 28.8386 31.5026C27.4273 29.6 25.9067 27.781 24.2844 26.055C24.0914 25.8333 23.9917 25.5454 24.0063 25.2518C24.0208 24.9582 24.1485 24.6817 24.3625 24.4802C24.5765 24.2787 24.8602 24.1678 25.1541 24.171C25.448 24.1741 25.7292 24.2909 25.9389 24.4969C27.6227 26.2888 29.2021 28.176 30.6694 30.1492C32.039 32.0002 33.3087 33.923 34.473 35.9096C34.6243 36.1707 34.6662 36.4811 34.5895 36.773C34.5128 37.0649 34.3238 37.3146 34.0637 37.4676C33.8896 37.5696 33.6912 37.6227 33.4894 37.6212Z" fill="#DBA0A0"/>
<path d="M36.6563 47.6394C36.3567 47.6394 36.0692 47.5212 35.8562 47.3103C35.6433 47.0995 35.5222 46.8131 35.5192 46.5135C35.512 45.5218 35.4072 44.5333 35.2065 43.5622C35.0286 42.7187 34.7814 41.8914 34.4674 41.0886C34.3722 40.8114 34.3878 40.5081 34.5107 40.2421C34.6337 39.976 34.8546 39.7677 35.1274 39.6606C35.4002 39.5536 35.7038 39.556 35.9749 39.6673C36.246 39.7787 36.4636 39.9904 36.5824 40.2584C36.9462 41.1799 37.2296 42.1312 37.4295 43.1016C37.6614 44.2167 37.7832 45.3518 37.7934 46.4907C37.7957 46.6403 37.7683 46.7888 37.7128 46.9277C37.6573 47.0666 37.5748 47.1931 37.4701 47.2999C37.3654 47.4067 37.2406 47.4917 37.1029 47.55C36.9651 47.6083 36.8172 47.6387 36.6677 47.6394H36.6563Z" fill="#DBA0A0"/>
<path d="M28.1676 63.0387C27.89 63.0392 27.6217 62.9381 27.4134 62.7545C27.2052 62.5708 27.0713 62.3173 27.037 62.0417C27.0027 61.7662 27.0705 61.4876 27.2274 61.2585C27.3844 61.0294 27.6197 60.8657 27.889 60.7982C28.9636 60.5253 31.6813 59.5984 33.6486 56.9257C35.4452 54.4749 35.6613 51.916 35.6328 50.6024C35.6298 50.4531 35.6563 50.3046 35.7106 50.1654C35.765 50.0263 35.8463 49.8992 35.9497 49.7915C36.0532 49.6838 36.1769 49.5975 36.3138 49.5376C36.4506 49.4777 36.5979 49.4454 36.7472 49.4424H36.77C37.0671 49.4408 37.353 49.5563 37.5657 49.7638C37.7785 49.9712 37.9011 50.2541 37.9071 50.5513C37.9412 52.1491 37.674 55.2824 35.4793 58.2677C33.1653 61.418 30.0837 62.5837 28.4462 62.9989C28.3559 63.026 28.2619 63.0394 28.1676 63.0387Z" fill="#DBA0A0"/>
<path d="M48.2434 63.033C47.3527 63.0338 46.4632 62.9673 45.5825 62.834C43.0354 62.4587 41.5912 62.072 39.2374 60.6447C38.9905 60.4835 38.8159 60.2326 38.7504 59.9451C38.6849 59.6576 38.7336 59.3559 38.8863 59.1036C39.039 58.8513 39.2836 58.6682 39.5687 58.5929C39.8538 58.5176 40.157 58.556 40.4143 58.6999C42.4156 59.9168 43.5471 60.2353 45.918 60.5878C50.5802 61.2702 54.7648 59.9168 58.0113 56.6699C61.5478 53.1443 62.5314 47.981 63.009 45.5017C63.0488 45.3027 63.0886 45.0866 63.1284 44.8478C63.5548 42.4822 64.1973 38.8997 66.7729 37.8193L67.0913 37.6942C67.5632 37.5236 68.0976 37.3246 68.3592 36.8583C68.4217 36.7503 68.615 36.3522 68.4956 35.92C68.416 35.6187 68.1943 35.3571 67.8475 35.141C67.5006 34.9249 67.0458 34.9079 66.301 35.0045C65.8347 35.0671 65.3003 35.1353 64.7033 35.0841C62.4575 34.8851 61.0076 33.1394 60.0468 31.9793L59.7454 31.6211C56.6923 28.05 51.5809 25.7811 49.3009 25.0817C44.6501 23.6544 40.2665 24.4164 36.2752 27.3449C36.1553 27.4388 36.0179 27.5077 35.871 27.5475C35.724 27.5873 35.5706 27.5972 35.4198 27.5766C35.2689 27.556 35.1238 27.5053 34.9929 27.4276C34.862 27.3498 34.7481 27.2466 34.6578 27.124C34.5676 27.0013 34.5029 26.8618 34.4676 26.7137C34.4322 26.5656 34.427 26.412 34.4522 26.2618C34.4773 26.1116 34.5324 25.9681 34.6141 25.8396C34.6957 25.7111 34.8024 25.6003 34.9277 25.5138C37.2701 23.7909 39.7718 22.7104 42.3645 22.301C44.815 21.9086 47.3735 22.1134 49.9662 22.9095C52.6498 23.734 58.0852 26.1792 61.4739 30.1426L61.798 30.5293C62.6053 31.496 63.606 32.7015 64.9023 32.8152C65.2548 32.8494 65.6244 32.7982 66.011 32.7527C66.8582 32.639 67.9157 32.5025 69.0471 33.2076C70.1786 33.9127 70.5254 34.7202 70.6903 35.323C71.0257 36.5512 70.5595 37.5862 70.3434 37.9728C69.6725 39.167 68.507 39.5992 67.8759 39.8323L67.6485 39.9176C66.2157 40.5147 65.6812 43.483 65.3685 45.2515C65.323 45.4903 65.2832 45.7178 65.2434 45.9339C64.726 48.6349 63.6458 54.2588 59.6204 58.2791C57.71 60.1898 55.504 61.5432 53.0705 62.3108C51.5069 62.793 49.8796 63.0365 48.2434 63.033Z" fill="#DBA0A0"/>
<path d="M42.7457 61.0202C41.8334 61.0256 40.9217 60.9705 40.0166 60.8553C39.8632 60.8423 39.714 60.7982 39.5781 60.7258C39.4422 60.6534 39.3225 60.5542 39.2261 60.4341C39.1297 60.3141 39.0586 60.1757 39.0173 60.0273C38.976 59.879 38.9652 59.7238 38.9856 59.5712C39.0061 59.4186 39.0573 59.2717 39.1361 59.1394C39.215 59.0072 39.3199 58.8923 39.4445 58.8018C39.5691 58.7114 39.7107 58.6471 39.8609 58.613C40.011 58.5789 40.1665 58.5757 40.3179 58.6034C40.9604 58.6887 43.2802 58.9333 46.0604 58.4897C49.7163 57.904 52.5591 56.4085 54.5093 54.0372C55.527 52.8033 56.2775 51.3475 56.7551 49.7155C56.7957 49.5719 56.8643 49.4376 56.957 49.3206C57.0496 49.2036 57.1646 49.106 57.2951 49.0336C57.4256 48.9612 57.5692 48.9153 57.7176 48.8987C57.8659 48.882 58.0161 48.8949 58.1594 48.9365C58.4491 49.0211 58.6936 49.2168 58.8396 49.481C58.9855 49.7452 59.021 50.0564 58.9384 50.3467C58.3755 52.2801 57.4772 54.0088 56.2661 55.4873C55.0551 56.9657 53.3892 58.2736 51.4959 59.1891C49.9778 59.917 48.2721 60.4402 46.4243 60.7359C45.2074 60.9263 43.9774 61.0214 42.7457 61.0202Z" fill="#DBA0A0"/>
<path d="M63.0888 34.624C62.9198 34.625 62.7527 34.588 62.5998 34.516C60.5834 33.5469 58.5122 32.6963 56.3968 31.9684C54.4206 31.2912 52.4086 30.7236 50.37 30.2682C50.2186 30.2416 50.0742 30.1845 49.9455 30.1005C49.8168 30.0166 49.7064 29.9074 49.6211 29.7795C49.5358 29.6517 49.4772 29.5079 49.449 29.3568C49.4208 29.2057 49.4235 29.0504 49.457 28.9004C49.4904 28.7504 49.5539 28.6087 49.6437 28.4839C49.7334 28.3592 49.8475 28.2539 49.9791 28.1744C50.1107 28.095 50.257 28.043 50.4092 28.0217C50.5614 28.0004 50.7163 28.0102 50.8646 28.0504C52.9867 28.5214 55.0804 29.1118 57.1359 29.8189C59.3351 30.5731 61.488 31.456 63.5834 32.4631C63.8548 32.5944 64.0629 32.8281 64.162 33.1128C64.2612 33.3975 64.2433 33.7099 64.1122 33.9814C64.0209 34.1752 63.8759 34.3387 63.6946 34.4526C63.5132 34.5665 63.3029 34.626 63.0888 34.624Z" fill="#DBA0A0"/>
<path d="M40.7672 30.3536C40.4974 30.3517 40.2372 30.254 40.0329 30.0778C39.8286 29.9017 39.6935 29.6587 39.6518 29.3921C39.6102 29.1256 39.6646 28.8529 39.8053 28.6228C39.9461 28.3927 40.1641 28.2201 40.4203 28.1359C41.4413 27.8076 42.4928 27.5828 43.5588 27.4649C44.4876 27.3626 45.4234 27.3398 46.3561 27.3967C46.6577 27.4155 46.9394 27.5535 47.1394 27.7801C47.3393 28.0067 47.441 28.3034 47.4222 28.6051C47.4033 28.9067 47.2654 29.1885 47.0389 29.3884C46.8123 29.5884 46.5156 29.6901 46.214 29.6713C45.4122 29.6191 44.6074 29.6381 43.809 29.7281C42.8932 29.8259 41.99 30.0183 41.114 30.3025C41.0014 30.3361 40.8846 30.3533 40.7672 30.3536Z" fill="#DBA0A0"/>
<path d="M8.0804 27.6575C7.85248 27.6585 7.62957 27.5906 7.44087 27.4628C7.25217 27.3349 7.10648 27.1531 7.02287 26.941C5.83458 23.967 5.53324 21.1067 6.12454 18.4455C6.16434 18.2635 6.54528 16.6201 7.48909 14.6242C8.72288 12.0198 10.3319 10.0011 12.2707 8.62498C13.55 7.64691 15.0169 6.16275 15.1761 5.44625C15.2045 5.32115 15.2215 5.17331 15.25 5.0084C15.3296 4.49093 15.4319 3.84268 15.8072 2.97265C16.1824 2.10262 16.6771 0.982395 17.9393 0.368258C19.2015 -0.245878 20.2818 0.055504 21.055 0.226097C21.9861 0.43035 22.8723 0.802227 23.6704 1.32358L23.6931 1.34064C25.0804 2.23341 27.2808 2.10262 28.8898 2.00595C29.2707 1.98321 29.6289 1.96046 29.953 1.95478C35.8718 1.81262 40.9774 6.07745 41.9383 6.9361C43.495 8.30524 44.8014 9.93506 45.7989 11.7525C46.9997 13.9394 47.7226 16.3564 47.9196 18.8435C47.941 18.9968 47.931 19.1528 47.8901 19.302C47.8491 19.4512 47.7782 19.5905 47.6816 19.7114C47.5849 19.8323 47.4647 19.9321 47.3281 20.0049C47.1916 20.0776 47.0416 20.1218 46.8874 20.1345C46.7332 20.1473 46.578 20.1285 46.4314 20.0792C46.2847 20.03 46.1496 19.9513 46.0344 19.848C45.9192 19.7447 45.8263 19.619 45.7614 19.4785C45.6964 19.3381 45.6608 19.1859 45.6567 19.0312C45.4814 16.8614 44.8498 14.753 43.8032 12.8443C42.9277 11.2595 41.7873 9.83631 40.4316 8.63635C39.3487 7.6963 38.1711 6.87114 36.9179 6.17412C34.5015 4.83212 32.1761 4.17249 30.0042 4.22367L29.0263 4.27485C27.1045 4.38858 24.4721 4.5478 22.4594 3.25129L22.4309 3.23423C21.8626 2.85947 21.2306 2.59161 20.566 2.44381C19.9634 2.31302 19.4005 2.18792 18.9343 2.41538C18.468 2.64284 18.1667 3.25129 17.8938 3.88248C17.6209 4.51368 17.5697 4.90604 17.4958 5.35527C17.4674 5.54292 17.4389 5.73626 17.3935 5.94098C16.9784 7.82319 14.1868 10.0238 13.6353 10.4446L13.6011 10.4731C9.63826 13.2708 8.39311 18.707 8.34194 18.9345C7.85297 21.1465 8.1202 23.5576 9.13224 26.0994C9.24443 26.3792 9.24097 26.6921 9.12263 26.9693C9.0043 27.2465 8.78076 27.4654 8.50114 27.5779C8.36727 27.6311 8.22445 27.6581 8.0804 27.6575Z" fill="#DBA0A0"/>
<path d="M40.3915 17.7573C40.1705 17.7569 39.9544 17.6922 39.7697 17.571C39.5849 17.4498 39.4394 17.2774 39.351 17.0749C38.4116 14.9242 36.9015 13.0717 34.9845 11.7183C32.0507 9.65407 29.0032 9.36406 27.4396 9.37544C27.138 9.3777 26.8479 9.26005 26.6331 9.04836C26.4182 8.83668 26.2962 8.5483 26.294 8.24668C26.2917 7.94505 26.4094 7.65488 26.621 7.43999C26.8327 7.22511 27.121 7.10312 27.4226 7.10086C29.2533 7.08949 32.841 7.42499 36.2922 9.85878C38.5493 11.4493 40.3271 13.6286 41.432 16.1594C41.4925 16.296 41.5256 16.4433 41.5292 16.5927C41.5329 16.7421 41.507 16.8908 41.4531 17.0302C41.3993 17.1696 41.3185 17.2971 41.2153 17.4052C41.1122 17.5134 40.9887 17.6002 40.852 17.6606C40.7063 17.7225 40.5498 17.7553 40.3915 17.7573Z" fill="#DBA0A0"/>
</svg>
