<svg width="64" height="64" viewBox="0 0 64 64" fill="none" xmlns="http://www.w3.org/2000/svg">
<path d="M52.8899 12.6166C52.9283 12.6166 52.9673 12.6162 53.0066 12.6151C58.9155 12.4631 63.8463 7.53211 63.9984 1.62373C64.003 1.44573 63.9959 1.27786 63.9895 1.12948C63.9875 1.08123 63.9854 1.03273 63.9839 0.984356C63.9664 0.457106 63.5431 0.0336062 63.0159 0.0159812L62.8714 0.0102312C62.7229 0.0039812 62.5549 -0.0031438 62.3764 0.0014812C56.4676 0.153606 51.5369 5.08448 51.3846 10.9934C51.3828 11.0637 51.3839 11.1311 51.3849 11.1979L49.4118 13.1711C49.4271 10.4309 48.3931 7.68598 46.307 5.59986C46.2914 5.58423 46.2749 5.56886 46.259 5.55323L47.0626 4.74961C47.454 4.35823 47.454 3.72373 47.0626 3.33248C46.6713 2.94098 46.0368 2.94098 45.6455 3.33248L43.378 5.59998C39.4755 9.50248 39.2518 15.7101 42.7038 19.879L39.8876 22.6952C40.0256 19.5324 38.8909 16.3239 36.481 13.9141C36.4654 13.8985 36.4489 13.883 36.4331 13.8675L37.2368 13.0639C37.6281 12.6725 37.6281 12.0381 37.2368 11.6467C36.8454 11.2554 36.2109 11.2554 35.8196 11.6467L33.5521 13.9142C29.2328 18.2337 29.0093 25.1182 32.876 29.7069L29.5999 32.983C29.6243 32.6597 29.6368 32.3344 29.6368 32.0067C29.6368 28.5985 28.3095 25.3941 25.8995 22.9842C25.8837 22.9684 25.8674 22.9535 25.8515 22.9377L26.6555 22.1337C27.0469 21.7424 27.0469 21.1079 26.6555 20.7166C26.2642 20.3252 25.6297 20.3252 25.2384 20.7166L22.9709 22.9841C20.5608 25.3941 19.2337 28.5985 19.2337 32.0066C19.2337 35.0787 20.3124 37.9849 22.29 40.2931L19.2924 43.2907C19.3425 42.8095 19.3687 42.323 19.3687 41.8324C19.3687 38.1385 17.9302 34.6659 15.3182 32.0539C15.3023 32.038 15.286 32.0231 15.2702 32.0074L16.0739 31.2036C16.4653 30.8122 16.4653 30.1777 16.0739 29.7865C15.6825 29.3951 15.048 29.3951 14.6568 29.7865L12.3899 32.054C9.77791 34.666 8.33965 38.1386 8.33965 41.8325C8.33965 45.1902 9.52853 48.3651 11.7068 50.8771L0.293531 62.2894C-0.0978438 62.6807 -0.0978438 63.3151 0.293531 63.7065C0.489031 63.9021 0.745656 64 1.00203 64C1.25841 64 1.51491 63.9022 1.71053 63.7065L13.1234 52.2936C15.6353 54.4719 18.8102 55.6607 22.168 55.6607C25.8619 55.6607 29.3345 54.2222 31.9464 51.6105L34.2139 49.343C34.6053 48.9516 34.6053 48.3172 34.2139 47.9259C33.8225 47.5345 33.188 47.5345 32.7968 47.9259L31.993 48.7299C31.9774 48.714 31.9624 48.6977 31.9465 48.6819C28.9615 45.6969 24.7999 44.2827 20.707 44.7105L23.7074 41.7101C26.0158 43.6877 28.9218 44.7665 31.9939 44.7665C35.4021 44.7665 38.6065 43.4392 41.0165 41.0292L43.284 38.7619C43.6754 38.3705 43.6754 37.736 43.284 37.3447C42.8928 36.9534 42.2583 36.9532 41.8669 37.3447L41.0631 38.1485C41.0474 38.1325 41.0326 38.1164 41.0166 38.1004C38.3521 35.4359 34.6707 34.1287 31.0137 34.4041L34.2933 31.1245C36.3978 32.9015 39.0335 33.872 41.8198 33.872C44.9425 33.872 47.8784 32.6559 50.0864 30.4477L52.3539 28.1802C52.7453 27.7889 52.7453 27.1544 52.3539 26.7631C51.9625 26.3717 51.328 26.3717 50.9368 26.7631L50.1331 27.5667C50.1176 27.551 50.1021 27.5344 50.0865 27.5189C48.5053 25.9376 46.5199 24.8484 44.3453 24.3692C43.344 24.1486 42.3243 24.0627 41.3113 24.1066L44.1216 21.2962C46.0784 22.9167 48.4833 23.7284 50.8898 23.7282C53.6094 23.7281 56.3301 22.6926 58.4006 20.622L60.668 18.3545C61.0594 17.9631 61.0594 17.3286 60.668 16.9374C60.2764 16.5455 59.6419 16.5455 59.2505 16.9369L58.4469 17.7405C58.4313 17.7247 58.4159 17.7081 58.4003 17.6926C56.356 15.6482 53.6319 14.561 50.8391 14.5777L52.8019 12.615C52.8313 12.6157 52.8596 12.6166 52.8899 12.6166ZM61.9714 2.02836C61.6253 6.53136 57.9145 10.242 53.4115 10.5884C53.7579 6.08536 57.4684 2.37461 61.9714 2.02836ZM13.8549 50.239C13.8392 50.2234 13.8225 50.2089 13.8068 50.1931C11.5734 47.9597 10.3434 44.9904 10.3434 41.8319C10.3433 38.6734 11.5733 35.7039 13.8067 33.4706C13.8223 33.455 13.838 33.4395 13.8539 33.4239C13.8698 33.4394 13.8854 33.455 13.9012 33.4706C16.1345 35.7041 17.3645 38.6735 17.3645 41.8319C17.3645 44.9905 16.1345 47.9599 13.9012 50.1931C13.8859 50.2086 13.8705 50.2237 13.8549 50.239ZM30.5293 50.0987C30.5449 50.1144 30.5605 50.1301 30.576 50.146C30.5605 50.1619 30.545 50.1775 30.5293 50.1932C28.2959 52.4267 25.3265 53.6566 22.168 53.6566C19.711 53.6566 17.3702 52.9094 15.3995 51.5272C16.6198 50.2867 17.5783 48.8565 18.2474 47.3032C22.5213 45.8051 27.32 46.8895 30.5293 50.0987ZM24.4364 39.6575C24.4207 39.6419 24.4039 39.6272 24.3883 39.6116C22.3567 37.58 21.238 34.8791 21.238 32.0061C21.2379 29.1332 22.3567 26.4321 24.3882 24.4006C24.4039 24.385 24.4195 24.3694 24.4354 24.3539C24.4512 24.3694 24.4668 24.3849 24.4825 24.4005C24.4825 24.4005 24.4825 24.4006 24.4827 24.4006C26.5143 26.432 27.6329 29.1331 27.6329 32.0061C27.6329 33.3012 27.4035 34.5606 26.9677 35.7402C26.9637 35.7507 26.9592 35.7611 26.9555 35.7717C26.4239 37.1966 25.5902 38.504 24.4825 39.6115C24.4673 39.6271 24.4519 39.6422 24.4364 39.6575ZM39.5991 39.5172C39.6148 39.533 39.6304 39.5486 39.6459 39.5645C39.6304 39.5804 39.6148 39.596 39.5991 39.6117C37.5675 41.6434 34.8666 42.762 31.9937 42.762C29.8233 42.762 27.7517 42.1226 25.9919 40.9345C27.1524 39.7504 28.0559 38.3801 28.6725 36.8907C32.4972 35.6531 36.7418 36.6599 39.5991 39.5172ZM35.0179 29.076C35.0022 29.0604 34.9854 29.0457 34.9696 29.0301C31.1928 25.2532 31.1928 19.1079 34.9696 15.3307C34.9853 15.3151 35.001 15.2995 35.0169 15.2839C35.0328 15.2995 35.0485 15.3151 35.0641 15.3307C38.8411 19.1077 38.8411 25.2531 35.0641 29.0301C35.0489 29.0454 35.0335 29.0607 35.0179 29.076ZM48.6689 28.9357C48.6845 28.9514 48.7001 28.9671 48.7158 28.983C48.7001 28.9987 48.6845 29.0145 48.6689 29.0302C46.8394 30.8597 44.4066 31.8674 41.8193 31.8674C39.9355 31.8674 38.1352 31.3309 36.5885 30.3345C37.6968 29.1966 38.5274 27.8881 39.0788 26.493C42.4939 25.4834 46.1314 26.398 48.6689 28.9357ZM44.8438 19.2504C44.8279 19.2347 44.8113 19.2202 44.7955 19.2045C41.4351 15.8442 41.4352 10.377 44.7954 7.01686C44.811 7.00123 44.8268 6.98561 44.8426 6.96998C44.8585 6.98548 44.8741 7.00111 44.8899 7.01686C48.25 10.377 48.25 15.8444 44.8899 19.2045C44.8746 19.2197 44.8593 19.2351 44.8438 19.2504ZM56.983 19.11C56.9986 19.1256 57.0143 19.1414 57.0299 19.1572C57.0143 19.173 56.9986 19.1887 56.983 19.2045C54.1265 22.0609 49.7476 22.4874 46.4346 20.4871C47.4705 19.4149 48.2356 18.1774 48.7306 16.8599C51.6849 16.0954 54.808 16.9352 56.983 19.11Z" fill="#78BE20"/>
</svg>
