<svg width="64" height="64" viewBox="0 0 64 64" fill="none" xmlns="http://www.w3.org/2000/svg">
<path d="M6.26721 37.1603C4.03772 39.7819 3.12366 42.9825 3.07874 43.1437C2.92444 43.6974 3.16809 44.2853 3.66907 44.568C3.81555 44.6505 6.76282 46.2887 10.2213 46.5499C9.13879 49.8458 9.52405 53.1964 9.54456 53.3634C9.61389 53.9347 10.0641 54.3844 10.6349 54.4537C12.4523 54.6744 15.2267 54.5074 17.4479 53.778C17.7096 57.236 19.3478 60.1832 19.4303 60.3297C19.7125 60.8297 20.3004 61.0743 20.8551 60.9196C21.0157 60.8746 24.2169 59.9606 26.8385 57.7311C28.3746 61.0494 31.0143 63.5397 31.1461 63.6627C31.3864 63.8868 31.6925 63.9991 31.9991 63.9991C32.3058 63.9991 32.6119 63.8868 32.8522 63.6627C32.984 63.5397 35.6237 61.049 37.1603 57.7311C39.7819 59.9606 42.983 60.8746 43.1437 60.9196C43.694 61.0729 44.2838 60.8336 44.568 60.3297C44.6505 60.1832 46.2887 57.2365 46.5504 53.778C48.7057 54.4855 51.4938 54.6808 53.3634 54.4537C53.9347 54.3849 54.3844 53.9347 54.4542 53.3634C54.4742 53.1964 54.8595 49.8453 53.777 46.5499C57.2355 46.2882 60.1832 44.6505 60.3297 44.568C60.8307 44.2853 61.0739 43.6974 60.9196 43.1437C60.8746 42.983 59.9606 39.7819 57.7311 37.1603C61.0494 35.6237 63.5397 32.984 63.6627 32.8522C64.1115 32.3717 64.1115 31.6261 63.6627 31.1461C63.5397 31.0143 61.049 28.3746 57.7311 26.838C59.9606 24.2164 60.8746 21.0157 60.9196 20.8546C61.0739 20.3009 60.8307 19.713 60.3297 19.4303C60.1832 19.3478 57.236 17.7096 53.777 17.4479C54.8595 14.152 54.4742 10.8019 54.4542 10.6349C54.3844 10.0636 53.9347 9.61389 53.3634 9.54456C53.1969 9.52405 49.8458 9.13879 46.5504 10.2208C46.2892 6.76233 44.6505 3.81506 44.568 3.66858C44.2853 3.1676 43.6969 2.92395 43.1437 3.07874C42.983 3.12366 39.7814 4.03772 37.1603 6.26721C35.6237 2.94934 32.984 0.458618 32.8522 0.335571C32.3717 -0.113159 31.6266 -0.113159 31.1461 0.335571C31.0143 0.458618 28.3746 2.94934 26.838 6.26721C24.2164 4.03772 21.0153 3.12366 20.8546 3.07874C20.3009 2.92444 19.713 3.16809 19.4303 3.66858C19.3478 3.81506 17.7091 6.76233 17.4479 10.2213C14.152 9.13879 10.8014 9.52405 10.6349 9.54456C10.0641 9.6134 9.61389 10.0636 9.54456 10.6349C9.52405 10.8019 9.13879 14.1525 10.2208 17.4479C6.76282 17.7091 3.81506 19.3478 3.66858 19.4303C3.1676 19.713 2.92444 20.3009 3.07874 20.8546C3.12317 21.0153 4.03772 24.2164 6.26721 26.838C2.94934 28.3746 0.458618 31.0143 0.335571 31.1461C-0.113159 31.6266 -0.113159 32.3722 0.335571 32.8522C0.458618 32.984 2.94934 35.6237 6.26721 37.1603ZM8.86731 38.045C9.50891 38.1803 10.1393 38.2491 10.7491 38.2491C12.8839 38.2491 14.8263 37.4117 16.3649 36.4362C16.7091 37.6471 17.1945 38.8175 17.8087 39.9181C15.6388 40.4034 13.8439 41.3151 12.5538 42.6051C12.1168 43.0426 11.7218 43.5372 11.3741 44.0802C9.18323 44.1417 7.01575 43.3615 5.82727 42.8395C6.29846 41.631 7.27698 39.5509 8.86731 38.045ZM31.9991 18.2491C39.5822 18.2491 45.7491 24.3966 45.7491 31.9991C45.7491 40.3878 38.2697 46.8834 29.8824 45.5875C23.2867 44.569 18.2491 38.8619 18.2491 31.9991C18.2491 24.4274 24.3864 18.2491 31.9991 18.2491ZM11.9674 52.0309C11.9122 49.3878 12.4503 46.2443 14.3219 44.3732C15.6993 42.9957 17.6984 42.4142 19.3326 42.1759C20.0709 43.0944 20.9044 43.9279 21.8224 44.6656C21.5841 46.2999 21.0026 48.299 19.6251 49.6764C17.7501 51.5519 14.6031 52.0861 11.9674 52.0309ZM21.1588 58.171C20.6368 56.9821 19.8566 54.8156 19.9181 52.6241C20.4615 52.2765 20.9562 51.8815 21.3932 51.4445C22.6832 50.1544 23.5953 48.3595 24.0807 46.1896C25.1808 46.8038 26.3517 47.2892 27.5621 47.6334C26.5865 49.172 25.7491 51.1144 25.7491 53.2491C25.7491 53.859 25.818 54.4899 25.9532 55.131C24.4474 56.7218 22.3668 57.7003 21.1588 58.171ZM31.9991 60.942C30.192 58.92 28.2491 55.9689 28.2491 53.2491C28.2491 51.2999 29.2511 49.4762 30.2379 48.153C30.8209 48.2155 31.4103 48.2491 31.9991 48.2491C32.5875 48.2491 33.1774 48.2155 33.7604 48.153C34.7472 49.4762 35.7491 51.2999 35.7491 53.2491C35.7491 55.9733 33.7999 58.9269 31.9991 60.942ZM42.8385 58.173C41.6324 57.7052 39.5563 56.7301 38.045 55.1315C38.1803 54.4899 38.2491 53.859 38.2491 53.2491C38.2491 51.1144 37.4117 49.172 36.4362 47.6334C37.6471 47.2892 38.8175 46.8038 39.9181 46.1896C40.4034 48.3595 41.3151 50.1539 42.6056 51.4445C43.0426 51.8815 43.5372 52.2765 44.0807 52.6237C44.1422 54.817 43.361 56.985 42.8385 58.173ZM52.0309 52.0309C49.3785 52.087 46.2433 51.547 44.3732 49.6769C42.9957 48.299 42.4142 46.2999 42.1759 44.6656C43.0939 43.9279 43.9279 43.0939 44.6656 42.1759C46.2999 42.4142 48.299 42.9957 49.6764 44.3732C51.5504 46.2472 52.0861 49.3937 52.0309 52.0309ZM52.6241 44.0807C52.276 43.5372 51.8815 43.0426 51.4445 42.6051C50.1544 41.3151 48.3595 40.4034 46.1896 39.9181C46.8038 38.8175 47.2892 37.6471 47.6334 36.4362C49.172 37.4117 51.1144 38.2491 53.2491 38.2491C53.859 38.2491 54.4899 38.1803 55.131 38.045C56.7218 39.5509 57.7003 41.6315 58.171 42.8395C56.9821 43.3619 54.8151 44.1422 52.6241 44.0807ZM53.2491 35.7491C51.2999 35.7491 49.4762 34.7472 48.153 33.7609C48.2155 33.1774 48.2491 32.5875 48.2491 31.9991C48.2491 31.4108 48.2155 30.8209 48.153 30.2374C49.4762 29.2511 51.2999 28.2491 53.2491 28.2491C55.9606 28.2491 58.9176 30.1901 60.942 31.9991C58.9274 33.7994 55.9733 35.7491 53.2491 35.7491ZM55.131 25.9532C54.4894 25.818 53.859 25.7491 53.2491 25.7491C51.1144 25.7491 49.1715 26.5865 47.6334 27.5621C47.2892 26.3512 46.8038 25.1808 46.1896 24.0802C48.3595 23.5948 50.1544 22.6832 51.4445 21.3932C51.8815 20.9557 52.276 20.4611 52.6237 19.9181C54.8156 19.8566 56.9825 20.6368 58.171 21.1588C57.6998 22.3673 56.7213 24.4479 55.131 25.9532ZM52.0309 11.9674C52.0861 14.6105 51.548 17.754 49.6764 19.6251C48.299 21.0026 46.2999 21.5841 44.6656 21.8224C43.9274 20.9039 43.0939 20.0704 42.1759 19.3326C42.4142 17.6984 42.9957 15.6993 44.3727 14.3219C46.2408 12.4542 49.3785 11.9108 52.0309 11.9674ZM42.8395 5.82727C43.3619 7.01624 44.1417 9.18323 44.0802 11.3746C43.5372 11.7223 43.0426 12.1168 42.6051 12.5538C41.3151 13.8444 40.403 15.6388 39.9176 17.8087C38.8175 17.1945 37.6466 16.7091 36.4362 16.3649C37.4117 14.8263 38.2491 12.8839 38.2491 10.7491C38.2491 10.1393 38.1803 9.50842 38.045 8.86731C39.5509 7.27698 41.6315 6.29797 42.8395 5.82727ZM31.9991 3.05627C33.8063 5.07874 35.7491 8.02991 35.7491 10.7491C35.7491 12.6984 34.7472 14.5226 33.7604 15.8453C32.5948 15.7203 31.4034 15.7203 30.2379 15.8453C29.2511 14.5226 28.2491 12.6984 28.2491 10.7491C28.2491 8.02405 30.1769 5.09583 31.9991 3.05627ZM21.1598 5.82532C22.3658 6.29309 24.442 7.26819 25.9532 8.86682C25.818 9.50842 25.7491 10.1393 25.7491 10.7491C25.7491 12.8839 26.5865 14.8263 27.5621 16.3649C26.3512 16.7091 25.1808 17.1945 24.0807 17.8087C23.5953 15.6388 22.6832 13.8444 21.3932 12.5538C20.9557 12.1168 20.4611 11.7218 19.9181 11.3746C19.8561 9.18127 20.6378 7.01331 21.1598 5.82532ZM11.9674 11.9674C14.6129 11.9122 17.755 12.4518 19.6251 14.3219C21.0026 15.6993 21.5841 17.6984 21.8224 19.3326C20.9044 20.0709 20.0704 20.9044 19.3326 21.8224C17.6984 21.5841 15.6993 21.0026 14.3219 19.6251C12.4479 17.7516 11.9122 14.6046 11.9674 11.9674ZM11.3741 19.9181C11.7223 20.4615 12.1168 20.9562 12.5538 21.3932C13.8439 22.6832 15.6388 23.5953 17.8087 24.0807C17.1945 25.1808 16.7091 26.3517 16.3649 27.5621C14.8263 26.5865 12.8839 25.7491 10.7491 25.7491C10.1393 25.7491 9.50842 25.818 8.86731 25.9532C7.27649 24.4474 6.29797 22.3668 5.82727 21.1588C7.01672 20.6368 9.18274 19.8561 11.3741 19.9181ZM10.7491 28.2491C12.6984 28.2491 14.5221 29.2511 15.8453 30.2379C15.7828 30.8209 15.7491 31.4108 15.7491 31.9991C15.7491 32.5875 15.7828 33.1774 15.8453 33.7604C13.0934 35.8126 10.9313 36.0079 9.02991 35.5153C8.83264 35.4313 6.37122 34.9611 3.05627 31.9991C5.07043 30.1993 8.02454 28.2491 10.7491 28.2491Z" fill="#F2C94C"/>
</svg>
